<?xml version="1.0" encoding="utf-8"?>
<!-- Generator: Adobe Illustrator 19.0.1, SVG Export Plug-In . SVG Version: 6.00 Build 0)  -->
<svg version="1.1" id="圖層_1" xmlns="http://www.w3.org/2000/svg" xmlns:xlink="http://www.w3.org/1999/xlink" x="0px" y="0px"
	 viewBox="-603 297 233 175" style="enable-background:new -603 297 233 175;" xml:space="preserve">
<style type="text/css">
	.st0{enable-background:new    ;}
	.st1{fill:#5CA0B5;}
</style>
<g class="st0">
	<path class="st1" d="M-500.1,320.4c8.6,15.1,12.9,36.5,12.9,64.2c0,27.7-4.3,49.1-12.9,64.1c-8.6,15-23.5,22.5-44.8,22.5
		c-21.3,0-36.3-7.5-44.8-22.5c-8.6-15-12.9-36.3-12.9-64.1c0-27.7,4.3-49.1,12.9-64.2c8.6-15.1,23.5-22.6,44.8-22.6
		C-523.6,297.8-508.7,305.4-500.1,320.4z M-564.3,428.9c3.2,10.2,9.6,15.4,19.4,15.4c9.8,0,16.2-5.1,19.2-15.4
		c3-10.2,4.6-25,4.6-44.3c0-20.2-1.5-35.2-4.6-45c-3-9.7-9.4-14.6-19.2-14.6c-9.8,0-16.2,4.9-19.4,14.6c-3.2,9.7-4.7,24.7-4.7,45
		C-569,403.9-567.5,418.7-564.3,428.9z"/>
	<path class="st1" d="M-462.2,351.1v-22.5c10.4-0.5,17.6-1.2,21.8-2.1c6.6-1.5,12-4.4,16.1-8.8c2.8-3,5-7,6.4-12
		c0.8-3,1.3-5.3,1.3-6.7h27.5v168h-33.7V351.1H-462.2z"/>
</g>
</svg>
