<?xml version="1.0" encoding="utf-8"?>
<!-- Generator: Adobe Illustrator 19.0.1, SVG Export Plug-In . SVG Version: 6.00 Build 0)  -->
<svg version="1.1" id="圖層_1" xmlns="http://www.w3.org/2000/svg" xmlns:xlink="http://www.w3.org/1999/xlink" x="0px" y="0px"
	 viewBox="-586 297 266 175" style="enable-background:new -586 297 266 175;" xml:space="preserve">
<style type="text/css">
	.st0{enable-background:new    ;}
	.st1{fill:#3386BA;}
</style>
<g class="st0">
	<path class="st1" d="M-483.1,320.4c8.6,15.1,12.9,36.5,12.9,64.2c0,27.7-4.3,49.1-12.9,64.1c-8.6,15-23.5,22.5-44.8,22.5
		c-21.3,0-36.3-7.5-44.8-22.5c-8.6-15-12.9-36.3-12.9-64.1c0-27.7,4.3-49.1,12.9-64.2c8.6-15.1,23.5-22.6,44.8-22.6
		C-506.6,297.8-491.7,305.4-483.1,320.4z M-547.3,428.9c3.2,10.2,9.6,15.4,19.4,15.4c9.8,0,16.2-5.1,19.2-15.4
		c3-10.2,4.6-25,4.6-44.3c0-20.2-1.5-35.2-4.6-45c-3-9.7-9.4-14.6-19.2-14.6c-9.8,0-16.2,4.9-19.4,14.6c-3.2,9.7-4.7,24.7-4.7,45
		C-552,403.9-550.5,418.7-547.3,428.9z"/>
	<path class="st1" d="M-446.5,434c4.7-11.2,15.8-23.1,33.2-35.6c15.2-10.9,25-18.7,29.4-23.4c6.8-7.3,10.3-15.4,10.3-24.1
		c0-7.1-2-13-5.9-17.7c-3.9-4.7-9.5-7.1-16.8-7.1c-10,0-16.8,3.7-20.4,11.2c-2.1,4.3-3.3,11.2-3.7,20.6h-32
		c0.5-14.3,3.1-25.8,7.7-34.6c8.8-16.8,24.4-25.1,46.8-25.1c17.7,0,31.8,4.9,42.3,14.8s15.7,22.9,15.7,39.1
		c0,12.4-3.7,23.5-11.1,33.1c-4.9,6.4-12.8,13.6-23.9,21.4L-388,416c-8.2,5.9-13.9,10.1-16.9,12.7c-3,2.6-5.6,5.7-7.7,9.2h73V467
		h-114.6C-453.9,454.9-451.3,443.9-446.5,434z"/>
</g>
</svg>
