<?xml version="1.0" encoding="utf-8"?>
<!-- Generator: Adobe Illustrator 19.0.1, SVG Export Plug-In . SVG Version: 6.00 Build 0)  -->
<svg version="1.1" id="圖層_1" xmlns="http://www.w3.org/2000/svg" xmlns:xlink="http://www.w3.org/1999/xlink" x="0px" y="0px"
	 viewBox="-586 297 266 175" style="enable-background:new -586 297 266 175;" xml:space="preserve">
<style type="text/css">
	.st0{enable-background:new    ;}
	.st1{fill:#3386BA;}
</style>
<g class="st0">
	<path class="st1" d="M-483.1,320.4c8.6,15.1,12.9,36.5,12.9,64.2c0,27.7-4.3,49.1-12.9,64.1c-8.6,15-23.5,22.5-44.8,22.5
		c-21.3,0-36.3-7.5-44.8-22.5c-8.6-15-12.9-36.3-12.9-64.1c0-27.7,4.3-49.1,12.9-64.2c8.6-15.1,23.5-22.6,44.8-22.6
		C-506.6,297.8-491.7,305.4-483.1,320.4z M-547.3,428.9c3.2,10.2,9.6,15.4,19.4,15.4c9.8,0,16.2-5.1,19.2-15.4
		c3-10.2,4.6-25,4.6-44.3c0-20.2-1.5-35.2-4.6-45c-3-9.7-9.4-14.6-19.2-14.6c-9.8,0-16.2,4.9-19.4,14.6c-3.2,9.7-4.7,24.7-4.7,45
		C-552,403.9-550.5,418.7-547.3,428.9z"/>
	<path class="st1" d="M-423,415.4c0,6.7,1.1,12.3,3.2,16.7c4,8.1,11.2,12.2,21.8,12.2c6.4,0,12.1-2.2,16.9-6.7
		c4.8-4.4,7.2-10.8,7.2-19.2c0-11-4.4-18.4-13.3-22.1c-5.1-2.1-13-3.1-23.9-3.1v-23.6c10.7-0.2,18.1-1.2,22.3-3.1
		c7.3-3.2,10.9-9.8,10.9-19.7c0-6.4-1.9-11.6-5.6-15.6c-3.7-4-9-6-15.7-6c-7.8,0-13.4,2.5-17.1,7.4c-3.6,4.9-5.4,11.5-5.2,19.8
		h-30.7c0.3-8.3,1.7-16.3,4.3-23.8c2.7-6.6,6.9-12.6,12.7-18.2c4.3-3.9,9.4-7,15.3-9c5.9-2.1,13.2-3.1,21.8-3.1
		c16,0,28.9,4.2,38.7,12.5c9.8,8.3,14.7,19.4,14.7,33.4c0,9.9-2.9,18.2-8.8,25c-3.7,4.2-7.5,7.1-11.5,8.7c3,0,7.3,2.6,12.9,7.8
		c8.4,7.8,12.6,18.5,12.6,32c0,14.2-4.9,26.7-14.7,37.5c-9.8,10.8-24.3,16.2-43.5,16.2c-23.7,0-40.1-7.8-49.3-23.3
		c-4.8-8.3-7.5-19.1-8.1-32.4H-423z"/>
</g>
</svg>
