<?xml version="1.0" encoding="utf-8"?>
<!-- Generator: Adobe Illustrator 19.0.1, SVG Export Plug-In . SVG Version: 6.00 Build 0)  -->
<svg version="1.1" id="圖層_1" xmlns="http://www.w3.org/2000/svg" xmlns:xlink="http://www.w3.org/1999/xlink" x="0px" y="0px"
	 viewBox="-586 297 266 175" style="enable-background:new -586 297 266 175;" xml:space="preserve">
<style type="text/css">
	.st0{enable-background:new    ;}
	.st1{fill:#3386BA;}
</style>
<g class="st0">
	<path class="st1" d="M-483.1,320.4c8.6,15.1,12.9,36.5,12.9,64.2c0,27.7-4.3,49.1-12.9,64.1c-8.6,15-23.5,22.5-44.8,22.5
		c-21.3,0-36.3-7.5-44.8-22.5c-8.6-15-12.9-36.3-12.9-64.1c0-27.7,4.3-49.1,12.9-64.2c8.6-15.1,23.5-22.6,44.8-22.6
		C-506.6,297.8-491.7,305.4-483.1,320.4z M-547.3,428.9c3.2,10.2,9.6,15.4,19.4,15.4c9.8,0,16.2-5.1,19.2-15.4
		c3-10.2,4.6-25,4.6-44.3c0-20.2-1.5-35.2-4.6-45c-3-9.7-9.4-14.6-19.2-14.6c-9.8,0-16.2,4.9-19.4,14.6c-3.2,9.7-4.7,24.7-4.7,45
		C-552,403.9-550.5,418.7-547.3,428.9z"/>
	<path class="st1" d="M-422.6,422c1.3,7.2,3.8,12.7,7.5,16.6c3.7,3.9,9.1,5.9,16.1,5.9c8.1,0,14.3-2.9,18.6-8.6
		c4.3-5.8,6.4-13,6.4-21.7c0-8.6-2-15.8-6-21.7c-4-5.9-10.2-8.9-18.7-8.9c-4,0-7.4,0.5-10.4,1.5c-5.1,1.9-9,5.3-11.6,10.3l-29.5-1.4
		l11.7-92.8h92.1v28h-68.3l-6,36.7c5.1-3.3,9-5.5,11.9-6.6c4.8-1.8,10.6-2.7,17.4-2.7c13.8,0,25.9,4.7,36.2,14
		c10.3,9.3,15.4,22.9,15.4,40.8c0,15.5-5,29.4-14.9,41.6c-9.9,12.2-24.7,18.3-44.5,18.3c-15.9,0-29-4.3-39.2-12.9
		c-10.2-8.6-15.9-20.7-17.1-36.5H-422.6z"/>
</g>
</svg>
