<?xml version="1.0" encoding="utf-8"?>
<!-- Generator: Adobe Illustrator 19.0.1, SVG Export Plug-In . SVG Version: 6.00 Build 0)  -->
<svg version="1.1" id="圖層_1" xmlns="http://www.w3.org/2000/svg" xmlns:xlink="http://www.w3.org/1999/xlink" x="0px" y="0px"
	 viewBox="-3619 2025.8 19 24" style="enable-background:new -3619 2025.8 19 24;" xml:space="preserve">
<style type="text/css">
	.st0{fill:#0086DB;}
</style>
<g>
	<g>
		<polygon class="st0" points="-3613,2040.8 -3606,2040.8 -3606,2037.8 -3613,2037.8 		"/>
		<path class="st0" d="M-3602.8,2047.8h-13.2c-0.6,0-1-0.4-1-1s0.4-1,1-1h13.2C-3603.1,2046.4-3603.1,2047.1-3602.8,2047.8
			L-3602.8,2047.8z M-3615,2036.8c0-0.6,0.4-1,1-1h9c0.6,0,1,0.4,1,1v5c0,0.6-0.4,1-1,1h-9c-0.6,0-1-0.4-1-1V2036.8z
			 M-3600.3,2045.5c0.1-0.1,0.1-0.2,0.2-0.3c0,0,0-0.1,0-0.1c0-0.1,0-0.2,0.1-0.3c0,0,0,0,0-0.1v-18c0-0.6-0.4-1-1-1h-9v7
			c0,0.4-0.2,0.8-0.6,0.9c-0.1,0.1-0.3,0.1-0.4,0.1c-0.3,0-0.5-0.1-0.7-0.3l-1.3-1.3l-1.3,1.3c-0.3,0.3-0.7,0.4-1.1,0.2
			c-0.4-0.2-0.6-0.5-0.6-0.9v-7h-0.5c-1.4,0-2.5,1.1-2.5,2.5v18.5c0,1.7,1.3,3,3,3h15c0.4,0,0.8-0.2,0.9-0.6
			c0.2-0.4,0.1-0.8-0.2-1.1C-3601.2,2047.1-3601.2,2046.4-3600.3,2045.5C-3600.3,2045.5-3600.3,2045.5-3600.3,2045.5L-3600.3,2045.5
			z"/>
	</g>
</g>
</svg>
