<?xml version="1.0" encoding="utf-8"?>
<!-- Generator: Adobe Illustrator 20.0.0, SVG Export Plug-In . SVG Version: 6.00 Build 0)  -->
<svg version="1.1" id="圖層_1" xmlns="http://www.w3.org/2000/svg" xmlns:xlink="http://www.w3.org/1999/xlink" x="0px" y="0px"
	 viewBox="0 0 19 24" style="enable-background:new 0 0 19 24;" xml:space="preserve">
<style type="text/css">
	.st0{fill:#FFFFFF;}
</style>
<g>
	<g>
		<polygon class="st0" points="6,15.1 13,15.1 13,12.1 6,12.1 		"/>
		<path class="st0" d="M16.2,22.1H3c-0.6,0-1-0.4-1-1s0.4-1,1-1h13.2C15.9,20.7,15.9,21.4,16.2,22.1L16.2,22.1z M4,11.1
			c0-0.6,0.4-1,1-1h9c0.6,0,1,0.4,1,1v5c0,0.6-0.4,1-1,1H5c-0.6,0-1-0.4-1-1V11.1z M18.7,19.8c0.1-0.1,0.1-0.2,0.2-0.3v-0.1
			c0-0.1,0-0.2,0.1-0.3c0,0,0,0,0-0.1V1c0-0.6-0.4-1-1-1H9v7c0,0.4-0.2,0.8-0.6,0.9C8.3,8,8.1,8,8,8C7.7,8,7.5,7.9,7.3,7.7L6,6.4
			L4.7,7.7C4.4,8,4,8.1,3.6,7.9C3.2,7.7,3,7.4,3,7V0H2.5C1.1,0,0,1.1,0,2.5V21c0,1.7,1.3,3,3,3h15c0.4,0,0.8-0.2,0.9-0.6
			c0.2-0.4,0.1-0.8-0.2-1.1C17.8,21.4,17.8,20.7,18.7,19.8L18.7,19.8L18.7,19.8z"/>
	</g>
</g>
</svg>
