<?xml version="1.0" encoding="utf-8"?>
<!-- Generator: Adobe Illustrator 20.0.0, SVG Export Plug-In . SVG Version: 6.00 Build 0)  -->
<svg version="1.1" id="圖層_1" xmlns="http://www.w3.org/2000/svg" xmlns:xlink="http://www.w3.org/1999/xlink" x="0px" y="0px"
	 viewBox="0 0 1182 833" style="enable-background:new 0 0 1182 833;" xml:space="preserve">
<style type="text/css">
	.st0{fill:#61CDFF;}
	.st1{fill:#27BBFF;}
	.st2{fill:#23A8E5;}
	.st3{fill:#008DCD;}
	.st4{enable-background:new    ;}
	.st5{fill:#FFFFFF;}
	.st6{fill:#555555;}
	.st7{fill:#777777;}
	.st8{fill:#DDDDDD;}
	.st9{fill:#999999;}
	.st10{fill:#874D20;}
	.st11{fill:#BA9052;}
	.st12{fill:#B1CD3E;}
	.st13{fill:#A3BC3B;}
	.st14{fill:#7E9822;}
	.st15{fill:#677C0F;}
</style>
<g>
	<path class="st0" d="M103,702.5L217,672l115.1,30.4v80.5H103V702.5z"/>
</g>
<g>
	<path class="st1" d="M342.3,476l114-30.4L571.5,476v309H342.3V476z"/>
</g>
<g>
	<path class="st2" d="M581.5,251.5l114-30.4l115.1,30.4V787H581.5V251.5z"/>
</g>
<g>
	<path class="st3" d="M820.8,145.4L933.8,115l116.2,30.4v637.5H820.8V145.4z"/>
</g>
<g class="st4">
	<path class="st5" d="M177.9,721.8h-7v3c0,0.9-0.3,1.7-0.8,2.3c-0.5,0.6-1.6,1-3.3,1c-0.7,0-1.8,0-3.3-0.1l-0.8-2.8
		c2.4,0,3.8,0,4.3,0c0.5-0.1,0.8-0.3,0.8-0.8v-2.6h-20.8v-2.6h20.8v-1.1h3.2v1.1h7V721.8z M177.5,717.2l-2.6,1.5
		c-0.7-0.8-1.2-1.4-1.5-1.8c-10,0.6-18.3,0.8-24.9,0.7l-0.8-2.5c1.7,0,3.7,0.1,5.9,0.1c3,0,5.4,0,7.2-0.1v-1.9H150V703h10.8v-1.7
		h-13.5v-2.4h13.5v-1.8h3.1v1.8h13.3v2.4h-13.3v1.7h11v10.3h-0.9C175.3,714.6,176.5,715.9,177.5,717.2z M160.9,725.5l-2.4,2.2
		c-1.3-0.9-3.1-2-5.5-3.2l2.4-2.2C157.5,723.2,159.3,724.3,160.9,725.5z M160.8,707v-1.7h-7.7v1.7H160.8z M160.8,710.8v-1.6h-7.7
		v1.6H160.8z M171.8,707v-1.7h-7.9v1.7H171.8z M171.8,710.8v-1.6h-7.9v1.6H171.8z M171.9,713.2h-8v1.8c3.3-0.1,5.7-0.2,7.2-0.4
		c-0.3-0.3-0.5-0.6-0.7-0.7L171.9,713.2z"/>
	<path class="st5" d="M213.4,719.6h-13.9v8.5h-3.2v-8.5h-13.9V717h13.9v-1.8h-12.2v-2.7h12.2v-1.7h-13.1v-2.7h8.1
		c-0.4-0.6-0.8-1.1-1.2-1.5l2.4-1.3h-10.1v-2.7h10.9v-5.3h3.1v5.3h3.2v-5.3h3.1v5.3h10.7v2.7h-9.8l2.1,1.1c-0.5,0.8-0.9,1.4-1.2,1.7
		h8.2v2.7h-13.1v1.7h12.3v2.7h-12.3v1.8h13.9V719.6z M193.7,722.6c-3.3,2.3-6.3,4.1-9.2,5.4l-2.1-2.5c2.8-1.1,5.7-2.7,8.8-4.9
		L193.7,722.6z M190.7,700.6l-2.4,1.7c-1-1.2-2.1-2.3-3.2-3.1l2.4-1.8C188.8,698.4,189.8,699.5,190.7,700.6z M202.5,705.2h-9.3
		c0.7,0.8,1.3,1.8,2,2.8h5.4C201.2,707.2,201.9,706.2,202.5,705.2z M214,725.3l-1.7,2.6c-3.4-2-6.8-3.6-10.2-4.8l1.8-2.6
		C207.2,721.7,210.6,723.3,214,725.3z M210.6,698.8c-0.7,1-1.7,2.1-3.1,3.3l-2.8-1.7c1.1-0.9,2.1-1.9,3.1-3.1L210.6,698.8z"/>
	<path class="st5" d="M234.6,714.3h-6.5c-0.1,0.5-0.2,1-0.3,1.2c2.9,3,5,5.7,6.5,8.2l-2.4,2.1c-1.6-2.8-3.3-5.2-5.1-7.1
		c-1.9,4.1-4.2,7.4-6.9,9.8l-2.1-2.2c4-4,6.4-8,7.1-12h-7v-2.9h7.4c0.1-2.1,0.2-4.4,0.2-6.8h-2.3c-1.1,1.8-2.2,3.4-3.3,4.8l-2.4-2.2
		c2.5-3.2,4.5-6.6,5.8-10.3l2.9,0.7c-0.4,1.3-0.9,2.7-1.6,4.1h8.8v2.9h-4.9c0,1.6,0,3.9-0.1,6.8h6.1V714.3z M247.9,727.4h-3.1v-2.5
		h-5.8v2.5h-3.1v-27.6h12V727.4z M244.7,721.9v-19.1h-5.8v19.1H244.7z"/>
	<path class="st5" d="M263.7,703h-10.2v-2.8h3.9c-0.3-0.9-0.6-1.7-1.1-2.6l3.2-0.9c0.3,0.5,0.8,1.7,1.5,3.5h2.8V703z M262.9,727.4
		H260v-1.5h-2.7v2.1h-3v-12.1h8.6V727.4z M263,713.5h-8.6v-2.8h8.6V713.5z M262.9,708.3h-8.6v-2.7h8.6V708.3z M260,723v-4.3h-2.7
		v4.3H260z M284.8,721.9c-0.1,1.2-0.4,2.5-0.9,3.8s-0.9,2.1-1.3,2.4c-0.4,0.3-0.9,0.4-1.3,0.4c-1.5,0-2.6-1.4-3.4-4.1
		c-1.6,1.7-3,3-4.1,3.9l-2.2-2.1c0.8-0.5,1.6-1.2,2.5-2.1h-8.9v-13h9.6v12.5c0.9-0.9,1.8-1.8,2.4-2.8c-0.4-3.3-0.6-7-0.6-11.1H264
		V707h2.7c-0.2-1.4-0.6-2.8-1.2-4.2h-0.7v-2.7h3.8c-0.2-0.7-0.5-1.5-1.1-2.5l3.2-0.7c0.5,1,0.9,2,1.3,3.2h3.5v2.7h-0.9
		c-0.3,1.4-0.7,2.8-1.2,4.2h3.1c0-4.9,0-8.2,0-9.8l3,0c-0.1,2.5-0.2,5.8-0.2,9.8h5.1v2.7h-5.1c0,2.8,0.1,5.1,0.2,6.8
		c0.7-1.4,1.3-3.3,1.8-5.6l2.7,1.2c-1.1,4.1-2.4,7.2-3.9,9.5c0.2,1.5,0.6,2.6,1,3.2c0.4-0.6,0.8-2.1,1-4.4L284.8,721.9z
		 M271.8,716.3v-2.4H268v2.4H271.8z M271.8,721.5v-2.6H268v2.6H271.8z M271.6,702.8h-3.1c0.4,1.2,0.8,2.6,1.1,4.2h0.7
		C271,705.5,271.4,704.1,271.6,702.8z M284.5,705l-2.7,1.1c-0.2-2.1-0.8-4.3-1.7-6.6l2.5-1.1C283.4,700.1,284.1,702.4,284.5,705z"/>
</g>
<g class="st4">
	<path class="st5" d="M158.4,757.4c-1.3,0.6-2.6,1.1-3.7,1.6v10.3c0,1-0.2,1.8-0.7,2.4c-0.5,0.6-1.3,0.8-2.5,0.9c-1.2,0-2.2,0-3,0
		l-1-3.1c1.2,0,2.3,0.1,3.2,0.1c0.2,0,0.4-0.1,0.6-0.3c0.2-0.2,0.3-0.4,0.3-0.7v-8.3c-1.3,0.5-2.7,0.9-4.1,1.2l-0.8-2.9
		c2.2-0.7,3.9-1.2,4.9-1.6v-6.6h-4.5v-3h4.5v-5.8h3.1v5.8h3.3v3h-3.3v5.3c0.9-0.3,1.9-0.7,3.1-1.3L158.4,757.4z M178.2,770.2
		l-1.8,2.7c-3.4-1.5-6.1-3.1-8.3-4.9c-2.5,1.9-5.6,3.5-9.1,4.9l-1.8-2.8c3.4-1.2,6.3-2.6,8.6-4.2c-2-2.2-3.7-5.2-5-9.2h-1.2v-3h7
		v-4.6h-7.5v-3h7.5v-4.5h3.2v4.5h7.5v3h-7.5v4.6h6.6v3c-1.7,4-3.6,7.1-5.9,9.2C172.4,767.5,175,769,178.2,770.2z M172.9,756.7h-8.7
		c0.9,2.6,2.2,5,4.1,7.1C170.2,761.9,171.7,759.5,172.9,756.7z"/>
	<path class="st5" d="M197.2,769.8c0,0.7-0.2,1.2-0.5,1.7s-0.7,0.7-1.2,0.9c-0.5,0.2-1.2,0.2-2.4,0.2c-0.5,0-1.2,0-2.1-0.1l-0.7-3
		c0.6,0,1.2,0.1,1.9,0.1c1,0,1.5-0.1,1.7-0.2c0.2-0.1,0.3-0.3,0.3-0.5v-3.8c-4.2,1.8-6.3,2.7-6.5,2.7l-0.8-1.5
		c-0.4,2.5-1.1,4.6-2.1,6.3l-2.5-2.1c1.2-1.9,1.7-5.1,1.7-9.6v-7.7h13.3V769.8z M199.5,750.3l-2.5,1.7c-0.5-0.8-0.9-1.4-1.2-1.9
		c-3.8,0.7-8,1.2-12.4,1.6l-0.7-2.4c2.5-2.3,4.5-4.9,5.8-7.9l3.1,1c-1.5,2.6-3,4.7-4.5,6.2c1.8-0.1,4.1-0.4,6.9-0.9
		c-0.8-1-1.6-1.9-2.5-2.7l2.6-1.8C196.1,745.4,198,747.8,199.5,750.3z M194.2,762.1v-5.8h-6.9v1.9c2.3,0.3,4.4,0.7,6.1,1.3l-1.1,2.6
		c-1-0.3-2.7-0.7-5.2-1.1c0,1.3-0.1,2.6-0.2,4C188.4,764.7,190.8,763.7,194.2,762.1z M213.4,766.3c-0.1,2.4-0.3,3.8-0.8,4.4
		c-0.4,0.6-0.9,1-1.3,1.2c-0.5,0.3-2.2,0.4-5.3,0.4c-2.3,0-3.8-0.1-4.3-0.4c-0.6-0.2-1-0.6-1.3-1.2c-0.3-0.5-0.4-1.1-0.4-1.8v-12.5
		h3.1v4.6h9.2v2.8h-9.2v4.7c0,0.5,0.2,0.7,0.7,0.7h5.2c0.4,0,0.7-0.2,1-0.6c0.2-0.4,0.4-1.6,0.4-3.4L213.4,766.3z M213,755.5h-9.9
		c-0.9,0-1.7-0.3-2.2-0.9c-0.6-0.6-0.8-1.4-0.8-2.3v-10.6h3.1v3.9h9.2v2.8h-9.2v3.6c0,0.1,0.1,0.3,0.3,0.4s0.3,0.2,0.5,0.2h9.1
		V755.5z"/>
	<path class="st5" d="M248.9,767.2h-13.6v2.2c0,0.8-0.2,1.4-0.5,1.9c-0.4,0.5-0.8,0.8-1.4,0.9c-0.6,0.2-1.6,0.3-3.2,0.3
		c-0.7,0-1.5,0-2.4-0.1l-1-2.9c0.8,0,2.4,0,4.7,0c0.4,0,0.6-0.2,0.6-0.6v-1.8h-14.1v-2.5H232v-1.5c1.8-0.4,3.4-0.8,4.9-1.4h-13.2
		v-2.3h18.9v2.3c-1.9,0.9-4.4,1.8-7.4,2.7v0.2h13.6V767.2z M248.3,762h-3v-4h-23.8v4h-3.2v-6.5h2.2l-0.6-12.8
		c2.3-0.1,4.6-0.6,6.9-1.4l1.5,2.5c-1.7,0.5-3.4,0.9-5.3,1.1l0.1,1.9h4.6v2.3h-4.5l0.1,2h4.4v2.3h-4.3l0.1,2h19.6l0.1-2h-4.8v-2.3
		h4.9l0.1-2h-5v-2.3h5.1l0.1-1.9h-5.4v-2.5h8.5l-0.6,13h2.1V762z M237.5,742.4c-0.6,0.7-1.3,1.5-2.3,2.2c0.6,0.5,1.1,1,1.6,1.6
		l-1.9,1.7c-0.6-0.7-1.2-1.3-1.8-1.8c-1.2,0.7-2.4,1.3-3.6,1.8l-1.5-2c1-0.4,2-0.8,3-1.4c-0.3-0.3-1-0.8-2-1.5l1.7-1.7l2.4,1.7
		c0.8-0.6,1.4-1.1,1.8-1.7L237.5,742.4z M237.7,753.6l-1.9,1.6c-0.9-1-1.7-1.7-2.4-2.3c-1.2,0.8-2.4,1.5-3.6,2l-1.5-2
		c0.9-0.4,1.9-0.9,3.1-1.6c-0.6-0.5-1.4-1.1-2.3-1.6l1.7-1.8c0.6,0.4,1.5,1,2.8,1.9c1-0.8,1.6-1.5,2-1.9l2.2,1.3
		c-0.7,0.8-1.4,1.5-2.2,2.1C236.3,752.1,237,752.8,237.7,753.6z"/>
	<path class="st5" d="M263.5,751.7c-3.4,1.9-6.3,3.4-9,4.5l-1.2-2.6c3.2-1.3,6.3-2.9,9.3-4.6L263.5,751.7z M267.6,753.2
		c0,0.9-0.2,1.6-0.6,2c-0.4,0.5-0.9,0.8-1.4,0.9c-0.5,0.1-1.5,0.1-2.9,0.1l-1-2.8l1.9,0c0.7,0,1.1-0.3,1.1-1V745H254v-2.8h13.7
		V753.2z M261.3,747.7l-1.8,2.3c-1.4-0.8-3.1-1.4-5-1.9l1.8-2.3C258,746.1,259.7,746.8,261.3,747.7z M281.1,772.6H278v-1.4h-18.1
		v1.4h-3.1v-14.7h9.9c0.5-0.6,0.9-1.4,1.4-2.4l3.4,0.5c-0.2,0.6-0.5,1.2-1,1.9h10.7V772.6z M278,763.2v-2.5h-18.1v2.5H278z
		 M278,768.4v-2.6h-18.1v2.6H278z M279.1,751.6c-2.7,1.4-5.6,2.6-8.6,3.5l-1.3-2.5c3.1-1.1,6-2.2,9-3.6L279.1,751.6z M283.2,752.6
		c0,1.2-0.2,2-0.7,2.6c-0.5,0.6-0.9,0.9-1.5,1c-0.5,0.1-1.7,0.1-3.3,0.1l-1.1-2.8c0.8,0,1.6,0.1,2.3,0.1c0.2,0,0.5-0.1,0.8-0.3
		c0.3-0.2,0.4-0.4,0.4-0.7V745h-10.5v-2.8h13.6V752.6z M276.1,747.9l-2,2.2c-1.4-1-2.8-1.7-4.2-2.2l1.9-2.2
		C273.1,746.2,274.6,746.9,276.1,747.9z"/>
</g>
<g class="st4">
	<path class="st6" d="M155.8,520.3H151l-0.3,3H134l0.3-3h-4.6v-1.1h4.7l0.3-2.9h16.7l-0.3,2.9h4.6V520.3z M152,533.9h-12.1l0.7,0.9
		c-3.3,1.7-6.5,2.8-9.7,3.2l-0.9-1.4c3.3-0.4,6.4-1.3,9.4-2.7h-5.8v-9H152V533.9z M154.7,517.5h-1.5v-2.8h-20.8v2.7h-1.5v-4h11.1
		c-0.2-0.5-0.5-0.9-0.8-1.3l1.4-0.5c0.3,0.4,0.6,1,1.1,1.8h11.1V517.5z M150.5,527.4v-1.4H135v1.4H150.5z M150.5,530.1v-1.4H135v1.4
		H150.5z M150.5,532.7v-1.4H135v1.4H150.5z M141.9,520.3h-6l-0.2,1.8h6L141.9,520.3z M142.2,517.4h-6l-0.2,1.7h6.1L142.2,517.4z
		 M149.5,520.3h-6.1l-0.1,1.8h6.1L149.5,520.3z M149.8,517.4h-6.1l-0.1,1.7h6.1L149.8,517.4z M155.4,536.6l-0.6,1.3
		c-2.6-1-5.9-1.7-10-2.2l0.6-1.2C149.6,535,152.9,535.8,155.4,536.6z"/>
	<path class="st6" d="M168,511.9c-0.6,1.4-1.2,2.7-1.8,3.9l-0.8,1.7v20.4h-1.6v-17.5c-1.7,2.4-2.9,3.9-3.5,4.6l-0.9-1.5
		c2.9-3.3,5.2-7.3,7.1-12L168,511.9z M185.7,517.2h-9.5v5.2h8.2v1.5h-8.2v5.6h8.8v1.6h-8.8v6.7h-1.6v-20.7h-2.8
		c-1,2.3-2.4,4.6-4.3,7l-1.1-1.3c2.5-3,4.4-6.9,5.8-11.6l1.4,0.6c-0.2,0.7-0.6,1.9-1.3,3.8h13.2V517.2z"/>
	<path class="st6" d="M192.9,530.7c-0.5,2.8-1.1,5-2,6.8l-1.4-0.7c0.7-1.7,1.4-3.8,1.9-6.5L192.9,530.7z M200,528.6l-1.4,0.5
		c-0.1-0.6-0.2-1-0.3-1.4c-3,0.8-5.6,1.5-8,1.9l-0.5-1.3c2.3-2.1,4.3-4.5,6-7.2c-1.7,0.3-3.4,0.6-5.3,0.9l-0.4-1.4
		c2.2-2.6,4-5.6,5.2-9l1.5,0.4c-1,2.7-2.5,5.5-4.5,8.2c1.2-0.1,2.7-0.4,4.4-0.7c0.6-0.9,1.3-2.1,1.9-3.5l1.5,0.6
		c-2.5,4.6-5,8.3-7.6,11c1.7-0.3,3.5-0.8,5.4-1.3c-0.2-0.6-0.5-1.3-0.9-2.1l1.4-0.5C199.2,525.6,199.7,527.2,200,528.6z
		 M196.6,536.8l-1.5,0.3c0-1.9-0.2-4-0.6-6.3l1.3-0.3C196.5,533,196.7,535.1,196.6,536.8z M200.7,534.3l-1.3,0.5
		c-0.3-1.5-0.8-3-1.3-4.3l1.3-0.5C199.9,531.4,200.4,532.8,200.7,534.3z M205,526.3l-1.3,0.6c-1.1-2.2-2.4-4.1-3.7-5.8
		c1.4-2,2.5-3.9,3.3-5.5l1.4,0.5c-0.9,1.8-1.9,3.5-3,5C202.9,522.7,204,524.4,205,526.3z M215.7,537.2h-15.5v-1.5h6.9v-6.1h-6.1
		v-1.5H215v1.5h-6.2v6.1h7V537.2z M215.4,513.9h-15.1v-1.5h15.1V513.9z M210.3,526.1l-1.3,0.7c-1-1.9-2.2-3.8-3.6-5.7
		c1.4-2,2.5-3.8,3.2-5.4l1.5,0.5c-0.8,1.6-1.8,3.2-3,4.9C208.3,522.8,209.4,524.5,210.3,526.1z M215.6,526.2l-1.3,0.7
		c-1-1.9-2.2-3.8-3.7-5.6c1.3-1.9,2.4-3.8,3.2-5.6l1.5,0.5c-0.9,1.8-1.9,3.5-2.9,4.9C213.9,523.2,214.9,524.8,215.6,526.2z"/>
	<path class="st6" d="M221.8,528.6c-0.1,2.7-0.4,5.1-0.8,7.3l-1.4-0.3c0.5-1.9,0.8-4.3,0.9-7.1L221.8,528.6z M230.4,513.9H227v2.9
		h2.8v1.4H227v2.8h2.8v1.5H227v3h2.8c0,1.7,0.1,3,0.1,4.1c0,2.1-0.1,3.8-0.2,5.1s-0.3,2.1-0.6,2.5c-0.3,0.4-0.7,0.6-1.1,0.7
		s-1.3,0.2-2.5,0.2l-0.5-1.5c0.4,0,1,0,1.8,0c0.6,0,1-0.3,1.3-0.8s0.4-2.5,0.4-5.8c0-1.1,0-2.1-0.1-2.9h-7.4v-14.5h9.4V513.9z
		 M223.8,535.5l-1.2,0.2c0-0.9,0.1-1.9,0.1-2.7c0-1.6-0.1-3-0.2-4.2l1.1-0.2c0.2,2.8,0.2,4.6,0.2,5.3
		C223.9,534.5,223.9,535,223.8,535.5z M225.5,516.7v-2.9h-2.9v2.9H225.5z M225.5,521v-2.8h-2.9v2.8H225.5z M225.5,525.4v-3h-2.9v3
		H225.5z M226.1,534.3l-1.2,0.2c-0.1-2.2-0.3-4.2-0.6-5.8l1.1-0.2C225.8,530,226,532,226.1,534.3z M228,532.7l-1,0.2
		c-0.1-1.1-0.4-2.7-0.9-4.7l1-0.2C227.3,528.7,227.6,530.3,228,532.7z M245.8,518.9l-0.8,1.3c-2.9-1.6-5.4-3.7-7.3-6.4
		c-1.6,2.2-3.9,4.2-6.8,6.2l-0.9-1.3c3.4-2.2,5.8-4.6,7.4-7.3l1.5,0.5c-0.1,0.1-0.1,0.3-0.3,0.5
		C240.5,515.1,242.9,517.3,245.8,518.9z M237.5,535.1l-1.1,1.1c-0.3-0.5-1.1-1.4-2.3-2.5c-0.8,1.6-1.7,3.1-2.8,4.2l-1.2-0.8
		c2-2.4,3.4-5.1,4.1-8.1h-2.8v-7.1h5.7v7.1h-2.4l1.1,0.5c-0.3,1-0.6,1.9-1,2.7C235.7,533.1,236.7,534.1,237.5,535.1z M235.7,527.6
		v-4.3h-2.9v4.3H235.7z M241.7,519.8h-8v-1.4h8V519.8z M245.8,536.8l-1.1,1c-1.4-1.8-2.6-3.1-3.6-3.9c-0.8,1.5-1.8,2.9-2.8,4.1
		l-1.2-0.9c1.8-2,3.3-4.7,4.4-8.1h-2.8v-7.1h5.8v7.1H242l1,0.5c-0.3,1-0.7,2.1-1.2,3.1C243.3,533.9,244.6,535.3,245.8,536.8z
		 M243,527.6v-4.3h-3v4.3H243z"/>
	<path class="st6" d="M259.5,533.4c-2.2,1.4-5.2,2.6-9,3.7l-0.9-1.3c3.6-0.9,6.5-2,8.5-3.2L259.5,533.4z M275.2,531.3l-1.1,1.1
		c-0.8-0.9-1.3-1.6-1.7-2c-4.1,0.4-7.1,0.7-8.9,0.8v4.4c0,0.9-0.2,1.5-0.7,1.9c-0.4,0.3-1.3,0.5-2.7,0.5c-0.4,0-0.8,0-1.3,0
		l-0.6-1.6c0.5,0.1,1.2,0.1,2,0.1c0.8,0,1.2-0.1,1.4-0.2c0.2-0.1,0.3-0.3,0.3-0.6v-4.3c-3.8,0.2-7.3,0.3-10.4,0.3l-0.5-1.4
		c3.2-0.6,6.9-1.8,11.3-3.7c-3.2,0.3-6,0.5-8.4,0.5l-0.4-1.3c2.6-1,4.9-2.2,7-3.7h-8.1v-9.6h20.9v9.6h-10.1c-2.3,1.6-4.6,2.9-7,3.8
		l2.5-0.2l5.6-0.6c1.2-0.1,1.9-0.3,2.3-0.4l2.7-1.3l1.2,0.9c-5.9,2.9-10.9,5-15.2,6.1c5.4-0.2,10.7-0.6,16-1.2
		c-0.8-0.8-1.6-1.4-2.4-2l1.1-1C271.8,527.5,273.6,529.2,275.2,531.3z M261.9,516.5v-2.6h-8.1v2.6H261.9z M261.9,520.5v-2.7h-8.1
		v2.7H261.9z M271.7,516.5v-2.6h-8.2v2.6H271.7z M271.7,520.5v-2.7h-8.2v2.7H271.7z M275.8,536.2l-0.9,1.2c-2.3-1.4-5.3-2.7-8.8-3.8
		l0.9-1.2C270.3,533.5,273.3,534.7,275.8,536.2z"/>
	<path class="st6" d="M289.4,526.5l-0.8,1.3c-1.1-1.4-2.2-2.7-3.3-3.7v13.8h-1.6v-13.1c-0.9,2.3-2,4.4-3.3,6.1l-1.1-1.1
		c1.6-2.3,3.1-5.4,4.4-9.1h-4.1v-1.4h4.1v-4.5c-1.2,0.3-2.2,0.5-3.2,0.7l-0.7-1.3c3.7-0.7,6.3-1.5,8-2.2l1,1.2
		c-1,0.5-2.2,0.9-3.5,1.2v5h2.7v1.4h-2.7v1.5C287.1,523.8,288.5,525.3,289.4,526.5z M304,533.8h-8.8l0.7,0.8c-2.4,1.4-4.7,2.5-7,3.1
		l-0.8-1.3c2.4-0.7,4.6-1.6,6.4-2.7h-3.6v-11H304V533.8z M305.7,521.2h-16.5v-1.3h7.6V518h-6.2v-1.3h6.2V515h-6.9v-1.3h6.9v-2.1h1.5
		v2.1h6.8v1.3h-6.8v1.7h6v1.3h-6v1.9h7.5V521.2z M302.5,526.2v-1.9h-10.2v1.9H302.5z M302.5,529.3v-1.9h-10.2v1.9H302.5z
		 M302.5,532.5v-1.9h-10.2v1.9H302.5z M305.7,536.6l-0.7,1.3c-1.6-0.7-3.7-1.4-6.2-2.1l0.6-1.4C302,535.2,304.1,535.9,305.7,536.6z"
		/>
</g>
<g class="st4">
	<path class="st6" d="M152.5,568.5h-5.1l-0.6,5.6h5.6c-0.1,1.7-0.2,3.6-0.3,5.8s-0.3,3.5-0.4,3.9s-0.3,0.8-0.6,1.1
		c-0.3,0.3-0.7,0.6-1.2,0.7c-0.5,0.2-1.3,0.2-2.3,0.2c-0.8,0-1.6,0-2.4-0.1l-0.5-1.5c1,0,1.9,0,2.9,0c1,0,1.6-0.1,1.9-0.2
		s0.5-0.3,0.6-0.6s0.3-1.2,0.4-2.9s0.2-3.4,0.2-5h-5.7l0.9-8.6h5v-5.2h-6.3v-1.5h7.8V568.5z M170.8,585.1l-1.3,0.8
		c-0.5-1-0.9-1.8-1.3-2.4c-5.5,1-10.3,1.7-14.6,2.3l-0.5-1.5c3.8-0.4,6.4-0.8,7.8-1.1v-5h-6.2v-7.6h6.2V568
		c-2.9,0.2-5.1,0.3-6.6,0.5l-0.5-1.4c2.6-2,4.7-4.5,6.4-7.6l1.6,0.4c-1.3,2.3-3.1,4.6-5.4,6.8c4.9-0.3,8.4-0.5,10.6-0.7
		c-0.9-1.1-1.9-2.2-3.1-3.3l1-1.1c2.1,1.9,4,4.1,5.8,6.4l-1.2,1.1c-0.1-0.2-0.6-0.8-1.5-1.9l-5.6,0.5v2.8h6.2v7.6h-6.2v4.7
		c1.8-0.2,3.5-0.5,4.9-0.8c-0.4-0.7-0.9-1.4-1.5-2.2l1.3-0.8C168.7,581.3,169.9,583.3,170.8,585.1z M160.9,576.7v-4.5h-4.7v4.5
		H160.9z M167.2,576.7v-4.5h-4.7v4.5H167.2z"/>
	<path class="st6" d="M183.3,560c-0.4,1.1-1,2.5-1.8,4.2l-1.2,2.5V586h-1.6v-16.4c-0.9,1.4-1.9,2.8-3.1,4.2l-1.1-1.3
		c2.7-3,5.1-7.4,7.2-13L183.3,560z M200.8,578.9c0,1.5-0.1,2.9-0.4,4.2s-0.9,2-1.7,2.2c-0.9,0.2-3.2,0.3-7.1,0.3c-0.9,0-1.7,0-2.4,0
		c-0.7,0-1.2-0.2-1.6-0.6s-0.6-1-0.6-1.7v-23.7h1.7v10.2h11.7v1.6h-11.7v11.9c0,0.2,0.1,0.4,0.2,0.5s0.3,0.3,0.5,0.3
		c0.2,0,0.8,0,2,0c4,0,6.3-0.1,6.9-0.2c0.6-0.2,0.9-2,1-5.5L200.8,578.9z"/>
	<path class="st6" d="M219.1,583.4c-4,0.7-8.6,1.3-14,1.7l-0.5-1.5c2-0.1,4.3-0.3,6.8-0.6v-4h-5.8v-1.5h5.8v-3.4h-6.4v-1.5h3.9
		c-0.4-1.5-1-2.9-1.5-4H205v-1.4h4.4v-7.5h1.5v7.5h2.7v-7.5h1.5v7.5h3.8v1.4h-2.3c-0.4,1.4-1,2.7-1.6,4h3.6v1.5H213v3.4h5.1v1.5H213
		v3.8c1.9-0.2,4-0.5,6.2-1V583.4z M208.2,565.4l-1.3,0.6c-0.4-1.6-1.1-3.2-1.9-4.6l1.3-0.6C207,562.2,207.7,563.8,208.2,565.4z
		 M215,568.6h-5.8c0.5,1.2,1,2.5,1.4,4h2.8C214.2,571.1,214.7,569.7,215,568.6z M220,561.2c-0.7,1.8-1.4,3.4-2.4,4.8l-1.3-0.8
		c1.1-1.8,1.9-3.4,2.2-4.6L220,561.2z M230.7,567.8H228v15.4c0,0.7-0.2,1.3-0.5,1.7c-0.3,0.4-0.7,0.7-1.1,0.8
		c-0.4,0.1-1.3,0.2-2.6,0.2c-0.7,0-1.3,0-1.9-0.1l-0.6-1.6c1,0.1,2.4,0.1,3.9,0.1c0.8,0,1.2-0.4,1.2-1.3v-15.3h-6.6v-1.5h6.6v-6.5
		h1.5v6.5h2.8V567.8z M224.4,577.9l-1.5,0.7c-0.7-2.4-1.7-4.8-3-7.1l1.3-0.7C222.3,572.6,223.4,574.9,224.4,577.9z"/>
	<path class="st6" d="M260.8,570.9l-1.3,1c-0.7-1-1.5-2-2.5-3c-6.2,1.3-13.4,2.1-21.7,2.4l-0.4-1.4c4.4-3.5,7.5-6.9,9.3-10.2
		l1.6,0.5c-1.6,3-4.3,6.1-8.1,9.4c6.6-0.2,12.6-0.9,18-2.1c-1.2-1.3-2.8-2.8-4.8-4.5l1.4-1C255.6,564.9,258.5,567.9,260.8,570.9z
		 M258,586h-1.7v-1.9H239v1.8h-1.6v-11.7H258V586z M256.3,582.5v-6.7H239v6.7H256.3z"/>
	<path class="st6" d="M291,583.8l-0.5,1.5h-10.8c-5.1,0-8.7-1.2-10.8-3.5c-1.1,1.6-2.2,3-3.4,4.1l-1.2-1.1c2.9-2.5,4.7-5.8,5.6-9.8
		h-4.9v-1.6c1.5-1.8,3-3.8,4.6-6h-5.1V566h6.9v1.4c-1.4,2-2.9,4.1-4.6,6.2h4.6v1.5c-0.5,1.9-1.1,3.7-1.9,5.4c0.8,1.1,2,1.9,3.3,2.5
		s3.4,0.9,6.1,0.9H291z M270.7,563.8l-1.1,1.2c-1-1.5-2.3-2.9-4.1-4.4l1.2-1.1C268.1,560.8,269.4,562.2,270.7,563.8z M290.7,579.7
		h-8.1v3.2H281v-3.2h-8.2v-1.5h8.2v-2.3h-6.5v-1.4h6.5v-2.3h-7.5v-1.5h4.3c-0.4-1.1-0.9-2-1.3-2.8h-3.6v-1.5h8.1v-2.8h-7.2v-1.4h7.2
		v-2.6h1.6v2.6h7v1.4h-7v2.8h8.1v1.5H287c-0.5,1.2-1,2.1-1.4,2.8h4.4v1.5h-7.4v2.3h6.4v1.4h-6.4v2.3h8.1V579.7z M285.3,567.9h-7
		c0.6,1.2,1,2.1,1.2,2.8h4.4C284.5,569.6,285,568.7,285.3,567.9z"/>
</g>
<g class="st4">
	<path class="st6" d="M183.9,612.2h-9.3v-1.5h4c-0.4-1-0.8-2-1.2-2.8l1.3-0.5c0.7,1.2,1.1,2.3,1.4,3.3h3.7V612.2z M183.4,616.5h-8
		V615h8V616.5z M183.4,620.8h-8v-1.5h8V620.8z M182.8,633.1h-1.5v-1.6h-4v2.3h-1.5v-10.1h7V633.1z M181.3,630v-4.7h-4v4.7H181.3z
		 M187.2,624.1c-0.7,3.2-1.4,5.6-2.3,7.3l-1.4-0.6c1-2.1,1.7-4.4,2.2-7.1L187.2,624.1z M199.6,608.3c-0.1,2.2-0.2,4.4-0.4,6.4
		s-0.3,3.3-0.5,3.7c-0.1,0.4-0.4,0.7-0.7,1s-0.8,0.5-1.4,0.7s-1.6,0.2-3,0.1l-0.5-1.6c1,0,1.6,0.1,2.1,0.1c1,0,1.7-0.3,2-0.9
		c0.3-0.6,0.6-3.3,0.7-8.1H194c-0.4,6.1-3.2,10-8.5,11.6l-0.9-1.2c2.3-0.8,4.2-2,5.5-3.5c-1-1.1-2.2-2.2-3.7-3.2l1-1.1
		c1.3,0.8,2.5,1.8,3.6,3c0.9-1.6,1.4-3.5,1.5-5.6H185v-1.5H199.6z M196.6,627.9c-0.1,2.1-0.3,3.5-0.6,4.1c-0.3,0.6-0.6,1-1.1,1.2
		c-0.4,0.2-1.4,0.3-2.8,0.3c-1.3,0-2.2-0.2-2.7-0.5c-0.5-0.4-0.7-1-0.7-2v-7.2h1.5v7.3c0,0.3,0.1,0.5,0.4,0.7c0.3,0.2,1,0.3,2.2,0.3
		c0.9,0,1.5-0.2,1.8-0.5c0.3-0.3,0.5-1.7,0.6-3.9L196.6,627.9z M194.8,624.6l-1.1,1c-1-1.5-2.2-2.9-3.4-4l1-1.1
		C192.8,621.9,194,623.3,194.8,624.6z M200.7,630.4l-1.4,0.7c-0.4-2.1-1.2-4.5-2.3-7l1.3-0.6C199.5,626.2,200.3,628.5,200.7,630.4z"
		/>
	<path class="st6" d="M229.4,631.6c0,1-0.3,1.6-1,1.9c-0.6,0.2-1.3,0.2-2.1,0.3c-0.9,0-2,0-3.4,0l-0.6-1.6c0.5,0,2.2,0.1,4.9,0.1
		c0.5,0,0.8-0.3,0.8-0.8v-21.7h-20.2v24h-1.5v-25.5h23.2V631.6z M225.3,615.1h-15.1v-1.5h15.1V615.1z M223.6,627.7h-11.7v-8.9h11.7
		V627.7z M222,626.1v-5.8h-8.5v5.8H222z"/>
	<path class="st6" d="M260.6,626c-0.2,1.3-0.5,2.6-1,3.8c-0.5,1.2-1,1.8-1.7,1.8c-0.7,0-1.6-0.7-2.7-2.2s-1.9-3.3-2.4-5.3
		c-1.2,1.3-2.4,2.3-3.6,3.1l-1-1.1c1.8-1.3,3.2-2.6,4.1-3.8c-0.5-2.8-0.8-6.1-1-9.8h-12.7c0.1,6.9-0.9,11.9-3.1,14.9l-1.2-1
		c1.9-2.7,2.8-7,2.8-12.9c0-0.7,0-1.5,0-2.4h14.1c0-0.4,0-1,0-1.6c0-0.6,0-1.2,0-1.8h1.6c0,0.8-0.1,1.5-0.1,2.2c0,0.4,0,0.9,0,1.2
		h7.4v1.5H253c0.2,3.6,0.4,6.4,0.8,8.1c1.5-2.1,2.8-4.2,3.9-6.4l1.2,0.8c-1.2,2.4-2.8,4.9-4.8,7.5c0.5,2.5,1.3,4.3,2.1,5.5
		c0.9,1.2,1.4,1.8,1.7,1.8c0.2,0,0.5-0.5,0.8-1.6c0.3-1.1,0.5-2.1,0.6-3.1L260.6,626z M239.3,627.2c-0.6,2-1.4,3.8-2.5,5.3l-1.2-0.9
		c1-1.4,1.8-3.1,2.4-5.1L239.3,627.2z M250,616.3h-9.8v-1.4h9.8V616.3z M249.6,629.6c-0.1,1.1-0.3,2-0.6,2.6s-0.8,1-1.3,1.1
		c-0.5,0.2-1.5,0.2-3,0.2c-1.8,0-2.9-0.2-3.4-0.5c-0.5-0.3-0.7-0.9-0.7-1.8v-5.2h1.4v5.1c0,0.3,0.1,0.6,0.4,0.7
		c0.2,0.2,1,0.3,2.4,0.3c1.5,0,2.4-0.2,2.7-0.5s0.6-1.2,0.7-2.8L249.6,629.6z M249,624.1h-8.1v-5.9h8.1V624.1z M247.5,622.7v-3.1
		h-5.2v3.1H247.5z M246.9,628.3l-1.3,0.7c-0.5-0.9-1.3-1.9-2.3-3.2l1.2-0.8C245.5,626.2,246.3,627.3,246.9,628.3z M253.9,631.6
		l-1.3,0.8c-0.7-1.6-1.5-3-2.5-4.3l1.2-0.8C252.4,628.7,253.2,630.2,253.9,631.6z M258.6,609.6l-1.2,1.1c-0.5-0.6-1.2-1.2-1.9-1.8
		l1.1-1.1C257.4,608.4,258,608.9,258.6,609.6z"/>
</g>
<g class="st4">
	<path class="st5" d="M419.6,534.8l-0.9,2.9h-13.3c-4.9,0-8.7-1.2-11.5-3.7c-1.1,1.7-2.3,3.2-3.4,4.5l-2.5-2
		c2.9-2.9,4.8-6.3,5.8-10.2h-5.1v-2.8c1.7-2.1,3.2-4.1,4.3-6.2h-4.9v-2.9h8.5v2.8c-1,1.9-2.3,4-4.1,6.3h4.4v2.8
		c-0.4,1.8-1,3.5-1.7,5.2c2.4,2.2,5.7,3.3,10.1,3.3H419.6z M396.5,511.4l-2.2,2.2c-1.6-1.7-3.3-3.3-5.1-4.5l2.1-2.2
		C392.9,507.8,394.7,509.3,396.5,511.4z M418.8,532.1h-18.2V519c-0.6,0.8-1.2,1.6-1.9,2.4l-1.7-2.8c2.4-3.2,4.4-7.1,6-11.8l3.1,0.7
		c-0.5,1.4-1.1,2.9-1.8,4.5h4.9c-0.4-1.2-1.1-2.6-1.9-4.2l2.9-1c1,2,1.7,3.7,2.1,5.2h6.1v2.8h-6.6v3h6.1v2.7h-6.1v3h6.1v2.7h-6.1
		v3.2h7.1V532.1z M408.7,517.7v-3h-5v3H408.7z M408.7,523.4v-3h-5v3H408.7z M408.7,529.2v-3.2h-5v3.2H408.7z"/>
	<path class="st5" d="M431.9,517.9c1.9,3,2.9,5.7,2.9,8.2c0,1.4-0.3,2.6-1,3.4c-0.6,0.8-1.9,1.2-3.7,1.2c-0.4,0-0.8,0-1.1-0.1
		l-0.9-3c0.9,0,1.6,0.1,2.2,0.1c0.9,0,1.3-0.5,1.3-1.4c0-2.9-1-5.6-3.1-8.1c0.8-2,1.6-4.6,2.5-7.7h-3.6v27.5h-3.1v-30.5h10v3
		C433.8,512.8,432.9,515.3,431.9,517.9z M443.5,519.1c-2.3,1-4.8,1.8-7.4,2.4l-0.9-2.5c0.2-0.3,0.3-0.8,0.3-1.2v-10.6h3v3.6h4.8v2.8
		h-4.8v4.3c1.4-0.4,3-0.9,4.9-1.7L443.5,519.1z M453.1,538.1H450v-1.7h-10.7v1.7h-3.1v-14.8h4.8c0.3-0.7,0.7-1.7,1-2.8l2.9,0.8
		c-0.1,0.7-0.4,1.3-0.8,2h9.1V538.1z M450,528.5v-2.4h-10.7v2.4H450z M450,533.8v-2.6h-10.7v2.6H450z M454.9,515.9
		c0,1.7-0.2,3-0.7,3.7c-0.5,0.7-1,1.2-1.7,1.3c-0.6,0.1-2.2,0.2-4.8,0.2c-2,0-3.1-1-3.1-2.9v-10.9h3.1v3.6h5.7v2.8h-5.7v4.1
		c0,0.4,0.2,0.6,0.6,0.6c1.7,0,2.7-0.1,3.2-0.2s0.7-1.2,0.7-3.1L454.9,515.9z"/>
	<path class="st5" d="M470.8,523c-1.3,0.6-2.6,1.1-3.7,1.6v10.3c0,1-0.2,1.8-0.7,2.4c-0.5,0.6-1.3,0.8-2.5,0.9c-1.2,0-2.2,0-3,0
		l-1-3.1c1.2,0,2.3,0.1,3.2,0.1c0.2,0,0.4-0.1,0.6-0.3c0.2-0.2,0.3-0.4,0.3-0.7v-8.3c-1.3,0.5-2.7,0.9-4.1,1.2l-0.8-2.9
		c2.2-0.7,3.9-1.2,4.9-1.6v-6.6h-4.5v-3h4.5v-5.8h3.1v5.8h3.3v3h-3.3v5.3c0.9-0.3,1.9-0.7,3.1-1.3L470.8,523z M490.6,535.8l-1.8,2.7
		c-3.4-1.5-6.1-3.1-8.3-4.9c-2.5,1.9-5.6,3.5-9.1,4.9l-1.8-2.8c3.4-1.2,6.3-2.6,8.6-4.2c-2-2.2-3.7-5.2-5-9.2H472v-3h7v-4.6h-7.5v-3
		h7.5v-4.5h3.2v4.5h7.5v3h-7.5v4.6h6.6v3c-1.7,4-3.6,7.1-5.9,9.2C484.8,533.1,487.4,534.6,490.6,535.8z M485.3,522.3h-8.7
		c0.9,2.6,2.2,5,4.1,7.1C482.6,527.5,484.1,525.1,485.3,522.3z"/>
	<path class="st5" d="M503.2,508.2c-2.5,3.8-4.9,6.6-7.3,8.5l-1.6-2.9c1.9-1.4,4-3.7,6.1-6.9L503.2,508.2z M502.8,516.9
		c-0.8,1.4-1.5,2.7-2.1,3.8V538h-3v-13c-0.4,0.5-1,1.2-1.8,2l-1.5-3.1c2.4-2.7,4.3-5.6,5.9-8.6L502.8,516.9z M506.5,518.8
		c0,7.2-0.6,12.5-2.1,16.1l-2.7-1.1c1.6-3.7,2.3-8.7,2.1-14.9H506.5z M516.8,516H511v22H508v-22h-5.2v-3h5.2v-6h3.1v6h5.7V516z
		 M516.5,510.7l-2.3,1.6c-0.4-1-1.3-2.2-2.5-3.6l2.3-1.6C515.1,508.3,515.9,509.5,516.5,510.7z M518.5,532.7H515
		c-0.6,0-1.2-0.2-1.6-0.7c-0.5-0.5-0.7-1-0.7-1.6v-11.6h2.7V529c0,0.2,0.1,0.4,0.3,0.6c0.2,0.2,0.4,0.3,0.6,0.3h2.1V532.7z
		 M525.7,520.2h-2.5V535c0,0.6-0.2,1.2-0.5,1.8c-0.3,0.5-0.8,0.9-1.3,1.1s-1.4,0.3-2.8,0.3c-0.4,0-0.9,0-1.3-0.1l-1.1-3.1
		c0.6,0,1.3,0.1,1.9,0.1c0.9,0,1.5-0.1,1.7-0.3c0.2-0.2,0.3-0.5,0.3-0.9v-13.6h-3.6v-3.1h9.1V520.2z M524.9,511.2h-7.4v-3.1h7.4
		V511.2z"/>
</g>
<g class="st4">
	<path class="st5" d="M454.7,577.2H441v2.2c0,0.8-0.2,1.4-0.5,1.9c-0.4,0.5-0.8,0.8-1.4,0.9c-0.6,0.2-1.6,0.3-3.2,0.3
		c-0.7,0-1.5,0-2.4-0.1l-1-2.9c0.8,0,2.4,0,4.7,0c0.4,0,0.6-0.2,0.6-0.6v-1.8h-14.1v-2.5h14.1v-1.5c1.8-0.4,3.4-0.8,4.9-1.4h-13.2
		v-2.3h18.9v2.3c-1.9,0.9-4.4,1.8-7.4,2.7v0.2h13.6V577.2z M454.1,572h-3v-4h-23.8v4h-3.2v-6.5h2.2l-0.6-12.8
		c2.3-0.1,4.6-0.6,6.9-1.4l1.5,2.5c-1.7,0.5-3.4,0.9-5.3,1.1l0.1,1.9h4.6v2.3h-4.5l0.1,2h4.4v2.3h-4.3l0.1,2H449l0.1-2h-4.8v-2.3
		h4.9l0.1-2h-5v-2.3h5.1l0.1-1.9H444v-2.5h8.5l-0.6,13h2.1V572z M443.3,552.4c-0.6,0.7-1.3,1.5-2.3,2.2c0.6,0.5,1.1,1,1.6,1.6
		l-1.9,1.7c-0.6-0.7-1.2-1.3-1.8-1.8c-1.2,0.7-2.4,1.3-3.6,1.8l-1.5-2c1-0.4,2-0.8,3-1.4c-0.3-0.3-1-0.8-2-1.5l1.7-1.7l2.4,1.7
		c0.8-0.6,1.4-1.1,1.8-1.7L443.3,552.4z M443.5,563.6l-1.9,1.6c-0.9-1-1.7-1.7-2.4-2.3c-1.2,0.8-2.4,1.5-3.6,2l-1.5-2
		c0.9-0.4,1.9-0.9,3.1-1.6c-0.6-0.5-1.4-1.1-2.3-1.6l1.7-1.8c0.6,0.4,1.5,1,2.8,1.9c1-0.8,1.6-1.5,2-1.9l2.2,1.3
		c-0.7,0.8-1.4,1.5-2.2,2.1C442.1,562.1,442.8,562.8,443.5,563.6z"/>
	<path class="st5" d="M469.3,561.7c-3.4,1.9-6.3,3.4-9,4.5l-1.2-2.6c3.2-1.3,6.3-2.9,9.3-4.6L469.3,561.7z M473.5,563.2
		c0,0.9-0.2,1.6-0.6,2c-0.4,0.5-0.9,0.8-1.4,0.9c-0.5,0.1-1.5,0.1-2.9,0.1l-1-2.8l1.9,0c0.7,0,1.1-0.3,1.1-1V555h-10.6v-2.8h13.7
		V563.2z M467.1,557.7l-1.8,2.3c-1.4-0.8-3.1-1.4-5-1.9l1.8-2.3C463.8,556.1,465.5,556.8,467.1,557.7z M486.9,582.6h-3.1v-1.4h-18.1
		v1.4h-3.1v-14.7h9.9c0.5-0.6,0.9-1.4,1.4-2.4l3.4,0.5c-0.2,0.6-0.5,1.2-1,1.9h10.7V582.6z M483.8,573.2v-2.5h-18.1v2.5H483.8z
		 M483.8,578.4v-2.6h-18.1v2.6H483.8z M484.9,561.7c-2.7,1.4-5.6,2.6-8.6,3.5l-1.3-2.5c3.1-1.1,6-2.2,9-3.6L484.9,561.7z M489,562.6
		c0,1.2-0.2,2-0.7,2.6c-0.5,0.6-0.9,0.9-1.5,1c-0.5,0.1-1.7,0.1-3.3,0.1l-1.1-2.8c0.8,0,1.6,0.1,2.3,0.1c0.2,0,0.5-0.1,0.8-0.3
		c0.3-0.2,0.4-0.4,0.4-0.7V555h-10.5v-2.8H489V562.6z M481.9,558l-2,2.2c-1.4-1-2.8-1.7-4.2-2.2l1.9-2.2
		C478.9,556.2,480.4,556.9,481.9,558z"/>
</g>
<g class="st4">
	<path class="st5" d="M423.6,628.6l-0.9,1.5c-3.8-1.5-6.6-3.6-8.3-6.4h-8.2c-1.8,2.5-4.5,4.6-8.2,6.1l-1-1.4
		c3.2-1.2,5.6-2.8,7.2-4.8h-6.8v-1.4h5.5v-10h-4.8v-1.5h4.8v-2.1h1.5v2.1h12.1v-2.1h1.5v2.1h4.8v1.5H418v10h5.5v1.4h-7.3
		C418.1,626,420.5,627.6,423.6,628.6z M422.1,634.2h-23.3v-1.5h11v-3.2h-6.1v-1.4h6.1v-2.9h1.5v2.9h6.1v1.4h-6.1v3.2h10.9V634.2z
		 M416.5,614.6v-2.3h-12.1v2.3H416.5z M416.5,618.4V616h-12.1v2.4H416.5z M404.4,619.9v2.4h12.1v-2.4H404.4z"/>
	<path class="st5" d="M436.4,611.4h-3.2c-0.5,3-1,5.4-1.7,7.1h4.5v13.1h-1.4v-1.3h-2.9v2.4h-1.5v-11.2c-0.6,1.1-1.1,2.1-1.7,2.8
		l-1.1-1c2.2-3.4,3.6-7.3,4.1-11.9h-3.7V610h8.5V611.4z M434.6,628.9v-8.9h-2.9v8.9H434.6z M453.7,632.8l-0.5,1.5
		c-1.8,0-3.3,0.1-4.4,0.1c-4.8,0-7.9-1-9.4-3.1c-0.6,1.4-1.3,2.5-2.1,3.4l-1.1-0.9c1.8-2.1,2.9-5.1,3.3-9l1.3,0.4
		c-0.1,1.4-0.4,3-1,4.8c1.1,1.4,2.4,2.2,4,2.6v-9.8h-6.8v-1.4H453c-0.3,1.7-0.7,3.2-1.3,4.3l-1.4-0.2c0.4-0.8,0.7-1.7,1-2.7h-5.7
		v4.1h5.9v1.4h-5.9v4.5c1.5,0.1,2.8,0.1,4.1,0.1C451.1,633,452.5,632.9,453.7,632.8z M444.7,615.9l-0.8,1.1
		c-0.7-0.7-1.4-1.3-2.2-1.9v5.5h-1.5v-5.4c-0.9,1.4-1.9,2.6-2.9,3.5l-1-1c1.8-1.8,3-3.5,3.7-5h-2.7v-1.4h2.9v-2.7h1.5v2.7h2.5v1.4
		h-2.5v0.8C442.8,614.2,443.8,615,444.7,615.9z M453.5,617.3l-0.9,1.2c-0.8-1-1.9-2-3.2-3.1v5.1h-1.5v-5c-0.8,1.4-1.8,2.7-3,4
		l-1-1.1c2-2,3.4-3.9,4-5.7h-2.4v-1.4h2.5v-2.7h1.5v2.7h3.7v1.4h-3.7v1C450.7,614.7,452.1,616,453.5,617.3z"/>
	<path class="st5" d="M470.2,612.1h-8.4c-1,1.2-2.1,2.4-3.3,3.4l-1.2-1c2.1-1.7,3.8-3.8,5-6.1l1.5,0.6c-0.2,0.5-0.5,1-1,1.7h7.4
		V612.1z M482.7,622.2h-1.5V618h-21.5v4.1h-1.5v-5.6h11.3c-0.1-0.4-0.3-1-0.7-1.7l1.3-0.5c0.4,0.7,0.7,1.4,1,2.2h11.7V622.2z
		 M480,633.6h-16.9v1.2h-1.6v-14.5h17.5v5.2h-16v2.4H480V633.6z M477.6,624v-2.3h-14.4v2.3H477.6z M478.4,632.1v-2.9h-15.3v2.9
		H478.4z M467.1,615.1l-1.4,0.6c-0.4-0.7-0.9-1.6-1.7-2.5l1.3-0.5C466.1,613.5,466.6,614.3,467.1,615.1z M483.4,612.1h-9.6
		c-0.7,0.8-1.4,1.6-2.3,2.3l-1.2-0.9c2.2-2.1,3.5-3.8,4.1-5.1l1.5,0.6c-0.2,0.5-0.6,1.1-1,1.7h8.5V612.1z M479,615.3l-1.3,0.5
		c-0.7-1.3-1.2-2.2-1.5-2.6l1.4-0.5C478.2,613.5,478.7,614.4,479,615.3z"/>
	<path class="st5" d="M496.2,627.7c-2.2,1.2-5,2.7-8.5,4.5l-0.7-1.3c1.8-0.9,3.2-1.6,4.2-2.2v-8.3h-3.5V619h3.5v-6.9h-4v-1.4h8.9
		v1.4h-3.5v6.9h3.1v1.5h-3.1v7.5c1-0.5,2.1-1.1,3.3-1.8L496.2,627.7z M513.5,634.3h-17.3v-1.5h7.8v-4.3h-6.7V627h6.7v-3.7h-6.4
		v-13.9h14.5v13.9h-6.5v3.7h6.9v1.5h-6.9v4.3h7.9V634.3z M504,615.6v-4.7h-4.9v4.7H504z M504,621.8V617h-4.9v4.8H504z M510.6,615.6
		v-4.7h-5v4.7H510.6z M510.6,621.8V617h-5v4.8H510.6z"/>
</g>
<g class="st4">
	<path class="st5" d="M411.4,664.5l-1.2,1c-0.3-0.6-0.7-1.2-1.1-1.8c-3.6,0.5-7.4,0.9-11.2,1.1l-0.6-1.3c1.8-1.4,3.4-3.7,4.8-6.8
		l1.6,0.4c-1.2,2.5-2.5,4.5-3.9,6.1c3.1-0.3,5.9-0.5,8.3-0.9c-0.5-0.7-1.4-1.7-2.5-2.8l1.4-0.9C409.1,660.9,410.7,662.8,411.4,664.5
		z M409.5,681.1c0,0.5-0.2,0.9-0.5,1.3s-0.8,0.5-1.2,0.6c-0.4,0-1.4,0.1-2.9,0.1l-0.6-1.5c0.5,0,0.9,0,1.4,0c1,0,1.6,0,1.9-0.1
		s0.4-0.2,0.4-0.5V676c-2.9,1.3-5.2,2.3-7.1,2.9l-0.7-1c-0.2,1.8-0.7,3.5-1.4,5l-1.4-0.8c0.9-2.4,1.4-4.8,1.4-7.2v-8.1h10.7V681.1z
		 M407.9,674.4v-5.9h-7.6v2.1c2.1,0.4,4.2,1,6.5,1.8l-0.7,1.3c-2.3-0.8-4.2-1.3-5.8-1.6v2.9c0,0.8,0,1.7-0.1,2.5
		C402.2,676.9,404.7,675.8,407.9,674.4z M423.5,677.8c-0.1,1.5-0.3,2.6-0.6,3.3c-0.3,0.7-0.7,1.1-1.1,1.4c-0.4,0.2-1.2,0.3-2.4,0.3
		l-4.5-0.1c-0.7,0-1.2-0.2-1.6-0.6c-0.4-0.4-0.6-0.9-0.6-1.5v-11.3h1.5v4.4h8.6v1.4h-8.6v5.3c0,0.6,0.4,0.9,1.1,0.9
		c3,0,4.8,0,5.2-0.1s0.8-0.2,1-0.6c0.3-0.3,0.5-1.4,0.6-3.2L423.5,677.8z M423.2,668.1h-8.7c-0.5,0-1-0.2-1.3-0.6
		c-0.3-0.4-0.5-0.9-0.5-1.4v-9.3h1.5v3.8h8.6v1.4h-8.6v3.9c0,0.5,0.3,0.7,0.8,0.7h8.3V668.1z"/>
	<path class="st5" d="M451.7,662.2c0,4.8-0.1,8.9-0.3,12.2c-0.2,3.3-0.4,5.4-0.7,6.3s-0.8,1.4-1.3,1.8s-1.8,0.5-3.7,0.5
		c-0.8,0-1.8,0-3-0.1l-0.6-1.7c1.4,0.1,2.6,0.1,3.5,0.1c1.6,0,2.5-0.1,2.8-0.3c0.3-0.2,0.6-0.6,0.7-1.1s0.4-2.5,0.6-5.9
		s0.4-6.8,0.4-10.2H441c-0.4,5.3-1.5,9.4-3.3,12.1c-1.9,2.7-4.7,5.1-8.5,7.1l-1.1-1.5c2.1-0.8,3.9-2,5.5-3.4s2.9-3.1,3.9-5.2
		s1.6-5.1,1.9-9.2h-10.5v-1.6h10.6c0.1-1.8,0.2-3.7,0.2-5.6h1.6c0,1.6-0.1,3.4-0.2,5.6H451.7z"/>
	<path class="st5" d="M466.8,676.7c-3.4,1.4-6.5,2.6-9.1,3.5l-0.5-1.5c1.8-0.6,3.2-1.1,4.3-1.5v-11.5H458v-1.5h3.5v-7.5h1.5v7.5h3.2
		v1.5H463v10.9c1.5-0.5,2.8-1,3.8-1.5V676.7z M483.5,669h-17.3v-1.5h5.4c-0.4-1.5-1.1-3.3-2.2-5.6l1.1-0.8h-3.7v-1.5h7.6
		c-0.4-0.9-0.9-1.8-1.6-2.8l1.6-0.5c0.7,1,1.2,2.1,1.7,3.2h7v1.5h-3.7l1.2,0.7c-0.4,1.6-1.2,3.5-2.2,5.6h5.3V669z M481.1,682.8h-1.6
		v-1.8h-9.3v1.8h-1.5v-11.2h12.4V682.8z M479.6,679.5v-6.4h-9.3v6.4H479.6z M478.8,661.1h-8.1c1.1,2.4,1.9,4.5,2.4,6.4h3.4
		C477.5,665.5,478.3,663.4,478.8,661.1z"/>
	<path class="st5" d="M513.5,672.2l-0.9,1.3c-0.7-0.3-2.1-1-4-2.2v6H493v3.8c1.4-0.2,3.5-0.6,6.2-1.2l0.2,1.3
		c-1.8,0.4-4.4,0.9-7.9,1.5l-0.5-1.2c0.4-0.3,0.6-0.6,0.6-1v-9.1c-0.7,0.4-1.8,1-3.3,1.8l-1-1.2c3.1-1.5,5.6-3.2,7.5-5.1h-7.1v-1.3
		h12v-2h-10v-1.3h10v-1.9h-11v-1.3h23.5v1.3h-11v1.9h10v1.3h-10v2h12v1.3h-7.3C507.5,669,510.1,670.7,513.5,672.2z M507.7,670.7
		c-1.6-1.2-2.9-2.5-3.7-3.7h-7.2c-1.1,1.3-2.3,2.5-3.8,3.7H507.7z M507.2,673.5V672H493v1.5H507.2z M507.2,676.2v-1.5H493v1.5H507.2
		z M497.5,658.1l-1.6,0.7c-0.4-0.3-1.2-0.9-2.3-1.7l1.5-0.7C495.6,656.7,496.4,657.2,497.5,658.1z M504,669.5h-7.1v-1.3h7.1V669.5z
		 M512.7,681.7l-0.8,1.2c-3.5-1.6-7.8-2.8-12.8-3.7l0.8-1.3c2,0.4,4.2,0.9,6.7,1.6c1.4-0.8,2.5-1.7,3.5-2.6l1.2,0.9
		c-1.1,0.9-2,1.7-2.9,2.2C510.3,680.8,511.7,681.3,512.7,681.7z M507.4,657.1c-0.8,0.7-1.6,1.4-2.4,1.9l-1.4-0.9
		c0.8-0.5,1.6-1.1,2.3-1.7L507.4,657.1z"/>
</g>
<g class="st4">
	<path class="st5" d="M656.4,309.6h-2.9v-1.3H631v1.5h-3v-30.6h28.4V309.6z M653.5,305.7v-23.9H631v23.9H653.5z M652.3,285.5h-8.7
		v1.1h7.6v7.8h-1.3c0.8,0.8,1.5,1.8,2.1,2.9l-2.2,0.9c-0.2-0.5-0.4-0.8-0.6-1c-5.8,0.5-11.3,0.9-16.5,1.1l-0.6-2.1
		c2.9-0.1,5.8-0.1,8.8-0.3v-1.5h-7.6v-7.8h7.6v-1.1h-8.8v-2h8.8v-1.2h2.7v1.2h8.7V285.5z M652.6,301.2h-3.8v1.3
		c0,0.9-0.3,1.5-0.9,1.8c-0.6,0.3-1.8,0.5-3.5,0.5c-0.6,0-1.2,0-1.7-0.1l-0.8-2.3c1.7,0,2.8,0,3.3,0c0.4,0,0.7-0.2,0.7-0.6v-0.7
		h-13.8v-2H646v-1h2.9v1h3.8V301.2z M641,302.9l-1.6,1.9c-1-0.5-2.3-1-3.8-1.5l1.6-1.9C638.3,301.7,639.5,302.2,641,302.9z
		 M640.9,289.6v-1.2H636v1.2H640.9z M640.9,292.6v-1.2H636v1.2H640.9z M648.4,289.6v-1.2h-4.8v1.2H648.4z M648.4,292.6v-1.2h-4.8
		v1.2H648.4z M648.6,294.4h-5v1.3l4.1-0.3c-0.2-0.2-0.3-0.4-0.5-0.5L648.6,294.4z"/>
	<path class="st5" d="M670.5,289.3c1.6,3,2.4,5.8,2.4,8.4c0,1.4-0.2,2.4-0.6,3s-0.9,1.1-1.5,1.2c-0.6,0.2-1.6,0.3-3.1,0.3l-1-3
		l2.5,0c0.6,0,0.9-0.4,0.9-1.3c0-1.2-0.3-2.6-0.8-4.2c-0.5-1.6-1.2-3-2-4.1c1.2-3.3,2-5.7,2.4-7.2h-3.5v27.3h-3.1v-30.4h9.7v3.1
		C672,285.1,671.2,287.5,670.5,289.3z M693.5,304.7l-1.8,2.6c-1.9-1.6-3.6-3.6-5.1-5.9c-0.1,2.6-0.3,4.3-0.4,5s-0.5,1.3-1,1.8
		c-0.5,0.5-1.3,0.9-2.2,1c-0.9,0.1-2.3,0.2-4.1,0.2l-1-3.1c0.6,0,1.2,0.1,1.9,0.1c1.9,0,3-0.1,3.2-0.4s0.4-1.1,0.5-2.5
		c0.1-1.4,0.1-2.8,0.1-4.1c-2.9,3-6.8,5.6-11.4,8.1l-1.5-2.7c5.4-2.7,9.6-5.7,12.6-9c-0.2-0.9-0.4-1.6-0.6-2.1c-1.9,2-4.5,4-7.7,5.9
		l-1.3-2.8c3.1-1.6,5.7-3.5,7.8-5.6c-0.2-0.3-0.4-0.6-0.8-1c-2.3,1.4-4.5,2.6-6.6,3.5l-1.6-2.7c3.3-1.1,6.2-2.6,8.8-4.5h-7.6v-3
		h19.8v3h-8c-0.5,0.5-1.3,1.1-2.4,2.1c1.3,1.6,2.2,3.1,2.7,4.7c1.5-1.2,3.1-3,4.9-5.4l2.4,1.8c-1.6,2.2-3.7,4.3-6.3,6.5
		C688.6,299.8,690.9,302.7,693.5,304.7z M682.6,281.8l-2.9,1.4c-1-1.2-2.1-2.3-3.5-3.5l2.9-1.6C680.6,279.5,681.8,280.8,682.6,281.8
		z M691.4,279.7c-0.7,1-1.9,2.2-3.5,3.5l-2.9-1.5c1.2-1.1,2.4-2.2,3.4-3.4L691.4,279.7z"/>
	<path class="st5" d="M713.1,285.9l-1.8,2.5c-1.8-2.2-3.6-4.1-5.3-5.6c-0.9,1.6-2.2,3.3-3.7,5h7.9v2.9h-8.4v-2.2l-2.2,2l-2-2.4
		c3.5-3,5.9-6.3,7.4-9.8l3,0.9c-0.1,0.3-0.3,0.7-0.5,1.2C709.5,282.1,711.4,283.9,713.1,285.9z M711.9,296.1c0,0.2-0.4,1.2-1.3,3
		c-0.9,1.8-1.9,3.6-3.1,5.4c1.1,1.2,2.1,2.3,2.9,3.3l-2.3,2c-2.3-2.9-5.1-5.7-8.3-8.3l2.2-1.8c1,0.7,2.1,1.7,3.3,2.8
		c1.4-2.1,2.5-4.2,3.4-6.3h-10.3v-2.9h13.6V296.1z M728.7,282.2h-6.2c-0.3,1.2-0.6,2.1-0.9,2.8h6v18h-9.4l1.9,1.6
		c-1.7,1.9-3.9,3.6-6.7,5.3l-2-2.4c2.3-1.1,4.4-2.6,6.2-4.5h-3.6v-18h4.4c0.4-1,0.8-1.9,1-2.8h-6.6v-2.9h16.1V282.2z M724.4,290
		v-2.2h-7.5v2.2H724.4z M724.4,295v-2.3h-7.5v2.3H724.4z M724.4,300.2v-2.5h-7.5v2.5H724.4z M728.9,307.5l-1.8,2.3
		c-1.6-1.3-3.6-2.7-6-4l1.8-2.2C725.3,304.9,727.3,306.2,728.9,307.5z"/>
	<path class="st5" d="M764.4,297.3l-0.8,2.6c-0.8,0-1.7,0.1-2.7,0.1c-1,0-1.9,0-2.7-0.1v1.5h6.1v2.5h-6.1v2.7c0,0.9-0.2,1.6-0.7,2.1
		c-0.5,0.5-1.1,0.7-1.7,0.8s-1.7,0.1-3,0.1c-0.8,0-1.5,0-2.3-0.1l-1.3-2.9l5,0.1c0.5,0,0.8-0.3,0.8-0.8V304h-21.7v-2.5H755V300
		c-3.6,0.1-6.6,0-9.2-0.4s-4.8-1.1-6.8-2.3c-1.3,1.4-2.6,2.5-4.1,3.3l-1.9-2.2c2.8-1.3,4.6-3.3,5.5-5.9h-4.6V290
		c1.4-1,2.8-2.2,4-3.6h-4.5v-2.5h8v2.5c-0.7,0.9-1.8,2.2-3.4,3.6h3.4v2.4c-0.2,0.9-0.6,1.8-1.1,2.7c1,0.6,2.1,1.1,3.4,1.4
		c1.3,0.3,2.5,0.6,3.5,0.7s3.4,0.1,7.2,0.1C756.9,297.4,760.2,297.4,764.4,297.3z M740.6,281.7l-2,1.8c-1-1-2.6-2.1-4.6-3.3l2-1.9
		C738,279.4,739.5,280.5,740.6,281.7z M747.1,307l-1.8,2.3c-1.8-1-4-1.8-6.5-2.5l1.7-2.5C742.8,305,745.1,305.8,747.1,307z
		 M764.3,283.5h-9.5c-0.2,0.3-0.4,0.8-0.8,1.4h8.7v11.2h-18.8v-11.2h6.6c0.3-0.4,0.5-0.9,0.8-1.4h-9v-2.3h22V283.5z M751.9,280
		l-2.7,1.1c-1.4-0.8-2.6-1.4-3.6-1.7l2.9-1.1C749.8,278.7,751,279.2,751.9,280z M759.6,288.1V287H747v1.1H759.6z M759.6,291v-1.1
		H747v1.1H759.6z M759.6,294.1v-1.3H747v1.3H759.6z M761.2,279.4c-1.4,0.8-2.6,1.3-3.6,1.7l-2.7-1.1c1.3-0.5,2.4-1.1,3.5-1.7
		L761.2,279.4z"/>
</g>
<g class="st4">
	<path class="st5" d="M677.8,351.3c0,0.7-0.2,1.2-0.5,1.7c-0.3,0.4-0.7,0.7-1.2,0.9c-0.5,0.2-1.2,0.2-2.4,0.2c-0.5,0-1.2,0-2.1-0.1
		l-0.7-3c0.6,0,1.2,0.1,1.9,0.1c1,0,1.5-0.1,1.7-0.2s0.3-0.3,0.3-0.5v-3.8c-4.2,1.8-6.3,2.7-6.5,2.7l-0.8-1.5
		c-0.4,2.5-1.1,4.6-2.1,6.3l-2.5-2.1c1.2-1.9,1.7-5.1,1.7-9.6v-7.7h13.3V351.3z M680,331.8l-2.5,1.7c-0.5-0.8-0.9-1.4-1.2-1.9
		c-3.8,0.7-8,1.2-12.4,1.6l-0.7-2.4c2.5-2.3,4.5-4.9,5.8-7.9l3.1,1c-1.5,2.6-3,4.7-4.5,6.2c1.8-0.1,4.1-0.4,6.9-0.9
		c-0.8-1-1.6-1.9-2.5-2.7l2.6-1.8C676.7,327,678.6,329.3,680,331.8z M674.7,343.6v-5.8h-6.9v1.9c2.3,0.3,4.4,0.7,6.1,1.3l-1.1,2.6
		c-1-0.3-2.7-0.7-5.2-1.1c0,1.3-0.1,2.6-0.2,4C669,346.2,671.4,345.2,674.7,343.6z M694,347.8c-0.1,2.4-0.3,3.8-0.8,4.4
		c-0.4,0.6-0.9,1-1.3,1.2s-2.2,0.4-5.3,0.4c-2.3,0-3.8-0.1-4.3-0.4c-0.6-0.2-1-0.6-1.3-1.2c-0.3-0.5-0.4-1.1-0.4-1.8v-12.5h3.1v4.6
		h9.2v2.8h-9.2v4.7c0,0.5,0.2,0.7,0.7,0.7h5.2c0.4,0,0.7-0.2,1-0.6c0.2-0.4,0.4-1.5,0.4-3.4L694,347.8z M693.6,337h-9.9
		c-0.9,0-1.7-0.3-2.2-0.9c-0.6-0.6-0.8-1.4-0.8-2.3v-10.6h3.1v3.9h9.2v2.8h-9.2v3.6c0,0.1,0.1,0.3,0.3,0.4c0.2,0.2,0.3,0.2,0.5,0.2
		h9.1V337z"/>
	<path class="st5" d="M727.8,329.1c0,6.4-0.2,11.5-0.4,15.3c-0.3,3.9-0.6,6.3-1.1,7.2c-0.5,0.9-1.1,1.6-1.9,2s-2.5,0.6-5.2,0.6
		c-0.8,0-1.6,0-2.4-0.1l-1.2-3.3c1.2,0.1,3.1,0.1,5.9,0.1c0.5,0,0.9-0.1,1.2-0.4c0.4-0.2,0.6-0.5,0.7-0.9c0.1-0.4,0.3-1.7,0.5-4
		s0.3-4.6,0.4-6.9l0.2-6.6h-10.3c-0.3,5.6-1.5,10.1-3.6,13.3c-2.1,3.2-5.3,6.1-9.8,8.7l-2.1-2.6c3.3-1.6,6.1-3.8,8.4-6.5
		c2.3-2.8,3.6-7,4-12.8h-11.3v-3.1h11.4c0.1-1.9,0.2-3.9,0.2-6.1h3.3c0,1.8-0.1,3.8-0.2,6.1H727.8z"/>
</g>
<g class="st4">
	<path class="st5" d="M633.4,402.7h-15.8v7.7c1.9-0.3,3.8-0.8,5.8-1.5l0.1,1.4c-2.4,0.8-4.9,1.5-7.5,2l-0.5-1.5
		c0.4-0.3,0.5-0.6,0.5-0.9v-7.3h-4c-0.7,4.3-1.8,7.6-3.2,9.8l-1.2-1.1c2.2-3.6,3.3-8.4,3.3-14.5v-10.1h21v6.5h-19.4v3.1h5.6v-2.1
		h1.6v2.1h6.4v-2.1h1.6v2.1h4.5v1.5h-4.5v3.3h5.7V402.7z M618,401.2v-3.3h-5.6c0,1.1-0.1,2.2-0.2,3.3H618z M630.2,391.7v-3.4h-17.8
		v3.4H630.2z M626.1,401.2v-3.3h-6.4v3.3H626.1z M635,411l-0.7,1.5c-4-1-6.9-2.3-8.6-3.8c-1.7-1.5-2.9-3-3.6-4.5l1.5-0.4
		c0.9,1.5,2,2.8,3.1,3.7c1.4-0.9,2.8-2.1,4-3.5l1.3,1c-1.1,1.4-2.4,2.5-3.8,3.5C629.8,409.5,632.1,410.3,635,411z"/>
	<path class="st5" d="M647.5,404.9c-3.2,1.8-6.1,3.4-8.8,4.7l-0.7-1.3l4.1-2.1v-8.3h-3.5v-1.4h3.5v-6.8h-3.9v-1.5h9v1.5h-3.6v6.8
		h3.2v1.4h-3.2v7.5c1.1-0.6,2.3-1.2,3.5-1.9L647.5,404.9z M664.4,407.1c-0.1,1.4-0.3,2.4-0.6,3.1s-0.7,1.2-1.2,1.4
		c-0.4,0.2-1.3,0.4-2.6,0.4c-0.7,0-1.2,0-1.7,0s-0.9-0.2-1.2-0.5s-0.4-0.8-0.4-1.5v-7h-2.8c-0.4,4.9-3.2,8.1-8.2,9.6l-1-1.3
		c4.7-1.2,7.2-4,7.6-8.3h-3.1v-15.9h13v15.9h-4.1v7c0,0.2,0.1,0.4,0.3,0.5s0.8,0.2,1.8,0.2c0.9,0,1.5-0.1,1.7-0.3s0.4-0.7,0.6-1.5
		s0.3-1.6,0.3-2.4L664.4,407.1z M660.7,391.6v-3.2h-10v3.2H660.7z M660.7,396.4V393h-10v3.4H660.7z M660.7,401.4v-3.5h-10v3.5H660.7
		z"/>
	<path class="st5" d="M693,412.4h-1.6v-2.1H671v1.9h-1.5v-25.4H693V412.4z M691.4,408.9v-20.8H671v20.8H691.4z M690,391.5h-8v1.2
		h6.8v6.5h-1.7c0.8,0.9,1.5,1.8,2.1,2.6l-1.1,0.7c-0.1-0.2-0.3-0.5-0.6-0.9c-4.7,0.4-9.6,0.7-14.7,0.8l-0.3-1.3c2,0,4.7-0.1,8-0.3
		v-1.6h-6.7v-6.5h6.7v-1.2h-7.9v-1.2h7.9v-1.1h1.5v1.1h8V391.5z M690,405h-3.6v1.2c0,0.6-0.2,1.1-0.7,1.3s-1.3,0.4-2.5,0.4
		c-0.7,0-1.2,0-1.6-0.1l-0.4-1.2c0.4,0,0.9,0.1,1.6,0.1c1.1,0,1.8-0.1,1.9-0.2s0.2-0.2,0.2-0.4V405h-12.4v-1.2h12.4v-1.3h1.5v1.3
		h3.6V405z M680.5,395.4V394h-5.2v1.4H680.5z M680.5,398v-1.5h-5.2v1.5H680.5z M679,407.3l-1.2,0.7c-0.6-0.8-1.3-1.5-1.9-1.9
		l1.1-0.7C677.9,405.8,678.5,406.5,679,407.3z M687.3,395.4V394H682v1.4H687.3z M687.3,398v-1.5H682v1.5H687.3z M686.5,400.4
		l-0.7-0.8l0.5-0.4H682v1.5C682.1,400.8,683.6,400.7,686.5,400.4z"/>
	<path class="st5" d="M707.1,388.2c0,0.1-0.3,0.9-0.8,2.4s-1.2,3.1-1.9,4.7c1.6,2.3,2.3,4.3,2.3,6.3c0,0.9-0.2,1.7-0.6,2.3
		c-0.4,0.6-0.9,1-1.4,1.1s-1.4,0.3-2.6,0.3l-0.7-1.6c0.4,0,0.8,0.1,1.1,0.1c1.1,0,1.8-0.2,2.2-0.6s0.5-0.9,0.5-1.5
		c0-0.7-0.2-1.6-0.6-2.7c-0.4-1.1-1-2.3-1.9-3.4c1.3-2.9,2.2-5.4,2.7-7.3h-4.6v24.1h-1.5v-25.6h7.8V388.2z M724.3,391.6h-6.5
		c-0.8,0.9-1.7,1.7-2.8,2.6c1.3,1.8,2.1,3.5,2.5,5.2c2.4-2,4.2-3.8,5.2-5.4l1.3,0.9c-1.6,2.2-3.6,4.1-5.9,5.9
		c1.4,3.1,3.5,5.7,6.3,7.9l-1,1.1c-2-1.4-3.8-3.3-5.2-5.6c0,0.5,0,1,0,1.5c0,2.5-0.2,4-0.5,4.6s-0.8,1.1-1.4,1.4
		c-0.6,0.3-1.5,0.5-2.7,0.5H712l-0.7-1.6c1.5,0.1,2.3,0.1,2.5,0.1c1,0,1.7-0.2,2.2-0.7c0.5-0.4,0.7-1.9,0.7-4.3
		c0-1.2-0.1-2.2-0.2-3.1c-2.5,2.5-6,5-10.4,7.5l-1-1.2c4.9-2.6,8.6-5.3,11.1-8.2c-0.2-1-0.5-1.9-0.8-2.6c-1.9,1.7-4.1,3.3-6.8,4.8
		l-1-1.2c3.1-1.7,5.4-3.4,7.1-5.1c-0.2-0.5-0.6-1.1-1-1.7c-2.2,1.3-4.3,2.3-6.4,3.1l-0.9-1.3c4.2-1.6,7.3-3.3,9.2-5.2h-8.1v-1.4
		h16.7V391.6z M714.1,388.9l-1.3,0.8c-0.9-1.1-1.8-2-2.7-2.8l1.2-0.9C712.1,386.5,713,387.5,714.1,388.9z M721.9,386.8
		c-0.8,0.9-1.8,1.9-3.1,2.9l-1.3-1c1.1-0.9,2.1-1.7,2.9-2.7L721.9,386.8z"/>
	<path class="st5" d="M731.1,405.4c-0.4,2.6-1,5-1.9,7.1l-1.4-0.6c0.8-2,1.5-4.3,1.9-6.8L731.1,405.4z M738.3,403.5L737,404
		c-0.1-0.5-0.2-1.1-0.4-1.8c-2.8,0.8-5.4,1.5-7.9,1.9l-0.5-1.4c1.9-2,3.7-4.3,5.3-7c-1.2,0.2-2.8,0.5-4.9,0.8l-0.4-1.4
		c1.8-2.3,3.5-5.3,4.9-9l1.4,0.6c-1.3,3.2-2.7,5.9-4.2,8c0.6,0,1.9-0.3,4-0.6c0.8-1.5,1.4-2.8,1.9-3.9l1.4,0.6
		c-2.2,4.8-4.6,8.6-7.2,11.5c2.2-0.4,4.1-0.9,5.7-1.5c-0.3-0.9-0.6-1.6-0.7-2l1.3-0.5C737.5,400,738.1,401.7,738.3,403.5z
		 M734.8,411.2l-1.5,0.5c0-2-0.2-4.1-0.8-6.3l1.4-0.4C734.3,407.1,734.7,409.2,734.8,411.2z M738.1,409l-1.3,0.5
		c-0.2-1.5-0.6-3-1.2-4.4l1.3-0.5C737.4,405.9,737.8,407.4,738.1,409z M752.3,407.9h-8.7l0.8,1c-1.7,1.4-4,2.6-6.7,3.5l-0.9-1.3
		c2.9-0.9,5.1-2,6.6-3.3h-3.8v-10.3h12.8V407.9z M754.2,395.8h-16.6v-1.3h7.5v-1.9h-6.4v-1.3h6.4v-1.7h-7.1v-1.3h7.1v-2.2h1.5v2.2
		h6.9v1.3h-6.9v1.7h6.4v1.3h-6.4v1.9h7.5V395.8z M750.8,400.6v-1.6h-9.8v1.6H750.8z M750.8,403.6v-1.7h-9.8v1.7H750.8z M750.8,406.6
		v-1.7h-9.8v1.7H750.8z M754.2,411.1l-1,1.3c-1.8-1-3.8-1.8-6-2.4l1-1.1C750.6,409.5,752.6,410.3,754.2,411.1z"/>
	<path class="st5" d="M763.8,393.5c-1.6,2.9-3.1,5-4.6,6.5l-1.1-1.2c1.4-1.4,2.9-3.5,4.3-6.1L763.8,393.5z M770.8,409l-1.1,1.2
		c-1-1.5-2.1-2.8-3.4-4.1c-1.6,2.6-3.9,4.7-6.9,6.4l-1.2-1.1c3.2-1.8,5.5-4,6.9-6.4c-0.9-1-2.4-2.2-4.3-3.8l1.1-1.1
		c1.7,1.4,3,2.5,4,3.4c0.8-1.7,1.5-3.4,1.9-5.2l1.5,0.7c-0.5,1.6-1.2,3.5-2.2,5.5C768.4,406,769.6,407.4,770.8,409z M771.7,391.3
		h-13.2v-1.5h6.4c-0.3-1-0.7-2-1.3-3.2l1.4-0.7c0.6,1.1,1.1,2.4,1.5,3.9h5.2V391.3z M771.7,398.5l-1.3,1c-0.8-2-2.1-3.9-3.9-5.9
		l1.2-1C769.6,394.6,770.9,396.6,771.7,398.5z M784.5,411.2l-0.9,1.4c-2.2-1.3-4.1-2.9-5.7-4.7c-1.6,1.7-3.7,3.3-6.5,4.7l-1.1-1.5
		c2.6-0.9,4.8-2.5,6.6-4.6c-1.2-2-2.1-4.3-2.7-6.8l1.5-0.5c0.4,2.1,1.1,4.1,2.2,5.9c1.9-3,2.9-7.2,3.2-12.8h-4.6
		c-0.7,2.2-1.7,4.5-3,6.7l-1.3-0.9c2-3.6,3.5-7.6,4.3-12.1l1.5,0.5c-0.3,1.5-0.6,2.9-1.1,4.3h7.3v1.6h-1.4
		c-0.5,6.6-1.8,11.3-3.9,14.2C780.2,408.3,782.1,409.9,784.5,411.2z"/>
</g>
<g class="st4">
	<path class="st5" d="M631.1,443H626l-0.6,5.6h5.6c-0.1,1.7-0.2,3.6-0.3,5.8s-0.3,3.5-0.4,3.9s-0.3,0.8-0.6,1.1
		c-0.3,0.3-0.7,0.6-1.2,0.7c-0.5,0.2-1.3,0.2-2.3,0.2c-0.8,0-1.6,0-2.4-0.1l-0.5-1.5c1,0,1.9,0,2.9,0c1,0,1.6-0.1,1.9-0.2
		s0.5-0.3,0.6-0.6s0.3-1.2,0.4-2.9s0.2-3.4,0.2-5h-5.7l0.9-8.6h5v-5.2h-6.3v-1.5h7.8V443z M649.3,459.6l-1.3,0.8
		c-0.5-1-0.9-1.8-1.3-2.4c-5.5,1-10.3,1.7-14.6,2.3l-0.5-1.5c3.8-0.4,6.4-0.8,7.8-1.1v-5h-6.2v-7.6h6.2v-2.6
		c-2.9,0.2-5.1,0.3-6.6,0.5l-0.5-1.4c2.6-2,4.7-4.5,6.4-7.6l1.6,0.4c-1.3,2.3-3.1,4.6-5.4,6.8c4.9-0.3,8.4-0.5,10.6-0.7
		c-0.9-1.1-1.9-2.2-3.1-3.3l1-1.1c2.1,1.9,4,4.1,5.8,6.4l-1.2,1.1c-0.1-0.2-0.6-0.8-1.5-1.9l-5.6,0.5v2.8h6.2v7.6H641v4.7
		c1.8-0.2,3.5-0.5,4.9-0.8c-0.4-0.7-0.9-1.4-1.5-2.2l1.3-0.8C647.3,455.8,648.4,457.7,649.3,459.6z M639.4,451.2v-4.5h-4.7v4.5
		H639.4z M645.7,451.2v-4.5H641v4.5H645.7z"/>
	<path class="st5" d="M661.8,434.5c-0.4,1.1-1,2.5-1.8,4.2l-1.2,2.5v19.2h-1.6v-16.4c-0.9,1.4-1.9,2.8-3.1,4.2l-1.1-1.3
		c2.7-3,5.1-7.4,7.2-13L661.8,434.5z M679.4,453.4c0,1.5-0.1,2.9-0.4,4.2s-0.9,2-1.7,2.2c-0.9,0.2-3.2,0.3-7.1,0.3
		c-0.9,0-1.7,0-2.4,0s-1.2-0.2-1.6-0.6s-0.6-1-0.6-1.7V434h1.7v10.2h11.7v1.6h-11.7v11.9c0,0.2,0.1,0.4,0.2,0.5s0.3,0.3,0.5,0.3
		s0.8,0,2,0c4,0,6.3-0.1,6.9-0.2c0.6-0.2,0.9-2,1-5.5L679.4,453.4z"/>
	<path class="st5" d="M707.9,460.4h-1.5v-2.1h-20.3v2h-1.6v-25.6h23.4V460.4z M706.4,456.8v-20.6h-20.3v20.6H706.4z M696.5,452.2
		c-3.8,1.1-6.8,1.8-9,2.1l-0.2-1.5c2.4-0.3,5.4-1,9.1-2L696.5,452.2z M705.4,451.4c-0.3,1.1-0.6,2-1,2.7c-0.4,0.8-0.7,1.3-1,1.4
		s-0.6,0.3-1.1,0.3c-0.9,0-1.8-1-2.8-3.1c-1,1.2-2.1,2.2-3.3,3.1l-1.2-1.1c1.3-0.8,2.5-2.1,3.7-3.7c-1-2.8-1.6-6-1.8-9.4h-9.8v-1.4
		h9.6c0-0.9-0.1-2,0-3.1h1.5c0,0.9,0,1.9,0.1,3.1h6.6v1.4h-6.6c0.2,3.2,0.7,5.9,1.3,7.9c1.1-1.7,2.1-3.8,3-6.1l1.4,0.6
		c-1,2.6-2.2,5-3.7,7.2c0.3,0.8,0.7,1.5,1,2.1c0.4,0.5,0.6,0.8,0.8,0.8c0.5,0,1-1.2,1.7-3.6L705.4,451.4z M695.2,449.9h-6.5v-5.8
		h6.5V449.9z M693.7,448.3v-2.8h-3.5v2.8H693.7z M703.5,439.2l-1.3,0.6c-0.4-0.7-0.9-1.4-1.5-2.1l1.3-0.7
		C702.6,437.7,703.1,438.4,703.5,439.2z"/>
	<path class="st5" d="M718.9,443.5c1.7,2.1,2.5,4.3,2.5,6.3c0,1.1-0.3,2-1,2.6c-0.7,0.6-1.5,1-2.6,1c-0.2,0-0.4,0-0.6,0l-0.6-1.5
		c1.3,0.1,2.2-0.1,2.7-0.4s0.7-0.9,0.7-1.6c0-2.1-0.9-4.1-2.7-6.2c0.7-2.2,1.5-4.7,2.2-7.5h-3.7v24.1h-1.5v-25.5h6.9v1.4
		C720.3,439,719.6,441.5,718.9,443.5z M727.9,453.6c-1.7,2-3.7,3.8-5.9,5.4l-1.1-1.2c1.9-1.2,3.8-3,5.8-5.2L727.9,453.6z
		 M721.8,443.7l-0.5-1.3c1.4-0.4,2.6-0.8,3.6-1.3l0.5,1.3C725,442.7,723.8,443.1,721.8,443.7z M730.9,436.7c-1,4.8-3.9,8.4-8.7,10.7
		l-0.7-1.3c2.5-1.3,4.4-2.7,5.7-4.4c-0.7-0.8-1.7-1.6-3-2.4c-0.4,0.5-0.9,1-1.4,1.5l-1.1-1c2.1-2,3.5-3.9,4.2-5.7l1.3,0.5l-0.5,1.2
		L730.9,436.7z M738.3,450.7h-6.9v9.7h-1.5v-9.7h-7.4v-1.5h15.8V450.7z M729.1,437.8l-3.4-0.7c-0.3,0.5-0.5,0.8-0.7,1
		c1.1,0.7,2.1,1.5,2.9,2.3C728.5,439.5,728.9,438.6,729.1,437.8z M734.3,446.5h-7.4v-1.5h7.4V446.5z M739.4,446.2l-0.9,1.2
		c-3.8-2.6-6.2-5.5-7-8.7l1.3-0.4c0.4,1.1,0.9,2.1,1.6,3c1.2-1.2,2.1-2.8,2.9-4.6h-5.2v-1.4h6.7v1.5c-0.6,1.9-1.8,3.9-3.5,5.8
		C736.2,443.8,737.7,445,739.4,446.2z M739.2,458.3l-1.2,0.9c-1.1-1.9-2.5-3.8-4.3-5.6l1.3-0.9C736.5,454.2,737.9,456,739.2,458.3z"
		/>
	<path class="st5" d="M757,448.5h-4.5v2.1h4.1v1.3h-4.1v2.1h4.1v1.3h-4.1v2.1h4.1v1.4h-9.8v1.4l-1.4,0v-10.2c-0.5,0.7-1.1,1.4-1.7,2
		l-0.7-1.3c1.4-1.5,2.6-3.3,3.7-5.6l1.3,0.6c-0.2,0.4-0.4,0.9-0.7,1.3h3.5c-0.2-0.5-0.5-1-0.7-1.2l1.4-0.5c0.2,0.4,0.5,1,0.8,1.7
		h4.6V448.5z M748.8,439.2h-1.4v-1.4h-4.2v-1.3h4.2v-2.4h1.4V439.2z M749.4,444.7h-5.5v-4.7h5.5V444.7z M748,443.4v-2.2h-2.7v2.2
		H748z M751.1,450.6v-2.1h-4.3v2.1H751.1z M751.1,454V452h-4.3v2.1H751.1z M751.1,457.5v-2.1h-4.3v2.1H751.1z M756.5,444.7h-5.4
		v-4.7h5.4V444.7z M757.3,437.8h-3.9v1.4h-1.5v-5.1h1.5v2.4h3.9V437.8z M755.1,443.4v-2.2h-2.6v2.2H755.1z M769.3,455
		c-0.2,2.4-0.4,3.8-0.8,4.3s-1.1,0.7-2.2,0.7c-1.4,0-2.1-0.5-2.1-1.6v-6.9h-1.9c-0.1,3.8-1.5,6.8-4.3,9l-1.2-1
		c1.6-1.4,2.7-2.7,3.1-3.8s0.7-2.5,0.8-4.2h-2.4v-16.8h9.6v16.8h-2.3v6.5c0,0.4,0.3,0.5,0.8,0.5c0.5,0,0.9-0.1,1-0.4
		s0.3-1.5,0.4-3.7L769.3,455z M766.3,439.8v-3.6h-6.6v3.6H766.3z M766.3,445v-3.7h-6.6v3.7H766.3z M766.3,450.1v-3.8h-6.6v3.8H766.3
		z"/>
</g>
<g class="st4">
	<path class="st5" d="M899,173h-9.1c-1.1,1.6-2.4,3-3.7,4.2l-2.6-1.9c2.2-1.7,4.1-4.2,5.7-7.5l3.1,0.9c-0.1,0.3-0.3,0.8-0.8,1.6h7.5
		V173z M915.4,195.7l-1.7,2.8c-5-2-9.2-4.6-12.6-7.9v8.5h-3.2v-8.4c-3.2,3.1-7.4,5.7-12.5,7.9l-1.7-2.9c5.6-1.9,10.3-4.9,14.2-8.9
		v-1.2h-7.7v5.3h-3.2v-8.1h10.9v-1.7H884v-2.8h13.9v-1.8h3.2v1.8h13.9v2.8H901v1.7h11v5.4c0,0.6-0.2,1.2-0.6,1.8s-1.4,0.8-3,0.8
		c-0.5,0-1,0-1.6-0.1l-0.9-2.7l2.4,0c0.4,0,0.5-0.2,0.5-0.7v-1.8H901v1.1C904.7,190.7,909.5,193.7,915.4,195.7z M895.9,176.8l-3,0.8
		c-0.4-1.1-1-2.2-1.8-3.1l2.9-0.9C894.9,174.6,895.5,175.7,895.9,176.8z M914.9,173H904c-0.7,1.2-1.6,2.2-2.6,3.1l-2.6-1.7
		c1.6-1.3,3.1-3.5,4.6-6.5l2.9,0.7c-0.2,0.6-0.4,1.1-0.7,1.7h9.3V173z M910.6,176.8l-3,0.8c-0.5-1.2-1.1-2.3-1.8-3.1l2.9-0.9
		C909.5,174.5,910.1,175.5,910.6,176.8z"/>
	<path class="st5" d="M931.2,196.5h-2.7v-1.8h-5.6v2.6h-2.7v-27.6h10.9V196.5z M924.5,180.5v-7.8h-1.6v7.8H924.5z M924.5,191.9v-8.4
		h-1.6v8.4H924.5z M928.5,180.5v-7.8h-1.6v7.8H928.5z M928.5,191.9v-8.4h-1.6v8.4H928.5z M950.9,182.7l-1.6,2.7
		c-3.6-1.2-6.3-2.4-8.2-3.8c-2.2,1.4-4.8,2.7-7.9,3.8l-1.6-2.7c2.5-0.8,4.8-1.8,6.9-3.1c-1.3-1.3-2.2-2.5-2.8-3.5
		c-0.7,0.6-1.4,1.1-2.2,1.6l-1.9-2.4c3.3-2.2,5.6-4.7,6.9-7.4l2.9,0.9c-0.3,0.8-0.7,1.4-1,1.9h8.3v2.8c-1,2-2.7,4-5,6.1
		C946,181.1,948.4,182.1,950.9,182.7z M948.6,199.2h-3.1V198h-8.4v1.2H934v-13.2h14.6V199.2z M945.5,195v-6h-8.4v6H945.5z
		 M945.2,173.6h-6.9l-0.3,0.3c1,1.7,2,3,3.1,3.9C942.8,176.4,944.2,175.1,945.2,173.6z"/>
	<path class="st5" d="M986.1,198.4h-30.9v-2.8H969v-3.3h-11.7v-2.8H969V187h3.2v2.4H984v2.8h-11.8v3.3h13.9V198.4z M974,179h-4.2
		v7.1h-3.1V179h-3.9c-0.3,3.2-1.9,6.1-4.6,8.5l-2.2-2.2c2.2-1.9,3.5-4,3.8-6.3h-4.4v-2.8h4.7v-4.6H956v-2.9h17.6v2.9h-3.7v4.6h4.2
		V179z M966.8,176.2v-4.6h-3.6v4.6H966.8z M978.6,181.9h-3.1v-12h3.1V181.9z M984.9,184.3c0,0.9-0.3,1.6-0.9,2.1
		c-0.6,0.5-1.5,0.8-2.5,0.8h-4.5l-0.9-2.9c0.8,0.1,1.6,0.1,2.5,0.1c1.7,0,2.7-0.1,3-0.2c0.3-0.2,0.4-0.4,0.4-0.8v-15h3V184.3z"/>
</g>
<g class="st4">
	<path class="st5" d="M899.3,219.8l-1.8,2.5c-1.8-2.2-3.6-4.1-5.3-5.6c-0.9,1.6-2.2,3.3-3.7,5h7.9v2.9h-8.4v-2.2l-2.2,2l-2-2.4
		c3.5-3,5.9-6.3,7.4-9.8l3,0.9c-0.1,0.3-0.3,0.7-0.5,1.2C895.7,216,897.6,217.8,899.3,219.8z M898.1,230c0,0.2-0.4,1.2-1.3,3
		c-0.9,1.8-1.9,3.6-3.1,5.4c1.1,1.2,2.1,2.3,2.9,3.3l-2.3,2c-2.3-2.9-5.1-5.7-8.3-8.3l2.2-1.8c1,0.7,2.1,1.7,3.3,2.8
		c1.4-2.1,2.5-4.2,3.4-6.3h-10.3v-2.9h13.6V230z M914.9,216.1h-6.2c-0.3,1.2-0.6,2.1-0.9,2.8h6v18h-9.4l1.9,1.6
		c-1.7,1.9-3.9,3.6-6.7,5.3l-2-2.4c2.3-1.1,4.4-2.6,6.2-4.5H900v-18h4.4c0.4-1,0.8-1.9,1-2.8h-6.6v-2.9h16.1V216.1z M910.6,223.9
		v-2.2h-7.5v2.2H910.6z M910.6,228.9v-2.3h-7.5v2.3H910.6z M910.6,234.1v-2.5h-7.5v2.5H910.6z M915.1,241.4l-1.8,2.3
		c-1.6-1.3-3.6-2.7-6-4l1.8-2.2C911.5,238.8,913.5,240.1,915.1,241.4z"/>
	<path class="st5" d="M950.6,231.3l-0.8,2.6c-0.8,0-1.7,0.1-2.7,0.1c-1,0-1.9,0-2.7-0.1v1.5h6.1v2.5h-6.1v2.7c0,0.9-0.2,1.6-0.7,2.1
		c-0.5,0.5-1.1,0.7-1.7,0.8s-1.7,0.1-3,0.1c-0.8,0-1.5,0-2.3-0.1l-1.3-2.9l5,0.1c0.5,0,0.8-0.3,0.8-0.8v-2.1h-21.7v-2.5h21.7v-1.5
		c-3.6,0.1-6.6,0-9.2-0.4s-4.8-1.1-6.8-2.3c-1.3,1.4-2.6,2.5-4.1,3.3l-1.9-2.2c2.8-1.3,4.6-3.3,5.5-5.9h-4.6v-2.5
		c1.4-1,2.8-2.2,4-3.6h-4.5v-2.5h8v2.5c-0.7,0.9-1.8,2.2-3.4,3.6h3.4v2.4c-0.2,0.9-0.6,1.8-1.1,2.7c1,0.6,2.1,1.1,3.4,1.4
		c1.3,0.3,2.5,0.6,3.5,0.7s3.4,0.1,7.2,0.1C943.1,231.4,946.4,231.3,950.6,231.3z M926.8,215.6l-2,1.8c-1-1-2.6-2.1-4.6-3.3l2-1.9
		C924.2,213.4,925.7,214.5,926.8,215.6z M933.3,240.9l-1.8,2.3c-1.8-1-4-1.8-6.5-2.5l1.7-2.5C929.1,238.9,931.3,239.8,933.3,240.9z
		 M950.5,217.4H941c-0.2,0.3-0.4,0.8-0.8,1.4h8.7V230h-18.8v-11.2h6.6c0.3-0.4,0.5-0.9,0.8-1.4h-9v-2.3h22V217.4z M938.1,213.9
		l-2.7,1.1c-1.4-0.8-2.6-1.4-3.6-1.7l2.9-1.1C936,212.6,937.2,213.2,938.1,213.9z M945.9,222v-1.1h-12.6v1.1H945.9z M945.9,224.9
		v-1.1h-12.6v1.1H945.9z M945.9,228v-1.3h-12.6v1.3H945.9z M947.4,213.3c-1.4,0.8-2.6,1.3-3.6,1.7l-2.7-1.1c1.3-0.5,2.4-1.1,3.5-1.7
		L947.4,213.3z"/>
	<path class="st5" d="M984.3,218.6c0,6.4-0.2,11.5-0.4,15.3s-0.6,6.3-1.1,7.2c-0.5,0.9-1.1,1.6-1.9,2s-2.5,0.6-5.2,0.6
		c-0.8,0-1.6,0-2.4-0.1l-1.2-3.3c1.2,0.1,3.1,0.1,5.9,0.1c0.5,0,0.9-0.1,1.2-0.4c0.4-0.2,0.6-0.5,0.7-0.9c0.1-0.4,0.3-1.7,0.5-4
		c0.2-2.3,0.3-4.6,0.4-6.9l0.2-6.6h-10.3c-0.3,5.6-1.5,10.1-3.6,13.3c-2.1,3.2-5.3,6.1-9.8,8.7l-2.1-2.6c3.3-1.6,6.1-3.8,8.4-6.5
		c2.3-2.8,3.6-7,4-12.8h-11.3v-3.1h11.4c0.1-1.9,0.2-3.9,0.2-6.1h3.3c0,1.8-0.1,3.8-0.2,6.1H984.3z"/>
</g>
<g class="st4">
	<path class="st5" d="M901.1,290.7l-0.8,1.4c-5.7-2.5-9.8-5.3-12.2-8.2c-2.4,3.2-6.5,6-12.4,8.2l-0.8-1.5c5.1-1.8,8.9-4.1,11.2-6.9
		h-2.9v-1.5h5.7C891.1,285.4,895.2,288.3,901.1,290.7z M900.4,307.2h-24.7v-1.5h11.6V300H879v-1.5h8.3v-5.6h-8.2v-1.5h18v1.5h-8.2
		v5.6h8.2v1.5h-8.2v5.8h11.6V307.2z"/>
	<path class="st5" d="M914.4,300.3c-2.4,1.4-5.4,3-8.9,4.7l-0.7-1.3c1.8-0.9,3.2-1.6,4.3-2.2v-8.2h-3.5V292h3.5v-6.9h-3.8v-1.4h9
		v1.4h-3.7v6.9h3.1v1.4h-3.1v7.3c1.1-0.5,2.3-1.2,3.7-2L914.4,300.3z M920,299.4c-2.5,2.8-4.6,4.8-6.2,5.9l-1-1.2
		c1.9-1.4,4.1-3.4,6.4-6L920,299.4z M931.4,304.3l-0.9,1.3c-3.2-2.9-5.6-6.4-7.1-10.6v10.3c0,0.7-0.2,1.3-0.6,1.8
		c-0.4,0.5-1.4,0.8-2.9,0.8c-0.7,0-1.3,0-1.9-0.1l-0.4-1.5c0.9,0.1,1.7,0.1,2.4,0.1c0.8,0,1.3-0.1,1.5-0.3s0.4-0.5,0.4-0.9v-16.9
		h-7.6V287h7.6v-5.3h1.5v5.3h8v1.4h-8v1.5c0.2,1.7,0.7,3.4,1.5,5.2c1.8-1.3,3.3-2.8,4.6-4.5l1.2,1c-1.2,1.6-3,3.2-5.2,4.9
		C926.5,298.9,928.5,301.4,931.4,304.3z M920.2,295.1l-1.3,0.9c-0.9-1.6-2.2-3.3-3.8-4.9l1.3-0.9
		C918.1,292.1,919.4,293.7,920.2,295.1z M929.9,284.9l-1.2,1c-0.7-1-1.7-1.9-2.9-2.8l1.1-1.1C928,282.9,929,283.8,929.9,284.9z"/>
	<path class="st5" d="M946,298.3l-1.2,1.1c-0.9-1.4-2.1-2.9-3.5-4.5v12.8h-1.5v-11.3c-0.8,0.9-2,2-3.5,3.5l-1.1-1.1
		c4.2-3.7,6.9-7.1,8.1-10.2h-7.4v-1.5h9v1.5c-0.9,1.8-1.8,3.5-2.8,5C943.8,295.2,945.1,296.8,946,298.3z M942.3,285.7l-1.5,0.6
		c-0.8-1.7-1.7-3-2.5-4l1.4-0.7C940.4,282.4,941.3,283.8,942.3,285.7z M961.3,302.4c0,1.3-0.1,2.3-0.4,3s-0.6,1.3-1.1,1.6
		c-0.4,0.3-1.1,0.4-2,0.4c-1.5,0-2.4-0.2-2.8-0.7s-0.6-1-0.6-1.5v-7.1h-3.2c0,1.7-0.3,3.3-1.1,4.8c-0.8,1.5-1.7,2.7-2.9,3.6
		c-1.2,0.9-2,1.3-2.3,1.3h-0.1l-1-1.3c3.9-1.7,5.8-4.5,5.8-8.5h-2.8v-15.7h12.5v15.7h-3.3v6.9c0,0.6,0.6,0.9,1.8,0.9
		c0.7,0,1.2-0.2,1.4-0.6s0.5-1.6,0.6-3.4L961.3,302.4z M957.7,287.2V284h-9.3v3.2H957.7z M957.7,291.9v-3.2h-9.3v3.2H957.7z
		 M957.7,296.6v-3.3h-9.3v3.3H957.7z"/>
	<path class="st5" d="M978.5,304.6c-4.1,1-8.6,1.9-13.3,2.5l-0.2-1.5c2-0.2,4.1-0.5,6.1-0.9v-4.4h-5.5v-1.5h5.5v-3.4h-4.9v-13.2
		h11.4v13.2h-4.9v3.4h5.2v1.5h-5.2v4c1.4-0.2,3.3-0.6,5.7-1.2L978.5,304.6z M971.1,288.1v-4.2h-3.5v4.2H971.1z M971.1,294v-4.4h-3.5
		v4.4H971.1z M976.1,288.1v-4.2h-3.4v4.2H976.1z M976.1,294v-4.4h-3.4v4.4H976.1z M990.9,292.4c-0.4,2.9-1.2,5.4-2.4,7.7l-1.4-0.9
		c0.8-1.3,1.4-3.1,1.9-5.3h-3.7v11.6c0,0.7-0.2,1.3-0.6,1.7c-0.4,0.4-1.3,0.6-2.6,0.6h-1.8l-0.4-1.5c1.7,0,2.7,0,3,0
		s0.5-0.1,0.7-0.4s0.2-0.5,0.2-0.8v-11.2h-4.9v-1.5h7c-1.4-1.8-3.3-3.4-5.7-5l1.1-1.1c0.9,0.6,2,1.5,3.2,2.5
		c1.6-1.7,2.9-3.4,3.9-4.9h-8.9v-1.5h10.7v1.5c-1.4,2.1-3,4-4.6,5.8c0.7,0.6,1.2,1.2,1.7,1.8l-0.8,0.9H990.9z"/>
</g>
<g class="st4">
	<path class="st5" d="M901.4,354.6l-0.5,1.3c-4.9,0-9.1-0.6-12.6-1.8c-3.5,1.1-7.7,1.8-12.7,1.9l-0.5-1.4c4.6-0.1,8.4-0.5,11.2-1.3
		c-2.1-1.2-3.6-2.2-4.5-2.9l1.1-0.8c2.1,1.5,3.9,2.6,5.4,3.1c2.1-0.9,4-2.3,5.7-4.4h-12.1c-1.5,1.1-3.1,2-4.9,2.7l-1-1.2
		c3.1-1.2,5.5-2.7,7.2-4.6l1.5,0.6c-0.2,0.4-0.5,0.8-1,1.1h16.9v1.4h-4.7c-1.5,2.1-3.3,3.8-5.5,5
		C893.1,354.1,896.8,354.6,901.4,354.6z M878,341.6c-0.3,1.2-0.9,2.5-1.7,4l-1.1-0.7c0.8-1.3,1.3-2.6,1.6-3.7L878,341.6z M884,339.9
		l-1.2,0.4l-0.2-0.9c-2.5,0.4-4.7,0.7-6.6,0.9l-0.4-1.3c1.5-0.9,2.9-2.2,4.2-3.7c-1.1,0.1-2.3,0.3-3.7,0.4l-0.4-1.2
		c1.5-1.4,2.8-3.1,4.1-5.1l1.2,0.5c-1.1,1.8-2.2,3.2-3.3,4.4c1.2-0.1,2.3-0.3,3.4-0.5l1.2-1.5l1.2,0.6c-1.9,2.5-3.7,4.5-5.5,5.8
		c1.4-0.1,2.8-0.3,4.1-0.6c-0.2-0.5-0.3-0.9-0.5-1.3l1.1-0.5C883.3,337.7,883.8,338.9,884,339.9z M880.7,345l-1.3,0.3
		c-0.1-1.5-0.3-2.7-0.6-3.7l1.3-0.3C880.4,342.4,880.6,343.6,880.7,345z M883.5,344.3l-1.2,0.2c-0.2-1.2-0.5-2.3-0.8-3.3l1.3-0.3
		C883.1,342,883.4,343.1,883.5,344.3z M892.3,333.1H884v-1.3h3.6c-0.2-0.5-0.5-1.1-1-1.9l1.3-0.5c0.5,0.7,0.9,1.5,1.3,2.4h3.1V333.1
		z M891.5,338.6h-6.9v-1.3h6.9V338.6z M891.5,335.9h-6.9v-1.3h6.9V335.9z M891.6,344.8h-6.9v-4.7h6.9V344.8z M890.3,343.5v-2.1H886
		v2.1H890.3z M894.8,341.7c-0.3,1.3-0.8,2.6-1.4,3.8l-1.2-0.5c0.5-0.8,1-2.1,1.4-3.8L894.8,341.7z M900.8,340.1l-1.2,0.4
		c-0.1-0.4-0.2-0.8-0.3-1c-2.4,0.4-4.6,0.7-6.8,0.9l-0.4-1.3c1.2-0.8,2.6-2,4.2-3.6c-1.4,0.2-2.6,0.3-3.4,0.4l-0.4-1.3
		c1.3-1.1,2.7-2.8,4.1-5l1.2,0.5c-1,1.7-2.2,3.1-3.5,4.4c1.1-0.1,2.1-0.2,3.2-0.4c0.7-0.8,1.2-1.4,1.4-1.7l1.2,0.6
		c-1.6,2.1-3.5,4.1-5.8,5.9c1.6-0.1,3.1-0.4,4.5-0.7c-0.1-0.3-0.2-0.8-0.5-1.3l1.2-0.4C900.2,337.7,900.6,338.9,900.8,340.1z
		 M897.6,345.1l-1.3,0.2c0-0.9-0.1-2.2-0.5-3.7l1.3-0.2C897.5,342.6,897.7,343.9,897.6,345.1z M901,344.6l-1.3,0.3
		c-0.3-1.3-0.6-2.4-1.1-3.4l1.2-0.4C900.4,342.4,900.8,343.5,901,344.6z"/>
	<path class="st5" d="M931.2,351.1H919v4.8h-1.6v-4.8h-12.2v-1.5h12.2V347h-8.9v-6.8h8.9v-2.4h-5.7v-4h-6.1v-1.5h6.1v-2.5h1.5v2.5
		h10v-2.5h1.6v2.5h6v1.5h-6v4H919v2.4h9v6.8h-9v2.5h12.2V351.1z M917.4,345.5v-3.9h-7.3v3.9H917.4z M923.2,336.1v-2.5h-10v2.5H923.2
		z M926.4,345.5v-3.9H919v3.9H926.4z"/>
	<path class="st5" d="M948,333.1h-8.4c-1,1.2-2.1,2.4-3.3,3.4l-1.2-1c2.1-1.7,3.8-3.8,5-6.1l1.5,0.6c-0.2,0.5-0.5,1-1,1.7h7.4V333.1
		z M960.5,343.2H959V339h-21.5v4.1H936v-5.6h11.3c-0.1-0.4-0.3-1-0.7-1.7l1.3-0.5c0.4,0.7,0.7,1.4,1,2.2h11.7V343.2z M957.8,354.6
		h-16.9v1.2h-1.6v-14.5h17.5v5.2h-16v2.4h16.9V354.6z M955.4,345v-2.3h-14.4v2.3H955.4z M956.3,353.1v-2.9h-15.3v2.9H956.3z
		 M944.9,336.1l-1.4,0.6c-0.4-0.7-0.9-1.6-1.7-2.5l1.3-0.5C943.9,334.5,944.5,335.3,944.9,336.1z M961.2,333.1h-9.6
		c-0.7,0.8-1.4,1.6-2.3,2.3l-1.2-0.9c2.2-2.1,3.5-3.8,4.1-5.1l1.5,0.6c-0.2,0.5-0.6,1.1-1,1.7h8.5V333.1z M956.9,336.3l-1.3,0.5
		c-0.7-1.3-1.2-2.2-1.5-2.6l1.4-0.5C956,334.5,956.5,335.4,956.9,336.3z"/>
	<path class="st5" d="M974.1,348.7c-2.2,1.2-5,2.7-8.5,4.5l-0.7-1.3c1.8-0.9,3.2-1.6,4.2-2.2v-8.3h-3.5V340h3.5v-6.9h-4v-1.4h8.9
		v1.4h-3.5v6.9h3.1v1.5h-3.1v7.5c1-0.5,2.1-1.1,3.3-1.8L974.1,348.7z M991.3,355.3H974v-1.5h7.8v-4.3h-6.7V348h6.7v-3.7h-6.4v-13.9
		h14.5v13.9h-6.5v3.7h6.9v1.5h-6.9v4.3h7.9V355.3z M981.8,336.6v-4.7h-4.9v4.7H981.8z M981.8,342.8V338h-4.9v4.8H981.8z
		 M988.4,336.6v-4.7h-5v4.7H988.4z M988.4,342.8V338h-5v4.8H988.4z"/>
</g>
<g class="st4">
	<path class="st7" d="M269.8,825.8l2.1-0.3c0.2,1.2,0.7,2.1,1.2,2.6c0.6,0.5,1.3,0.8,2.1,0.8c1,0,1.8-0.3,2.5-1c0.7-0.7,1-1.5,1-2.6
		c0-1-0.3-1.8-0.9-2.4c-0.6-0.6-1.4-0.9-2.4-0.9c-0.4,0-0.9,0.1-1.5,0.2l0.2-1.9c0.1,0,0.3,0,0.3,0c0.9,0,1.7-0.2,2.4-0.7
		c0.7-0.5,1.1-1.2,1.1-2.2c0-0.8-0.3-1.4-0.8-1.9c-0.5-0.5-1.2-0.8-2-0.8c-0.8,0-1.5,0.3-2,0.8c-0.5,0.5-0.9,1.3-1.1,2.3l-2.1-0.4
		c0.3-1.4,0.8-2.5,1.8-3.3c0.9-0.8,2-1.2,3.4-1.2c0.9,0,1.8,0.2,2.6,0.6c0.8,0.4,1.4,1,1.8,1.6c0.4,0.7,0.6,1.4,0.6,2.2
		c0,0.7-0.2,1.4-0.6,2s-1,1.1-1.8,1.5c1,0.2,1.8,0.7,2.4,1.5c0.6,0.7,0.8,1.7,0.8,2.8c0,1.5-0.5,2.8-1.6,3.8s-2.5,1.6-4.1,1.6
		c-1.5,0-2.8-0.4-3.8-1.3S270,827.3,269.8,825.8z"/>
</g>
<g class="st4">
	<path class="st7" d="M366.8,826.4l2.2-0.2c0.2,1.1,0.5,1.9,1.1,2.4c0.6,0.5,1.3,0.8,2.2,0.8c1,0,1.9-0.4,2.6-1.1
		c0.7-0.8,1.1-1.8,1.1-3c0-1.2-0.3-2.2-1-2.8s-1.6-1-2.7-1c-0.7,0-1.3,0.2-1.8,0.5c-0.5,0.3-1,0.7-1.3,1.2l-2-0.3l1.7-8.8h8.5v2
		h-6.9l-0.9,4.6c1-0.7,2.1-1.1,3.2-1.1c1.5,0,2.8,0.5,3.8,1.6s1.5,2.4,1.5,4c0,1.6-0.5,2.9-1.4,4c-1.1,1.4-2.6,2.1-4.5,2.1
		c-1.6,0-2.8-0.4-3.8-1.3C367.5,829,367,827.8,366.8,826.4z"/>
</g>
<g class="st4">
	<path class="st7" d="M489,816v-2h11.1v1.6c-1.1,1.2-2.2,2.7-3.3,4.6s-1.9,3.9-2.5,6c-0.4,1.4-0.7,3-0.8,4.7h-2.2
		c0-1.4,0.3-3,0.8-4.9c0.5-1.9,1.2-3.8,2.2-5.5s2-3.3,3-4.5H489z"/>
</g>
<g class="st4">
	<path class="st7" d="M679.7,830.4h-2.1v-13.4c-0.5,0.5-1.2,1-2,1.5s-1.6,0.8-2.2,1.1v-2c1.2-0.6,2.2-1.2,3.1-2
		c0.9-0.8,1.5-1.6,1.9-2.3h1.4V830.4z"/>
	<path class="st7" d="M685.1,821.9c0-2,0.2-3.7,0.6-4.9s1-2.2,1.9-2.9c0.8-0.7,1.9-1,3.1-1c0.9,0,1.7,0.2,2.4,0.6
		c0.7,0.4,1.3,0.9,1.7,1.6s0.8,1.6,1.1,2.6s0.4,2.4,0.4,4.1c0,2-0.2,3.6-0.6,4.9s-1,2.2-1.9,2.9c-0.8,0.7-1.9,1-3.1,1
		c-1.7,0-3-0.6-3.9-1.8C685.7,827.5,685.1,825.1,685.1,821.9z M687.3,821.9c0,2.8,0.3,4.7,1,5.6c0.7,0.9,1.5,1.4,2.4,1.4
		s1.8-0.5,2.4-1.4c0.7-0.9,1-2.8,1-5.6c0-2.8-0.3-4.7-1-5.6c-0.7-0.9-1.5-1.4-2.5-1.4c-1,0-1.7,0.4-2.3,1.2
		C687.7,817.2,687.3,819.1,687.3,821.9z"/>
</g>
<g class="st4">
	<path class="st7" d="M955.7,830.4h-2.1v-13.4c-0.5,0.5-1.2,1-2,1.5s-1.6,0.8-2.2,1.1v-2c1.2-0.6,2.2-1.2,3.1-2
		c0.9-0.8,1.5-1.6,1.9-2.3h1.4V830.4z"/>
	<path class="st7" d="M961.1,825.9l2.2-0.2c0.2,1.1,0.5,1.9,1.1,2.4c0.6,0.5,1.3,0.8,2.2,0.8c1,0,1.9-0.4,2.6-1.1
		c0.7-0.8,1.1-1.8,1.1-3c0-1.2-0.3-2.2-1-2.8c-0.7-0.7-1.6-1-2.7-1c-0.7,0-1.3,0.2-1.8,0.5s-1,0.7-1.3,1.2l-2-0.3l1.7-8.8h8.5v2
		h-6.9l-0.9,4.6c1-0.7,2.1-1.1,3.2-1.1c1.5,0,2.8,0.5,3.8,1.6s1.5,2.4,1.5,4c0,1.6-0.5,2.9-1.4,4c-1.1,1.4-2.6,2.1-4.5,2.1
		c-1.6,0-2.8-0.4-3.8-1.3S961.3,827.3,961.1,825.9z"/>
</g>
<g class="st4">
	<path class="st6" d="M1152.1,794H1142v6.1h-2.7V794h-12.9v-2.6h3.9v-7.5h9v-4.4h-6.7c-1.6,2-3.2,3.6-4.6,5l-1.9-2
		c2.8-2.4,5.1-5.2,6.8-8.5l2.7,0.5c-0.3,0.8-0.7,1.6-1.3,2.4h16.7v2.5h-9v4.4h8.4v2.5h-8.4v5h10.1V794z M1139.3,791.4v-5h-6.3v5
		H1139.3z"/>
	<path class="st6" d="M1182,783.3l-1.2,2.4c-0.8-0.2-1.6-0.4-2.6-0.7V796h-12.5l1.3,1.5c-2.8,1.3-6.1,2.2-9.9,2.8l-1.3-2.4
		c2.8-0.3,5.5-1,8.1-2h-4.4v-11.2h5.6l-1.1-1.6c3.5-0.9,6-2.4,7.7-4.6l2.7,0.6c-0.3,0.5-0.5,0.9-0.7,1
		C1175.9,781.5,1178.6,782.6,1182,783.3z M1164.6,782.4h-8.6V780h8.6V782.4z M1164.4,777.7h-8v-2.4h8V777.7z M1175.5,788v-1h-13.2v1
		H1175.5z M1175.5,791v-1.1h-13.2v1.1H1175.5z M1175.5,794.1v-1.2h-13.2v1.2H1175.5z M1181.4,778.1c-0.9,1.3-1.8,2.4-2.6,3.3
		l-2.2-1.3c0.2-0.3,0.8-0.9,1.6-2h-9.3c-0.9,1-1.8,1.9-2.6,2.6l-2-1.7c1.5-1.1,3-2.8,4.4-5l2.4,0.8c-0.1,0.3-0.3,0.7-0.6,1h10.9
		V778.1z M1177.9,784.8c-2-0.6-3.9-1.6-5.8-2.8c-1.2,1.1-2.8,2.1-4.8,2.8H1177.9z M1181.8,798.2l-1.4,2.3c-2.6-0.8-5.5-1.4-8.7-1.8
		l1.4-2.2C1176.2,796.7,1179.1,797.3,1181.8,798.2z"/>
</g>
<g class="st4">
	<path class="st6" d="M103.8,21.7c-0.5,3.9-1.6,5.9-3.4,5.9c-1.8,0-3.4-1.8-4.8-5.4c-2,2.1-4.2,4-6.6,5.6l-1.8-2
		c3.2-2.1,5.7-4.2,7.5-6.3c-0.9-3.4-1.5-7-1.7-10.8H82.8v3.2h7.8c-0.1,2.4-0.2,4.3-0.3,5.7C90.2,19,90.1,20,90,20.7
		c-0.1,0.7-0.3,1.3-0.7,1.9s-0.9,0.9-1.5,1c-0.6,0.1-1.3,0.2-2.2,0.2c-0.5,0-0.9,0-1.4-0.1l-0.7-2.5c0.6,0,1.1,0,1.5,0
		c1.4,0,2.2-0.2,2.4-0.5c0.2-0.3,0.3-1.2,0.5-2.7s0.2-2.7,0.2-3.7h-5.2c-0.1,5.7-1.2,10-3.2,13.2l-2-1.9c1.8-3,2.7-7.4,2.7-13.3V6.2
		h12.5c-0.1-1.6-0.1-3.2-0.1-4.7h2.7c0,0.5,0,1,0,1.5c0,0.9,0,2,0.1,3.2h7.7v2.5h-7.6c0.1,2.7,0.5,5.4,1.1,8.1
		c1.2-1.8,2.2-4,3.1-6.6l2.4,0.9c-1.3,3.5-2.9,6.4-4.7,8.8c0.3,1.2,0.8,2.2,1.3,3.1c0.5,0.9,0.8,1.4,1,1.5c0.1,0.1,0.3,0.1,0.4,0.1
		c0.2,0,0.3-0.1,0.4-0.2s0.2-0.6,0.4-1.5s0.3-1.7,0.3-2.5L103.8,21.7z M102.3,3.9l-1.5,1.9c-1.1-0.8-2.5-1.5-4.2-2.2l1.5-2
		C99.7,2.3,101.1,3,102.3,3.9z"/>
	<path class="st6" d="M133.2,16.5h-19.6v7.4c1.8-0.4,3.9-1,6.2-1.9l0.2,2.7c-3.2,1.1-6.2,1.9-9,2.6l-0.7-2.2
		c0.4-0.3,0.7-0.6,0.7-1.1v-7.5h-3.5v-2.5h4.1V2h19.9v2.4h-17.2v1.7h15.6v2.3h-15.6v1.8h15.6v2.2h-15.6v1.8h18.9V16.5z M133.4,25
		l-1.3,2.5c-3.5-0.8-6.3-1.9-8.3-3.2c-2-1.3-3.9-3.2-5.6-5.8l2.3-1.3c0.8,1.3,1.8,2.5,3,3.7c2.1-1.2,3.9-2.4,5.3-3.8l2,1.7
		c-1.8,1.6-3.5,2.8-5.1,3.6C127.6,23.5,130.1,24.4,133.4,25z"/>
</g>
<g>
	<path class="st8" d="M103,67h4v719h-4V67z"/>
</g>
<g>
	<path class="st8" d="M103,784h995v4H103V784z"/>
</g>
<g>
	<path class="st6" d="M104.3,51.1L94,68.9h20.7L104.3,51.1"/>
</g>
<g>
	<path class="st6" d="M1089.1,776.5L1089,797l17.9-10.4L1089.1,776.5"/>
</g>
<image style="overflow:visible;" width="494" height="12" xlink:href="95DF3EF6F9EE852D.png"  transform="matrix(1 0 0 1 231.0617 786.0805)">
</image>
<g class="st4">
	<path class="st7" d="M23.1,568.5h-4.7v2c0,0.6-0.2,1.1-0.5,1.6s-1.1,0.6-2.3,0.6c-0.5,0-1.2,0-2.2-0.1l-0.6-1.9c1.6,0,2.6,0,2.9,0
		c0.3,0,0.5-0.2,0.5-0.5v-1.7H2.2v-1.7h14.1v-0.7h2.1v0.7h4.7V568.5z M22.9,565.4l-1.8,1c-0.4-0.6-0.8-1-1-1.2
		c-6.7,0.4-12.3,0.5-16.8,0.5l-0.6-1.7c1.2,0,2.5,0,4,0c2,0,3.6,0,4.9-0.1v-1.3H4.3v-6.9h7.3v-1.1H2.5v-1.7h9.1v-1.2h2.1v1.2h9v1.7
		h-9v1.1h7.4v6.9h-0.6C21.3,563.7,22.2,564.6,22.9,565.4z M11.6,571l-1.6,1.5c-0.9-0.6-2.1-1.4-3.7-2.2l1.6-1.5
		C9.3,569.5,10.6,570.3,11.6,571z M11.6,558.6v-1.2H6.4v1.2H11.6z M11.6,561.1V560H6.4v1.1H11.6z M19,558.6v-1.2h-5.4v1.2H19z
		 M19,561.1V560h-5.4v1.1H19z M19,562.8h-5.4v1.2c2.2-0.1,3.8-0.2,4.9-0.3c-0.2-0.2-0.3-0.4-0.5-0.5L19,562.8z"/>
	<path class="st7" d="M47.1,567.1h-9.4v5.8h-2.1v-5.8h-9.4v-1.8h9.4v-1.2h-8.2v-1.8h8.2v-1.2h-8.9v-1.8h5.5c-0.3-0.4-0.5-0.7-0.8-1
		l1.6-0.9h-6.8v-1.8h7.3V552h2.1v3.6h2.2V552h2.1v3.6H47v1.8h-6.6l1.4,0.8c-0.3,0.5-0.6,0.9-0.8,1.2h5.5v1.8h-8.9v1.2H46v1.8h-8.3
		v1.2h9.4V567.1z M33.8,569.1c-2.2,1.6-4.3,2.8-6.2,3.6l-1.4-1.7c1.9-0.7,3.9-1.8,6-3.3L33.8,569.1z M31.7,554.2l-1.6,1.2
		c-0.7-0.8-1.4-1.5-2.1-2.1l1.6-1.2C30.5,552.8,31.2,553.5,31.7,554.2z M39.7,557.4h-6.3c0.5,0.6,0.9,1.2,1.3,1.9h3.6
		C38.9,558.7,39.3,558,39.7,557.4z M47.5,570.9l-1.2,1.7c-2.3-1.3-4.6-2.4-6.9-3.3l1.2-1.7C42.9,568.5,45.2,569.6,47.5,570.9z
		 M45.2,553c-0.4,0.6-1.1,1.4-2.1,2.2l-1.9-1.1c0.7-0.6,1.4-1.3,2.1-2.1L45.2,553z"/>
	<path class="st7" d="M69.9,556c0,4.3-0.1,7.7-0.3,10.3s-0.4,4.2-0.7,4.8s-0.7,1.1-1.3,1.3c-0.5,0.3-1.7,0.4-3.5,0.4
		c-0.5,0-1.1,0-1.6,0l-0.8-2.2c0.8,0,2.1,0.1,4,0.1c0.3,0,0.6-0.1,0.8-0.2c0.2-0.2,0.4-0.4,0.5-0.6s0.2-1.2,0.3-2.7s0.2-3.1,0.3-4.6
		l0.1-4.4h-7c-0.2,3.8-1,6.8-2.4,9s-3.6,4.1-6.6,5.9l-1.4-1.8c2.2-1.1,4.1-2.6,5.7-4.4c1.5-1.9,2.4-4.7,2.7-8.7H51V556h7.7
		c0.1-1.2,0.1-2.6,0.1-4.1H61c0,1.2,0,2.6-0.1,4.1H69.9z"/>
</g>
<g>
	<path class="st9" d="M99.9,561.3h10.4v4.4H99.9V561.3z"/>
</g>
<g class="st4">
	<path class="st7" d="M12.4,327H6c-0.7,0.8-1.6,1.7-2.7,2.5L2,327.8c1.8-1.2,3.1-2.6,3.6-4.1l2.2,0.6c-0.1,0.3-0.3,0.6-0.5,1h5.1
		V327z M22.5,334.2h-2.1v-2.3H4.8v2.3H2.7v-4.1h8.6c-0.1-0.2-0.3-0.6-0.6-1.1l2.4-0.4c0.2,0.3,0.5,0.8,0.8,1.5h8.5V334.2z
		 M20.3,343.8H7.5v1H5.4v-11.7h14v4.6H7.5v1.3h12.7V343.8z M10.1,329.1l-2.3,0.4c-0.2-0.5-0.5-1-1-1.7l2.3-0.5
		C9.4,327.7,9.7,328.3,10.1,329.1z M17.3,336.1v-1.4H7.5v1.4H17.3z M18.1,342.2v-1.7H7.5v1.7H18.1z M23.1,327h-7.4
		c-0.4,0.6-0.8,1.1-1.4,1.7l-1.9-1c1.3-1.4,2.3-2.8,2.8-4.1l2.2,0.6c-0.2,0.4-0.4,0.7-0.5,1h6.3V327z M19.8,329.2l-2.3,0.4
		c-0.2-0.6-0.5-1.2-0.9-1.9l2.3-0.3C19.3,328,19.6,328.6,19.8,329.2z"/>
	<path class="st7" d="M33.4,339.7c-1.8,1.1-4.1,2.3-6.7,3.5l-0.7-2c0.6-0.2,1.5-0.7,2.9-1.3v-6h-2.3v-2h2.3v-4.7h-2.7v-1.9h7.2v1.9
		h-2.4v4.7h2.1v2h-2.1v4.9c0.8-0.3,1.6-0.8,2.4-1.3L33.4,339.7z M47,344.3H33.3v-1.9h5.9V340h-5.1v-1.9h5.1V336h-4.9v-11.5h11.8V336
		h-4.8v2.1h5.2v1.9h-5.2v2.4H47V344.3z M39.1,329.3v-2.9h-2.8v2.9H39.1z M39.1,334.1V331h-2.8v3.1H39.1z M44,329.3v-2.9h-2.8v2.9H44
		z M44,334.1V331h-2.8v3.1H44z"/>
	<path class="st7" d="M69.9,328c0,4.3-0.1,7.7-0.3,10.3s-0.4,4.2-0.7,4.8s-0.7,1.1-1.3,1.3c-0.5,0.3-1.7,0.4-3.5,0.4
		c-0.5,0-1.1,0-1.6,0l-0.8-2.2c0.8,0,2.1,0.1,4,0.1c0.3,0,0.6-0.1,0.8-0.2c0.2-0.2,0.4-0.4,0.5-0.6s0.2-1.2,0.3-2.7s0.2-3.1,0.3-4.6
		l0.1-4.4h-7c-0.2,3.8-1,6.8-2.4,9s-3.6,4.1-6.6,5.9l-1.4-1.8c2.2-1.1,4.1-2.6,5.7-4.4c1.5-1.9,2.4-4.7,2.7-8.7h-7.6V328h7.7
		c0.1-1.2,0.1-2.6,0.1-4.1H61c0,1.2,0,2.6-0.1,4.1H69.9z"/>
</g>
<g>
	<path class="st9" d="M99.9,334.4h10.4v4.4H99.9V334.4z"/>
</g>
<g class="st4">
	<path class="st7" d="M12.4,99.3l-1.2,1.7c-1.2-1.5-2.4-2.8-3.6-3.8c-0.6,1.1-1.5,2.2-2.5,3.4h5.3v2H4.8v-1.5l-1.5,1.4l-1.3-1.6
		c2.3-2,4-4.2,5-6.6l2,0.6c-0.1,0.2-0.2,0.5-0.4,0.8C10,96.7,11.3,97.9,12.4,99.3z M11.6,106.2c0,0.1-0.3,0.8-0.9,2
		c-0.6,1.2-1.3,2.4-2.1,3.7c0.8,0.8,1.4,1.6,1.9,2.3L9,115.4c-1.6-2-3.4-3.8-5.6-5.6l1.5-1.2c0.7,0.5,1.4,1.1,2.2,1.9
		c0.9-1.4,1.7-2.8,2.3-4.2h-7v-2h9.2V106.2z M23,96.8h-4.2c-0.2,0.8-0.4,1.4-0.6,1.9h4v12.2h-6.4l1.3,1.1c-1.1,1.3-2.6,2.4-4.5,3.6
		l-1.3-1.6c1.6-0.8,3-1.8,4.2-3h-2.4V98.7h3c0.3-0.7,0.5-1.3,0.7-1.9h-4.4v-1.9H23V96.8z M20.1,102.1v-1.5H15v1.5H20.1z M20.1,105.4
		v-1.6H15v1.6H20.1z M20.1,108.9v-1.7H15v1.7H20.1z M23.1,113.9l-1.2,1.6c-1.1-0.9-2.4-1.8-4-2.7l1.2-1.5
		C20.7,112.1,22,113,23.1,113.9z"/>
	<path class="st7" d="M47.1,107l-0.6,1.8c-0.5,0-1.2,0-1.8,0c-0.7,0-1.3,0-1.8,0v1H47v1.7h-4.1v1.8c0,0.6-0.2,1.1-0.5,1.4
		c-0.3,0.3-0.7,0.5-1.2,0.6c-0.5,0-1.1,0.1-2,0.1c-0.5,0-1,0-1.5,0l-0.9-2l3.4,0c0.4,0,0.5-0.2,0.5-0.5v-1.4H26.1v-1.7h14.7v-1
		c-2.4,0.1-4.5,0-6.2-0.2c-1.7-0.2-3.3-0.7-4.6-1.6c-0.9,0.9-1.8,1.7-2.8,2.2l-1.3-1.5c1.9-0.9,3.1-2.2,3.7-4h-3.1v-1.7
		c1-0.7,1.9-1.5,2.7-2.4h-3V98h5.4v1.7c-0.5,0.6-1.2,1.5-2.3,2.4h2.3v1.7c-0.2,0.6-0.4,1.2-0.7,1.8c0.7,0.4,1.4,0.7,2.3,1
		c0.9,0.2,1.7,0.4,2.4,0.4c0.7,0.1,2.3,0.1,4.8,0.1C42,107.1,44.2,107.1,47.1,107z M31,96.4l-1.3,1.2c-0.7-0.7-1.7-1.4-3.1-2.2
		l1.3-1.3C29.2,94.9,30.3,95.7,31,96.4z M35.4,113.5l-1.2,1.6c-1.2-0.7-2.7-1.2-4.4-1.7l1.1-1.7C32.5,112.2,34,112.8,35.4,113.5z
		 M47,97.7h-6.4c-0.1,0.2-0.3,0.6-0.5,1h5.9v7.6H33.2v-7.6h4.5c0.2-0.3,0.4-0.6,0.5-1h-6.1v-1.5H47V97.7z M38.7,95.3L36.8,96
		c-0.9-0.5-1.7-0.9-2.4-1.1l1.9-0.8C37.2,94.4,38,94.8,38.7,95.3z M43.9,100.8V100h-8.5v0.7H43.9z M43.9,102.7V102h-8.5v0.8H43.9z
		 M43.9,104.8V104h-8.5v0.9H43.9z M44.9,94.9c-1,0.5-1.8,0.9-2.4,1.1l-1.9-0.8c0.9-0.3,1.6-0.7,2.3-1.2L44.9,94.9z"/>
	<path class="st7" d="M69.9,98.5c0,4.3-0.1,7.7-0.3,10.3s-0.4,4.2-0.7,4.8s-0.7,1.1-1.3,1.3c-0.5,0.3-1.7,0.4-3.5,0.4
		c-0.5,0-1.1,0-1.6,0l-0.8-2.2c0.8,0,2.1,0.1,4,0.1c0.3,0,0.6-0.1,0.8-0.2c0.2-0.2,0.4-0.4,0.5-0.6s0.2-1.2,0.3-2.7s0.2-3.1,0.3-4.6
		l0.1-4.4h-7c-0.2,3.8-1,6.8-2.4,9s-3.6,4.1-6.6,5.9l-1.4-1.8c2.2-1.1,4.1-2.6,5.7-4.4c1.5-1.9,2.4-4.7,2.7-8.7h-7.6v-2.1h7.7
		c0.1-1.2,0.1-2.6,0.1-4.1h2.2c0,1.2,0,2.6-0.1,4.1H69.9z"/>
</g>
<g>
	<path class="st9" d="M99.9,106.5h10.4v4.4H99.9V106.5z"/>
</g>
<g class="st4">
	<path class="st7" d="M30,826.4c-0.8,2.1-1.5,3.6-2.3,4.7l-1.7-1.3c0.8-1.2,1.5-2.6,2.2-4.3L30,826.4z M37,824.9h-4.4v7.9h-2.1v-7.9
		h-4.4v-2h4.4v-1.9h-4.1v-1.9h2.3c-0.2-0.8-0.6-1.7-1-2.7l1.4-0.7h-2.7v-1.9h3.8c-0.1-0.4-0.4-0.9-0.7-1.4l2.3-0.5
		c0.4,0.8,0.7,1.5,0.9,1.9h4v1.9h-2.6l1.5,0.8c-0.4,0.9-0.8,1.8-1.2,2.6h2.3v1.9h-4.1v1.9H37V824.9z M33.5,815.8h-3.9
		c0.5,1.2,0.9,2.3,1.2,3.4h1.3C32.7,818.1,33.2,817,33.5,815.8z M36.6,828.7l-1.7,1c-0.4-1.2-0.9-2.4-1.5-3.6l1.8-0.8
		C35.9,826.6,36.3,827.7,36.6,828.7z M46.7,821.2h-2.2v11.6h-2.1v-11.6h-2.4c0,5.4-0.9,9.3-2.7,11.6l-1.7-1.4
		c1.5-2.1,2.3-5.3,2.3-9.5v-8.1c2.6-0.4,4.9-0.9,6.7-1.8l1.4,1.8c-1.7,0.7-3.7,1.3-6,1.8v3.6h6.6V821.2z"/>
	<path class="st7" d="M59.5,827.1H51v-8c-0.1,0.2-0.3,0.3-0.5,0.5l-0.8-1.9c1.9-1.5,3.3-3.4,4.4-5.6l1.9,0.5
		c-0.2,0.5-0.4,0.9-0.6,1.3h3.6v1.8c-0.5,0.6-0.9,1.2-1.4,1.7h2V827.1z M52.7,828c-0.3,2-0.7,3.7-1.3,5.1l-1.7-0.8
		c0.6-1.6,1-3.2,1.2-4.8L52.7,828z M54.3,821.3v-2.2h-1.5v2.2H54.3z M54.3,825.2V823h-1.5v2.2H54.3z M56.2,815.6h-2
		c-0.2,0.3-0.6,0.9-1.3,1.7h2C55.5,816.6,55.9,816,56.2,815.6z M55,832.5l-1.7,0.2c0-1.6-0.1-3.1-0.3-4.6l1.6-0.1
		C54.8,829.5,55,831,55,832.5z M57.9,832l-1.7,0.4c-0.2-1.5-0.6-2.9-1-4.2l1.6-0.4C57.3,829.1,57.7,830.5,57.9,832z M57.6,821.3
		v-2.2h-1.5v2.2H57.6z M57.6,825.2V823h-1.5v2.2H57.6z M60.5,831.1l-1.5,0.5c-0.4-1.2-0.8-2.4-1.4-3.6l1.6-0.4
		C59.8,828.9,60.2,830.1,60.5,831.1z M70.4,828h-4.1v4.8h-2.1V828h-4.1v-1.9h4.1v-2.7h-3.5v-1.9h3.5V819h-3.8V817h9.9v1.9h-4v2.5
		h3.4v1.9h-3.4v2.7h4.1V828z M64.5,815.8l-1.9,0.9c-0.6-1.4-1.4-2.7-2.2-3.9l1.8-0.8C63,813,63.8,814.2,64.5,815.8z M70.2,812.7
		c-0.7,1.6-1.5,3-2.3,4.1l-1.9-0.9c0.8-1.1,1.5-2.4,2.3-3.9L70.2,812.7z"/>
	<path class="st7" d="M94.2,831.2l-1.4,1.7c-4.6-3.5-7.6-7.2-9.1-11c-1.1,4.3-4.2,7.9-9.1,10.9l-1.4-1.7c6.2-3.9,9.3-8.9,9.3-15.2
		v-3.8h2.2v4.9c0,2.6,0.9,5.1,2.6,7.6C89.2,827.1,91.4,829.3,94.2,831.2z"/>
</g>
<g>
	<g>
		<g>
			<path class="st10" d="M75.8,778v7.8c0,3.5-10.2,6.5-22.7,6.5s-22.7-3-22.7-6.7v-7.8h45.4V778z"/>
		</g>
	</g>
	<g>
		<g>
			<path class="st11" d="M53.1,786.2c-12.7,0-22.7-3.7-22.7-8.4s10.2-8.4,22.7-8.4s22.7,3.7,22.7,8.4S65.8,786.2,53.1,786.2z"/>
		</g>
	</g>
	<g>
		<g>
			<path class="st12" d="M52.9,758c-0.7,0-1.5,0.2-2.2,0.2c-11.4,0-20.5-9.1-20.5-20.3c0-1.5,0.2-3,0.6-4.5c0.7,0,1.5-0.2,2.2-0.2
				c11.4,0,20.5,9.1,20.5,20.3C53.5,755,53.3,756.5,52.9,758L52.9,758z"/>
		</g>
	</g>
	<g>
		<g>
			<path class="st13" d="M52.9,758c0.4-1.5,0.6-3,0.6-4.5c0-2.6-0.6-5-1.3-7.3c-1.9,3.2-3,6.7-3,10.8c0,0.4,0,0.7,0,1.1
				c0.6,0,1.1,0,1.7,0C51.4,758.2,52.2,758.2,52.9,758z"/>
		</g>
	</g>
	<g>
		<g>
			<path class="st14" d="M74.7,733.3c0.4,1.5,0.6,3,0.6,4.5c0,11.2-9.1,20.3-20.5,20.3c-0.7,0-1.5,0-2.2-0.2c-0.4-1.5-0.6-3-0.6-4.5
				c0-11.2,9.1-20.3,20.5-20.3C73.2,733.3,73.9,733.3,74.7,733.3L74.7,733.3z"/>
		</g>
	</g>
	<g>
		<g>
			<path class="st15" d="M65,745.9l-10.6,12.5v18.8c0,0.6-0.6,1.1-1.1,1.1c-0.6,0-1.1-0.6-1.1-1.1v-18.8l-11.4-12.5
				c-0.4-0.6-0.4-1.1,0-1.7c0.6-0.4,1.1-0.4,1.7,0l10.8,11.9l10.1-11.7c0.4-0.6,1.1-0.6,1.7-0.2C65.4,744.8,65.4,745.6,65,745.9z"/>
		</g>
	</g>
	<g>
		<g>
			<path class="st10" d="M48.4,779.1c0.6-2,2.4-3.5,4.7-3.5s4.1,1.5,4.7,3.5c0,0-1.3,0.9-4.7,0.9C49.7,780,48.4,779.1,48.4,779.1z"
				/>
		</g>
	</g>
</g>
</svg>
