<?xml version="1.0" encoding="utf-8"?>
<!-- Generator: Adobe Illustrator 20.0.0, SVG Export Plug-In . SVG Version: 6.00 Build 0)  -->
<svg version="1.1" id="d" xmlns="http://www.w3.org/2000/svg" xmlns:xlink="http://www.w3.org/1999/xlink" x="0px" y="0px"
	 viewBox="0 0 1056 427" style="enable-background:new 0 0 1056 427;" xml:space="preserve">
<style type="text/css">
	.st0{fill:#61CDFF;}
	.st1{fill:#27BBFF;}
	.st2{fill:#23A8E5;}
	.st3{fill:#008DCD;}
	.st4{enable-background:new    ;}
	.st5{fill:#FFFFFF;}
	.st6{fill:#777777;}
	.st7{fill:#555555;}
	.st8{fill:#DDDDDD;}
	.st9{fill:#999999;}
	.st10{fill:#874D20;}
	.st11{fill:#BA9052;}
	.st12{fill:#B1CD3E;}
	.st13{fill:#A3BC3B;}
	.st14{fill:#7E9822;}
	.st15{fill:#677C0F;}
</style>
<g>
	<path class="st0" d="M69,354.3l108-15l109.1,15V394H69V354.3z"/>
</g>
<g>
	<path class="st1" d="M295.7,242.6l108-15l109.1,15V395H295.7V242.6z"/>
</g>
<g>
	<path class="st2" d="M522.3,131.9l108-15l109.1,15V396H522.3V131.9z"/>
</g>
<g>
	<path class="st3" d="M748.9,79.6l107-15l110.1,15V394H748.9V79.6z"/>
</g>
<g class="st4">
	<path class="st5" d="M115.1,379.5h-4.5v1.9c0,1.1-0.2,1.7-1,2c-0.8,0.3-1.9,0.3-3.4,0.3c-0.1-0.6-0.4-1.5-0.7-2.1c1,0,2.1,0,2.4,0
		c0.3,0,0.4-0.1,0.4-0.3v-1.9h-5.6c0.8,0.6,1.7,1.3,2.1,1.8l-1.8,1.5c-0.6-0.8-1.9-1.9-3-2.7l0.8-0.7h-4v-1.9h11.4v-0.7
		c-3.9,0.1-7.7,0.1-10.5,0.2l-0.1-1.7c1.9,0,4.3,0,7,0v-0.7H99v-5.8h5.8v-0.7h-7.3v-1.8h7.3v-1.3h2.3v1.3h7.3v1.8h-7.3v0.7h6v5.8
		h-1.3c1,0.5,1.9,1.1,2.6,1.6l-1.5,1.2c-0.2-0.2-0.5-0.4-0.8-0.7l-1.5,0v0.8h4.5V379.5z M101.2,371h3.5v-0.7h-3.5V371z M104.8,373.2
		v-0.8h-3.5v0.8H104.8z M107.1,370.3v0.7h3.7v-0.7H107.1z M110.8,373.2v-0.8h-3.7v0.8H110.8z M107.1,375.3l2.5,0
		c-0.3-0.1-0.6-0.3-0.8-0.4l0.4-0.3h-2.1V375.3z"/>
	<path class="st5" d="M124.7,380.6c-1.4,1.1-3.8,2.2-5.8,2.7c-0.3-0.5-0.9-1.3-1.4-1.7c2-0.3,4.3-1,5.5-1.7L124.7,380.6z
		 M135.3,377.2v2h-7.8v4.6h-2.4v-4.6h-7.6v-2h7.6v-0.9h-5.8v-1.7h5.8v-0.9h-6.8v-1.8h3.7c-0.2-0.5-0.5-1-0.7-1.5l1.3-0.3h-5.1v-1.9
		h2.7c-0.3-0.8-0.8-1.7-1.3-2.5l2-0.7c0.6,0.8,1.3,2,1.5,2.8l-1,0.4h1.8v-3.3h2.2v3.3h1.5v-3.3h2.2v3.3h1.8l-0.7-0.2
		c0.5-0.8,1-2,1.3-2.9l2.5,0.6c-0.6,0.9-1.1,1.8-1.6,2.5h2.6v1.9h-5.3l1.9,0.5c-0.4,0.5-0.9,0.9-1.2,1.3h3.9v1.8h-6.9v0.9h6v1.7h-6
		v0.9H135.3z M123.7,370.2c0.3,0.5,0.6,1.1,0.8,1.5l-1.1,0.3h5.5l-0.7-0.2c0.3-0.5,0.7-1.1,1-1.5H123.7z M130,379.7
		c1.6,0.6,4,1.6,5.3,2.2l-1.7,1.3c-1.2-0.7-3.5-1.7-5.2-2.4L130,379.7z"/>
	<path class="st5" d="M143.5,375.2c0,0.3-0.1,0.6-0.1,0.8c1,1,3.2,3.5,3.8,4.2l-1.6,2c-0.7-1-1.8-2.5-2.8-3.8
		c-0.7,2-1.9,3.8-3.8,5.2c-0.3-0.5-1.2-1.4-1.7-1.8c2.6-1.9,3.5-4.4,3.8-6.7h-3.5V373h3.7v-0.5v-2.7h-0.8c-0.4,1-0.9,1.9-1.4,2.7
		c-0.4-0.4-1.4-1.1-1.9-1.4c1.1-1.4,1.8-3.7,2.2-6l2.3,0.5c-0.1,0.7-0.3,1.4-0.5,2.1h5.3v2.2h-2.8v2.7v0.5h3.3v2.2H143.5z
		 M155.1,366.8v16.1h-2.4v-1.1h-2.9v1.4h-2.3v-16.4H155.1z M152.7,379.5V369h-2.9v10.5H152.7z"/>
	<path class="st5" d="M160.8,368.4h3.1v1.9h-5.8v-1.9h2.4c-0.2-0.7-0.7-1.8-1.1-2.7l1.7-0.6c0.5,0.8,1.1,2,1.3,2.6L160.8,368.4z
		 M163.5,373h-4.8v-1.8h4.8V373z M158.7,373.9h4.8v1.8h-4.8V373.9z M163.6,382.6h-3.2v0.8h-1.7v-6.8h4.8V382.6z M160.4,378.5v2.4
		h1.5v-2.4H160.4z M176,374.5c-0.6,1.8-1.4,3.4-2.3,4.9c0.2,1,0.4,1.6,0.7,1.6c0.2,0,0.4-0.9,0.5-2.4c0.3,0.5,1.2,1.1,1.5,1.3
		c-0.5,3.1-1.4,3.8-2.1,3.8c-0.9,0-1.6-0.8-2.1-2.3c-0.8,0.9-1.7,1.7-2.6,2.3c-0.3-0.4-0.9-1-1.3-1.3c0.4-0.3,0.8-0.6,1.2-0.9h-1.2
		V381h-1.8v1.4h-1.9v-8.7h5.6v7c0.5-0.5,1-1.1,1.4-1.7c-0.3-1.7-0.6-3.7-0.8-6.1H164v-2h1.2c-0.1-0.6-0.2-1.3-0.4-1.9l1.6-0.3
		c0.2,0.7,0.4,1.5,0.5,2.2h0.7c0.2-0.7,0.3-1.6,0.4-2.2l1.8,0.3c-0.2,0.7-0.4,1.4-0.6,1.9h1.5c-0.1-1.8-0.2-3.8-0.2-5.9h2.1
		c0,2,0.1,4,0.2,5.9h3.4v2H173c0.1,1.2,0.2,2.3,0.3,3.3c0.4-0.8,0.7-1.7,1-2.7L176,374.5z M170.2,368.8h-5.9V367h2.2
		c-0.2-0.5-0.4-1-0.6-1.4l1.8-0.5c0.3,0.6,0.7,1.3,0.9,1.9h1.7V368.8z M166.5,375.3v1.2h1.8v-1.2H166.5z M168.3,379.4v-1.3h-1.8v1.3
		H168.3z M174.2,370.5c-0.2-0.9-0.8-2.4-1.4-3.6l1.7-0.7c0.6,1.1,1.2,2.6,1.5,3.5L174.2,370.5z"/>
	<path class="st5" d="M185.2,375.7c-0.7,0.2-1.4,0.4-2.1,0.6v4.8c0,1.2-0.2,1.7-0.9,2.1c-0.7,0.4-1.6,0.4-3,0.4
		c-0.1-0.6-0.4-1.5-0.7-2.2c0.8,0,1.6,0,1.9,0c0.3,0,0.4-0.1,0.4-0.4V377l-1.9,0.5l-0.6-2.3c0.7-0.1,1.6-0.3,2.6-0.6v-3.5h-2.3v-2.2
		h2.3v-3.8h2.4v3.8h2v2.2h-2v3l1.8-0.5L185.2,375.7z M196.3,373c-0.8,2.8-2,5-3.7,6.6c1.3,0.9,2.8,1.6,4.6,2
		c-0.5,0.5-1.2,1.4-1.5,2.1c-1.9-0.6-3.6-1.4-5-2.5c-1.6,1.1-3.3,1.9-5.3,2.5c-0.3-0.6-0.8-1.6-1.3-2.2c1.8-0.4,3.4-1.1,4.8-2
		c-1.2-1.3-2.1-2.9-2.8-4.8l0.6-0.2h-1v-2.1h3.9v-2.4h-4.3v-2.2h4.3V365h2.4v2.9h4.5v2.2h-4.5v2.4h2.4l0.4-0.1L196.3,373z
		 M188.4,374.6c0.6,1.3,1.4,2.5,2.4,3.5c1-1,1.9-2.2,2.5-3.5H188.4z"/>
	<path class="st5" d="M207.4,381.5c0,1-0.2,1.5-0.8,1.8c-0.6,0.3-1.5,0.3-2.8,0.3c-0.1-0.6-0.4-1.3-0.7-1.9c0.7,0,1.5,0,1.7,0
		c0.3,0,0.3-0.1,0.3-0.3v-2c-1,0.7-2,1.4-2.9,2l-0.5-1.4c-0.2,1.4-0.7,2.7-1.4,3.8c-0.3-0.5-1.2-1.3-1.7-1.6
		c1.1-1.6,1.1-3.8,1.1-5.5v-4.5h7.6V381.5z M206.3,366.5c0.8,1.4,1.9,3.4,2.4,4.6l-2.1,0.8c-0.1-0.4-0.3-0.8-0.5-1.3
		c-5.1,0.5-5.9,0.6-6.5,0.9c-0.1-0.5-0.5-1.5-0.7-2.1c0.4-0.1,0.7-0.4,1.1-0.8c0.4-0.4,1.6-2,2.4-3.6l2.4,0.7
		c-0.7,1.2-1.6,2.3-2.5,3.3l2.9-0.2c-0.3-0.6-0.6-1.1-0.8-1.6L206.3,366.5z M202.1,376.7c0,0.8,0,1.7-0.1,2.6c0.9-0.4,2.1-1,3.3-1.6
		V377l-1,0.9c-0.5-0.5-1.4-1.3-2.2-1.9V376.7z M202.1,374.2v1.4l1-0.9c0.7,0.5,1.5,1.2,2.1,1.7v-2.3H202.1z M211.9,373.9
		c-2.4,0-3-0.9-3-3.1v-5.7h2.4v2.4h4.9v2h-4.9v1.3c0,0.7,0.1,1,0.8,1h2.9c0.6,0,1.4-0.1,1.8-0.2c0,0.6,0.1,1.5,0.2,2
		c-0.4,0.1-1.3,0.2-2,0.2H211.9z M214.5,381.5c0.7,0,0.8-0.3,0.9-2.2c0.5,0.4,1.4,0.7,2.1,0.9c-0.2,2.6-0.9,3.4-2.8,3.4h-2.8
		c-2.4,0-2.9-0.7-2.9-2.9v-6.3h2.4v2h5.1v2.1h-5.1v2.2c0,0.7,0.1,0.8,0.9,0.8H214.5z"/>
	<path class="st5" d="M237.4,380.1h-7.6v1.4c0,1.1-0.2,1.6-1.1,1.9c-0.8,0.3-1.9,0.3-3.4,0.3c-0.1-0.6-0.4-1.4-0.7-2
		c0.9,0,2.1,0,2.4,0c0.3,0,0.4-0.1,0.4-0.3v-1.4h-8.1v-1.9h8.1v-0.6c0.7-0.3,1.5-0.7,2.2-1.2h-6.4v-1.7h8.7l0.5-0.1l1.3,1.2
		c-1.1,0.8-2.5,1.6-3.8,2.3h7.5V380.1z M221.9,376.3h-2.3v-4.1h1.5l-0.4-5.9c1.2-0.2,3-0.7,4-1.1l1,1.4c-0.8,0.3-1.8,0.6-2.7,0.8
		l0,0.6h2.5v1.5h-2.5l0,0.7h2.5v1c0.5-0.2,1-0.5,1.4-0.8c-0.4-0.2-0.8-0.5-1.1-0.7l1.1-0.9c0.4,0.2,0.8,0.4,1.2,0.7
		c0.3-0.3,0.6-0.6,0.8-0.8l1.6,0.5c-0.3,0.4-0.7,0.8-1.1,1.2c0.5,0.3,0.9,0.6,1.2,0.9l-1.2,1c-0.3-0.3-0.7-0.6-1.2-1
		c-0.5,0.4-1.1,0.7-1.6,1h6.5l0.1-0.7h-2.4V370h2.5l0-0.7h-2.4v-1.5h2.5l0-0.7H231v-1.5h5c-0.1,2.1-0.2,4.6-0.4,6.5h1.5v4.1h-2.4
		v-2.4h-12.8V376.3z M223.4,372.2h3.2c-0.2-0.3-0.6-0.6-0.9-0.9v0.2h-2.4L223.4,372.2z M229.6,368.5c-0.3-0.3-0.6-0.5-1-0.8
		c-0.5,0.4-1.1,0.7-1.6,1c-0.3-0.3-0.9-0.8-1.2-1.1c0.5-0.2,1-0.5,1.5-0.8c-0.4-0.2-0.7-0.4-1.1-0.6l1.1-0.9
		c0.4,0.2,0.8,0.4,1.2,0.6c0.3-0.3,0.5-0.5,0.7-0.8l1.6,0.5c-0.3,0.4-0.6,0.8-1,1.1c0.4,0.3,0.8,0.6,1,0.8L229.6,368.5z"/>
	<path class="st5" d="M246,371.4c-1.6,0.9-3.4,1.9-4.9,2.7l-0.8-1.9c1.3-0.5,3.3-1.5,5.2-2.4L246,371.4z M256.6,372.2
		c0,1-0.2,1.5-0.8,1.8c-0.6,0.3-1.5,0.3-2.7,0.3c-0.1-0.6-0.3-1.3-0.5-1.9c0.6,0,1.3,0,1.5,0s0.3-0.1,0.3-0.3v-4.5h-3.9
		c0.9,0.4,2.1,0.9,2.8,1.2l-0.9,1.4l1.5-0.7l0.5,1.6c-1.6,0.9-3.3,1.9-4.8,2.6l0.5,0.1c-0.3,0.5-0.5,1-0.8,1.5h6.3v8.4h-2.5v-0.7
		h-8.6v0.7h-2.4v-8.4h4.7c0.2-0.4,0.3-0.9,0.4-1.3c-0.6,0.2-1.5,0.2-2.6,0.2c-0.1-0.6-0.3-1.3-0.5-1.9c0.6,0,1.3,0,1.5,0
		c0.2,0,0.3-0.1,0.3-0.3v-4.5h-3.9c0.9,0.4,2.1,0.9,2.8,1.2l-1.1,1.6c-0.7-0.4-2-1.1-3-1.5l0.9-1.3h-1.4v-1.9h7.9v6.4
		c0,0.6-0.1,1.1-0.3,1.4l1.4,0.2l-0.8-1.8c0.9-0.4,2.1-0.9,3.5-1.6c-0.7-0.4-2-1-2.9-1.4l0.9-1.3h-1.2v-1.9h7.7V372.2z M253.1,377.2
		h-8.6v1.1h8.6V377.2z M253.1,381.3v-1.2h-8.6v1.2H253.1z"/>
</g>
<g class="st4">
	<path class="st6" d="M144.8,290.4v0.9h-2.7l-0.1,1.4h-9.2l0.2-1.4h-2.5v-0.9h2.7l0.2-1.3h9.1l-0.1,1.3H144.8z M139.2,298.3
		c1.8,0.5,3.8,1,5,1.5l-0.8,0.8c-1.1-0.4-3-1.1-4.9-1.6L139.2,298.3h-3.6l0.9,0.6c-1.3,0.7-3.5,1.3-5.2,1.6
		c-0.1-0.2-0.4-0.6-0.6-0.8c1.7-0.3,3.8-0.8,4.9-1.4h-3.1v-5h10.1v5H139.2z M132,289.9h-1.1v-2.5h6.2c-0.2-0.4-0.5-0.8-0.7-1.2
		l1-0.3c0.4,0.4,0.7,1,0.9,1.5h5.9v2.5h-1.1v-1.6H132V289.9z M133.7,294.8h7.8v-0.7h-7.8V294.8z M133.7,296.2h7.8v-0.7h-7.8V296.2z
		 M133.7,297.6h7.8v-0.8h-7.8V297.6z M133.9,292h3c0-0.3,0.1-0.5,0.1-0.8h-3L133.9,292z M134.2,289.7l-0.1,0.7h3l0-0.7H134.2z
		 M140.9,292l0.1-0.8h-3c0,0.3-0.1,0.5-0.1,0.8H140.9z M141.1,289.7h-3l-0.1,0.7h3L141.1,289.7z"/>
	<path class="st6" d="M151.3,286.3c-0.4,1.2-1,2.3-1.6,3.4v10.7h-1.2v-8.9c-0.5,0.7-1,1.3-1.6,1.9c-0.1-0.3-0.5-0.9-0.7-1.2
		c1.6-1.5,3.1-3.9,4-6.4L151.3,286.3z M156,289.7v2.3h4.6v1.1H156v2.4h4.8v1.1H156v3.9h-1.2v-10.8h-1.1c-0.7,1.3-1.5,2.4-2.3,3.3
		c-0.2-0.2-0.7-0.6-0.9-0.8c1.4-1.5,2.7-3.8,3.5-6.1l1.1,0.3c-0.3,0.7-0.6,1.5-0.9,2.2h6.7v1.1H156z"/>
	<path class="st6" d="M167,295.5c0-0.2-0.1-0.5-0.2-0.8c-3.4,0.5-3.9,0.6-4.2,0.8c-0.1-0.2-0.2-0.8-0.4-1.1c0.4-0.1,0.7-0.5,1.2-1.1
		c0.2-0.3,0.7-1,1.3-1.8c-1.6,0.2-2,0.3-2.2,0.4c-0.1-0.2-0.2-0.8-0.4-1.1c0.3-0.1,0.5-0.4,0.9-0.9c0.3-0.5,1.5-2.3,2.1-4l1.1,0.4
		c-0.7,1.5-1.6,3.1-2.4,4.3l1.6-0.1c0.4-0.7,0.8-1.4,1.2-2.1l1,0.6c-1,1.8-2.3,3.7-3.6,5.2l2.5-0.3c-0.2-0.5-0.4-1.1-0.5-1.6
		l0.9-0.2c0.4,1,0.9,2.4,1,3.3L167,295.5z M164,296.3c-0.2,1.4-0.5,2.9-0.8,3.9c-0.2-0.1-0.7-0.3-0.9-0.4c0.4-1,0.6-2.4,0.8-3.7
		L164,296.3z M165.5,296.1c0.2,1.1,0.4,2.4,0.4,3.4l-1,0.2c0-0.9-0.2-2.3-0.4-3.4L165.5,296.1z M167,295.7c0.3,0.8,0.7,2,0.8,2.7
		l-0.9,0.3c-0.1-0.7-0.5-1.9-0.8-2.7L167,295.7z M176.8,299.1v1.1h-9.1v-1.1h4.1v-3h-3.2V295h7.6v1.1h-3.2v3H176.8z M169.9,294.4
		c-0.3-0.8-1.1-2.1-1.9-3.2c0.6-1,1.3-2.2,1.7-2.9l1,0.3c-0.4,0.8-1,1.8-1.6,2.6c0.7,0.9,1.4,2,1.8,2.8L169.9,294.4z M176.6,287.8
		h-8.4v-1.1h8.4V287.8z M173.5,288.6c-0.4,0.8-1.1,1.8-1.6,2.6c0.7,0.9,1.4,2,1.8,2.7l-1,0.4c-0.4-0.8-1.1-2.1-2-3.1
		c0.6-1,1.4-2.2,1.7-2.9L173.5,288.6z M175.6,294.4c-0.4-0.8-1.2-2.1-2.2-3.2c0.7-1,1.4-2.2,1.8-2.9l1.1,0.3
		c-0.5,0.8-1.1,1.8-1.6,2.6c0.8,0.9,1.5,2,1.9,2.7L175.6,294.4z"/>
	<path class="st6" d="M178.1,299.2c0.3-0.9,0.6-2.4,0.7-3.5l0.7,0.2c-0.1,1.1-0.4,2.6-0.7,3.6L178.1,299.2z M184.3,294.4
		c-0.1,3.9-0.2,5.2-0.6,5.7c-0.2,0.3-0.4,0.4-0.8,0.4c-0.3,0-0.8,0-1.2,0c0-0.3-0.1-0.7-0.3-0.9c0.5,0,0.9,0,1.1,0
		c0.2,0,0.3,0,0.4-0.2c0.2-0.3,0.3-1.4,0.4-4.5H179v-8.3h5.3v1h-2v1.5h1.7v0.9h-1.7v1.4h1.7v0.9h-1.7v1.5h2V294.4z M180.4,295.9
		c0.1,0.9,0.2,2.1,0.2,2.9l-0.6,0.1c0-0.8-0.1-2-0.2-2.9L180.4,295.9z M179.9,287.6v1.5h1.4v-1.5H179.9z M181.4,290.1h-1.4v1.4h1.4
		V290.1z M179.9,293.9h1.4v-1.5h-1.4V293.9z M181.3,295.7c0.3,0.8,0.5,1.9,0.6,2.6l-0.6,0.1c-0.1-0.7-0.4-1.8-0.6-2.6L181.3,295.7z
		 M182.6,297.7c-0.2-0.6-0.6-1.4-0.9-2.1l0.5-0.2c0.3,0.7,0.8,1.5,0.9,2.1L182.6,297.7z M186.2,289.7c-0.4,0.3-0.9,0.7-1.4,1
		c-0.2-0.2-0.5-0.6-0.8-0.7c1.8-1,3.4-2.6,4.3-4.1l1.1,0.3c-0.1,0.2-0.2,0.4-0.3,0.5c1,1.1,2.5,2.3,3.9,2.9c-0.2,0.3-0.4,0.7-0.5,1
		c-0.5-0.3-1-0.6-1.5-1v0.9h-4.8V289.7z M187.2,296.1c-0.1,0.4-0.2,0.9-0.4,1.3c0.7,0.4,1.4,1,1.8,1.4l-0.6,0.8
		c-0.3-0.4-0.9-0.8-1.5-1.3c-0.4,0.9-1,1.7-1.6,2.3c-0.2-0.2-0.6-0.5-0.8-0.7c1.1-0.9,1.8-2.3,2.1-4L187.2,296.1z M185,291.7h3.2
		v3.7H185V291.7z M185.8,294.6h1.4v-2h-1.4V294.6z M190.8,289.5c-0.8-0.6-1.7-1.4-2.3-2.1c-0.6,0.8-1.3,1.5-2,2.1H190.8z M191.2,296
		c-0.1,0.6-0.3,1.2-0.5,1.7c0.8,0.5,1.6,1.2,2.1,1.7l-0.7,0.8c-0.4-0.4-1.1-1.1-1.8-1.6c-0.4,0.7-0.9,1.4-1.4,1.9
		c-0.2-0.2-0.6-0.5-0.9-0.7c1.1-0.9,1.8-2.3,2.1-4L191.2,296z M188.9,291.7h3.3v3.7h-3.3V291.7z M189.8,294.6h1.5v-2h-1.5V294.6z"/>
	<path class="st6" d="M199.2,297.7c-1,0.9-2.6,1.9-3.8,2.5c-0.2-0.2-0.7-0.6-0.9-0.8c1.3-0.5,2.8-1.3,3.7-2.1L199.2,297.7z
		 M202.2,296.5v2.8c0,0.6-0.1,0.9-0.6,1.1c-0.5,0.2-1.2,0.2-2.3,0.2c0-0.3-0.3-0.8-0.4-1.1c0.8,0,1.6,0,1.8,0s0.3,0,0.3-0.2v-2.7
		c-4.4,0.2-5,0.3-5.5,0.4c0-0.2-0.2-0.8-0.3-1.1c0.5,0,1.2-0.3,2.1-0.6c0.5-0.1,1.6-0.6,2.8-1.1c-3,0.2-3.4,0.3-3.7,0.4
		c0-0.2-0.2-0.8-0.3-1c0.3,0,0.7-0.2,1.1-0.4c0.3-0.1,1.2-0.6,2.1-1.2h-3.4v-5.4h11.6v5.4h-6.5c-0.8,0.6-1.6,1-2.4,1.5l3.6-0.2
		c0.6-0.3,1.3-0.7,1.9-1.1l0.9,0.7c-2,1.2-4,2.1-6,2.8l6.5-0.3c-0.4-0.4-0.9-0.8-1.3-1.1l0.8-0.6c1.1,0.8,2.4,2.1,3,2.9l-0.9,0.7
		c-0.2-0.3-0.5-0.6-0.8-1L202.2,296.5z M196.9,288.7h4v-1.3h-4V288.7z M196.9,291h4v-1.3h-4V291z M206.3,287.4h-4.1v1.3h4.1V287.4z
		 M206.3,289.6h-4.1v1.3h4.1V289.6z M204.4,297.3c1.3,0.6,3.1,1.6,4,2.3l-0.9,0.7c-0.8-0.7-2.5-1.7-3.9-2.4L204.4,297.3z"/>
	<path class="st6" d="M215.4,295.6c-0.3-0.4-0.9-1.3-1.4-1.9v6.9h-1.2v-7c-0.6,1.6-1.5,3.2-2.3,4.1c-0.1-0.3-0.4-0.8-0.6-1.1
		c1-1.1,2.1-3.2,2.8-5.1h-2.4v-1.1h2.4v-2.4c-0.7,0.1-1.5,0.3-2.2,0.3c0-0.3-0.2-0.7-0.4-0.9c1.7-0.3,3.8-0.7,4.9-1.2l0.8,0.9
		c-0.6,0.2-1.3,0.4-2,0.6v2.7h1.7v-0.3h3.9v-0.9h-3v-0.8h3v-0.8h-3.4v-0.8h3.4v-0.9h1.2v0.9h3.6v0.8h-3.6v0.8h3.2v0.8h-3.2v0.9h4
		v0.8h-9v0.6H214v1c0.5,0.5,1.8,1.8,2.1,2.2L215.4,295.6z M219.6,298.7c-0.9,0.8-2.5,1.5-3.8,1.9c-0.2-0.2-0.5-0.6-0.8-0.8
		c1.3-0.4,2.8-1.1,3.6-1.8L219.6,298.7z M216.8,298v-6.3h7.1v6.3H216.8z M217.9,293.5h4.9v-1h-4.9V293.5z M217.9,295.3h4.9v-1h-4.9
		V295.3z M217.9,297.2h4.9v-1.1h-4.9V297.2z M221.9,298.1c1.1,0.6,2.3,1.3,3.1,1.9l-1,0.6c-0.6-0.5-1.8-1.2-2.8-1.8L221.9,298.1z"/>
</g>
<g class="st4">
	<path class="st6" d="M119.6,317.9c0,0,0,0.4,0,0.5c-0.2,3.6-0.4,5-0.9,5.5c-0.3,0.3-0.6,0.4-1,0.5c-0.4,0-1.1,0-1.9,0
		c0-0.3-0.1-0.8-0.3-1.1c0.7,0.1,1.4,0.1,1.7,0.1c0.3,0,0.4,0,0.5-0.2c0.3-0.3,0.5-1.4,0.7-4.2h-4c0.2-1.2,0.5-3.1,0.6-4.6h3.3v-2.6
		h-3.8v-1.1h4.9v4.8h-3.5c-0.1,0.8-0.2,1.6-0.3,2.4H119.6z M127.9,324.6c-0.1-0.3-0.3-0.7-0.5-1.1c-2.8,0.2-5.6,0.4-7.6,0.6
		l-0.2-1.2c1,0,2.4-0.1,3.9-0.2v-2.4h-3.2v-4.2h3.2v-1.6h1.2v1.6h3.3v4.2h-3.3v2.3l2.2-0.1c-0.3-0.5-0.6-1-0.9-1.4l1-0.4
		c0.8,1.1,1.7,2.5,2,3.4L127.9,324.6z M127.7,315.2c-0.2-0.3-0.4-0.7-0.7-1.1c-5.6,0.5-6.2,0.6-6.6,0.7c-0.1-0.2-0.3-0.8-0.4-1
		c0.3,0,0.5-0.3,0.8-0.7c0.3-0.4,1.4-1.8,2-3.1l1.2,0.3c-0.7,1.2-1.6,2.4-2.4,3.3l4.7-0.4c-0.4-0.5-0.8-1-1.2-1.4l0.8-0.5
		c1,1,2.1,2.4,2.6,3.3L127.7,315.2z M123.5,319.4v-2.2h-2.2v2.2H123.5z M124.7,317.2v2.2h2.2v-2.2H124.7z"/>
	<path class="st6" d="M135.7,310.3c-0.5,1-1,2.1-1.6,3v11.2h-1.2v-9.5c-0.7,0.9-1.4,1.7-2.2,2.4c-0.1-0.3-0.5-0.9-0.7-1.2
		c1.7-1.5,3.5-3.9,4.5-6.3L135.7,310.3z M142.4,322.9c0.9,0,1-0.7,1.2-3.4c0.3,0.2,0.8,0.5,1.1,0.5c-0.2,3-0.5,4-2.2,4h-3
		c-1.6,0-2.1-0.5-2.1-2.2v-11.7h1.2v4.4h5.7v1.2h-5.7v6.2c0,0.8,0.2,1,1,1H142.4z"/>
	<path class="st6" d="M160.8,315.3h-1.5v7.7c0,0.7-0.2,1.1-0.7,1.3c-0.5,0.2-1.2,0.2-2.5,0.2c-0.1-0.3-0.3-0.8-0.4-1.1
		c1,0,1.8,0,2.1,0c0.3,0,0.4-0.1,0.4-0.4v-7.7h-3.8v-0.9h-7.9v-1h2.4v-0.8l-0.8,0.5c-0.3-0.6-0.9-1.5-1.5-2.1l0.8-0.5
		c0.6,0.6,1.2,1.4,1.5,2v-2.5h1v3.4h1.2v-3.4h1v2.6c0.5-0.6,1.1-1.5,1.5-2.1l1,0.5c-0.6,0.7-1.2,1.6-1.8,2.1l-0.6-0.4v0.7h2.4v0.8
		h3.7V310h1.2v4.2h1.5V315.3z M150.9,322.2c1.1-0.2,2.2-0.3,3.4-0.5l0,1.1c-2.8,0.4-5.8,0.8-7.8,1.1l-0.2-1.1c1-0.1,2.2-0.3,3.5-0.4
		v-1.9h-2.5v-1h2.5v-1.6h-2.9v-1h4.1c0.4-0.7,0.8-1.6,1.1-2.3l1.1,0.4c-0.3,0.6-0.7,1.3-1.1,1.9h1.8v1h-2.9v1.6h2.6v1h-2.6V322.2z
		 M148.6,314.4c0.5,0.5,1,1.3,1.2,1.8l-0.9,0.5c-0.2-0.5-0.7-1.3-1.2-1.9L148.6,314.4z M156.1,320.6c-0.2-1-0.8-2.5-1.4-3.7l1-0.4
		c0.7,1.2,1.3,2.6,1.5,3.6L156.1,320.6z"/>
	<path class="st6" d="M172.1,311.7c1.6,1.4,3.4,3.3,4.2,4.6l-1,0.7c-0.2-0.4-0.6-0.9-1-1.4c-9.1,0.5-10.1,0.5-10.7,0.8
		c0-0.3-0.3-0.8-0.4-1.2c0.4-0.1,0.8-0.4,1.3-0.9c0.6-0.5,2.4-2.5,3.7-4.5l1.2,0.5c-1.3,1.7-2.7,3.4-4.1,4.7l8.2-0.4
		c-0.7-0.8-1.6-1.7-2.3-2.4L172.1,311.7z M164.5,317.8h10.2v6.7h-1.2v-0.8h-7.7v0.9h-1.2V317.8z M165.7,319v3.5h7.7V319H165.7z"/>
	<path class="st6" d="M182.2,317.6c-0.3,1.4-0.8,2.9-1.3,4.1c0.3,0.2,0.7,0.5,1.3,0.8c1.1,0.7,2.6,0.8,4.5,0.8c2,0,4.6-0.2,6.4-0.3
		c-0.2,0.3-0.3,0.9-0.4,1.2c-1.2,0.1-4.2,0.2-6.1,0.2c-2.1,0-3.5-0.2-4.7-0.9c-0.6-0.4-1.2-0.9-1.6-0.9c-0.4,0-0.9,1-1.3,2l-0.8-1.1
		c0.6-0.8,1.1-1.5,1.6-1.8c0.5-0.9,0.9-2.2,1.2-3.3h-2.1c0.4-0.9,0.9-2.3,1.4-3.6h-1.8v-1.1h3.3c-0.4,1.2-0.9,2.5-1.3,3.6h1.1l0.2,0
		L182.2,317.6z M180,312.9c-0.2-0.7-0.6-1.8-0.8-2.6l1-0.3c0.3,0.8,0.7,1.9,0.8,2.6L180,312.9z M185.1,314.1h-2.7v-0.9h4.5V312h-3.5
		v-0.9h3.5v-1.2h1.2v1.2h3.6v0.9H188v1.2h4.6v0.9h-2.8l0.7,0.2c-0.3,0.5-0.6,1.1-0.9,1.5h2.8v0.9H188v1.1h3.8v0.9H188v1.2h4.5v0.9
		H188v1.6h-1.2v-1.6h-4.3v-0.9h4.3v-1.2h-3.6v-0.9h3.6v-1.1h-4.2v-0.9h2.3c-0.1-0.4-0.4-1.1-0.7-1.6L185.1,314.1z M188.7,315.7
		c0.2-0.4,0.5-1.1,0.7-1.6h-4c0.3,0.5,0.6,1.1,0.7,1.6l-0.6,0.2h3.6L188.7,315.7z"/>
	<path class="st6" d="M199.9,313.6h-5.6v-1h5.6V313.6z M199.5,315.7h-4.8v-0.9h4.8V315.7z M194.7,316.8h4.8v1h-4.8V316.8z
		 M199.4,323.6h-3.7v0.7h-1V319h4.8V323.6z M195.7,320v2.7h2.7V320H195.7z M196.9,312.5c-0.2-0.6-0.6-1.5-1-2.2l1-0.4
		c0.4,0.7,0.8,1.5,1.1,2.1L196.9,312.5z M199.4,322.6c0.5-0.9,0.9-2.3,1.1-3.4l0.8,0.3c-0.2,1.2-0.6,2.6-1.1,3.5L199.4,322.6z
		 M204.9,311.6c-0.3,2.9-1.1,5.3-4,6.6c-0.1-0.3-0.4-0.7-0.7-0.8c1.4-0.6,2.3-1.5,2.8-2.5c-0.6-0.6-1.6-1.5-2.3-2.1l0.6-0.7
		c0.7,0.5,1.5,1.2,2.1,1.7c0.2-0.7,0.3-1.4,0.4-2.2h-3.3v-1h7.8c0,0,0,0.4,0,0.5c-0.2,4.1-0.4,5.5-0.7,6c-0.3,0.3-0.6,0.4-1,0.5
		c-0.4,0-1.1,0-1.8,0c0-0.3-0.1-0.8-0.3-1.1c0.7,0.1,1.4,0.1,1.7,0.1c0.3,0,0.4,0,0.5-0.2c0.3-0.3,0.4-1.5,0.5-4.8H204.9z
		 M205.4,323.2c0.5,0,0.6-0.3,0.7-2.1c0.2,0.2,0.7,0.3,0.9,0.4c-0.1,2.2-0.4,2.7-1.5,2.7h-2.1c-1.3,0-1.6-0.3-1.6-1.4v-3.9h1v3.9
		c0,0.4,0.1,0.5,0.7,0.5H205.4z M203.9,317.7c0.7,0.7,1.4,1.7,1.8,2.3l-0.8,0.5c-0.3-0.6-1.1-1.6-1.7-2.4L203.9,317.7z M207.6,318.6
		c0.6,1.1,1.2,2.4,1.4,3.3l-0.9,0.4c-0.2-0.9-0.8-2.3-1.3-3.4L207.6,318.6z"/>
	<path class="st6" d="M224.1,323c0,0.7-0.2,1.1-0.7,1.3c-0.5,0.2-1.3,0.2-2.7,0.2c0-0.3-0.2-0.8-0.4-1.2c1,0,1.9,0,2.2,0
		c0.3,0,0.4-0.1,0.4-0.4v-11.2h-10.8v12.7H211v-13.8h13.1V323z M221.6,314.6h-8.1v-1h8.1V314.6z M215.5,321.3v1.2h-1.1v-6.2h6.4v5.1
		H215.5z M215.5,317.3v3h4.2v-3H215.5z"/>
	<path class="st6" d="M240.1,313.6c-0.6,1.6-1.4,3-2.4,4.1c0.5,3.4,1.2,5.7,1.9,5.7c0.3,0,0.4-0.8,0.5-2.7c0.2,0.3,0.6,0.5,0.9,0.6
		c-0.2,2.4-0.5,3.2-1.5,3.2c-1.3,0-2.2-2.4-2.8-5.8c-0.5,0.4-1,0.8-1.5,1.2c-0.2-0.2-0.6-0.6-0.8-0.8l0.1-0.1h-4.9v-3.7h5.1v3.6
		c0.7-0.4,1.3-0.9,1.9-1.5c-0.2-1.5-0.3-3.1-0.4-4.8h-7.3v1h6.6v0.9h-6.6v0.5c0,2.7-0.2,6.8-1.6,9.7c-0.2-0.2-0.7-0.5-0.9-0.6
		c1.3-2.7,1.5-6.5,1.5-9v-3.4h8.4c0-0.5,0-1.1,0-1.6h1.2c0,0.5,0,1.1,0,1.6h1.9c-0.4-0.3-1.2-0.8-1.8-1.1l0.7-0.5
		c0.6,0.3,1.5,0.8,1.9,1.1l-0.6,0.6h1.5v1h-3.5c0,1.3,0.1,2.5,0.3,3.7c0.6-0.9,1.2-1.8,1.5-2.9L240.1,313.6z M228.2,323.7
		c0.3-0.9,0.6-2.3,0.8-3.1l0.8,0.3c-0.2,0.9-0.5,2.3-0.7,3.2L228.2,323.7z M233.8,323.5c0.5,0,0.6-0.2,0.6-1.8
		c0.2,0.2,0.6,0.3,0.9,0.4c-0.1,1.9-0.4,2.3-1.4,2.3h-2.1c-1.2,0-1.5-0.3-1.5-1.3v-2.7h1v2.7c0,0.4,0.1,0.4,0.6,0.4H233.8z
		 M233.6,316.2h-3.1v1.9h3.1V316.2z M233,322c-0.3-0.6-0.9-1.6-1.4-2.4l0.8-0.4c0.5,0.7,1.1,1.7,1.4,2.3L233,322z M235.7,320.3
		c0.6,1,1.2,2.3,1.6,3.1l-0.9,0.4c-0.3-0.8-1-2.2-1.5-3.1L235.7,320.3z"/>
</g>
<g class="st4">
	<path class="st5" d="M349.4,261.4c-0.4,1.8-0.9,3.7-1.6,5.2c0.3,0.2,0.7,0.5,1.2,0.8c1.4,0.8,3.2,0.9,5.6,0.9
		c2.3,0,5.9-0.2,8.1-0.5c-0.3,0.6-0.7,1.8-0.7,2.4c-1.7,0.1-5.2,0.2-7.5,0.2c-2.7,0-4.3-0.2-5.8-1.1c-0.8-0.5-1.5-1.1-2-1.1
		c-0.5,0-1.2,1.4-1.7,2.5l-1.6-2.3c0.7-0.8,1.4-1.5,2.1-1.9c0.4-1,0.8-2.3,1.1-3.5h-2.5c0.5-1.2,1-2.8,1.4-4.3h-1.8v-2.1h4.7
		c-0.4,1.4-0.9,3-1.4,4.4h0.8l0.4-0.1L349.4,261.4z M346,256.1c-0.2-0.9-0.7-2.4-1.1-3.4l2.1-0.6c0.4,1.1,0.9,2.4,1.2,3.3L346,256.1
		z M350.6,259.3c-0.3,0.4-0.7,0.7-1,1.1c-0.2-0.5-0.9-1.7-1.3-2.2c1.6-1.4,3-3.7,3.8-6.1l2.2,0.6c-0.3,0.9-0.7,1.7-1.1,2.5h3
		c-0.3-0.7-0.6-1.5-0.9-2.2l2.2-0.6c0.5,0.9,1,2,1.3,2.8h3.2v2h-4v1.1h3.2v1.9h-3.2v1.2h3.1v1.9h-3.1v1.3h4.3v2h-9.3v0.8h-2.3V259.3
		z M355.6,257.2h-2.7v1.1h2.7V257.2z M355.6,260.3h-2.7v1.2h2.7V260.3z M355.6,263.5h-2.7v1.3h2.7V263.5z"/>
	<path class="st5" d="M371.1,253.7c-0.6,1.7-1.3,3.7-1.9,5.2c1.3,1.6,1.6,3,1.6,4.2c0,1.3-0.3,2.1-0.9,2.6c-0.3,0.2-0.7,0.4-1.2,0.4
		c-0.4,0-0.8,0.1-1.3,0c0-0.6-0.2-1.5-0.5-2c0.3,0,0.6,0,0.8,0c0.2,0,0.4,0,0.6-0.2c0.2-0.2,0.3-0.6,0.3-1.2c0-1-0.3-2.3-1.6-3.7
		c0.4-1.2,0.9-2.8,1.2-4.1h-1.5v15.7h-2.1v-17.9h4.4l0.3-0.1L371.1,253.7z M376,258.2c0.1,0.6,0.2,1.4,0.3,1.9
		c-3.9,0.9-4.6,1.2-5,1.5c-0.1-0.6-0.4-1.7-0.7-2.2c0.4-0.1,0.7-0.3,0.7-1v-6.1h2.3v2.3h2.5v2h-2.5v2.2L376,258.2z M377.8,261.1
		c-0.3,0.4-0.5,0.7-0.7,1.1h4.6v8.5h-2.5v-0.6h-5.1v0.7h-2.4v-8.6h2.9c0.2-0.6,0.4-1.1,0.5-1.6L377.8,261.1z M379.2,264.1h-5.1v1.2
		h5.1V264.1z M379.2,268.3V267h-5.1v1.3H379.2z M380.4,259.1c0.3,0,0.4-0.3,0.5-1.9c0.5,0.3,1.4,0.7,2,0.8c-0.2,2.4-0.8,3.1-2.2,3.1
		H379c-1.9,0-2.3-0.7-2.3-2.7v-6.3h2.3v2.4h3.3v2H379v1.9c0,0.6,0.1,0.7,0.4,0.7H380.4z"/>
	<path class="st5" d="M391.5,262.7c-0.7,0.2-1.4,0.4-2.1,0.6v4.8c0,1.2-0.2,1.7-0.9,2.1c-0.7,0.4-1.6,0.4-3,0.4
		c-0.1-0.6-0.4-1.5-0.7-2.2c0.8,0,1.6,0,1.9,0c0.3,0,0.4-0.1,0.4-0.4V264l-1.9,0.5l-0.6-2.3c0.7-0.1,1.6-0.3,2.6-0.6v-3.5h-2.3v-2.2
		h2.3v-3.8h2.4v3.8h2v2.2h-2v3l1.8-0.5L391.5,262.7z M402.6,260c-0.8,2.8-2,5-3.7,6.6c1.3,0.9,2.8,1.6,4.6,2
		c-0.5,0.5-1.2,1.4-1.5,2.1c-1.9-0.6-3.6-1.4-5-2.5c-1.6,1.1-3.3,1.9-5.3,2.5c-0.3-0.6-0.8-1.6-1.3-2.2c1.8-0.4,3.4-1.1,4.8-2
		c-1.2-1.3-2.1-2.9-2.8-4.8l0.6-0.2h-1v-2.1h3.9v-2.4h-4.3v-2.2h4.3V252h2.4v2.9h4.5v2.2h-4.5v2.4h2.4l0.4-0.1L402.6,260z
		 M394.7,261.6c0.6,1.3,1.4,2.5,2.4,3.5c1-1,1.9-2.2,2.5-3.5H394.7z"/>
	<path class="st5" d="M423.6,260.5H422v7.5c0,1.1-0.2,1.7-0.9,2.1c-0.7,0.4-1.7,0.4-3,0.4c-0.1-0.7-0.3-1.6-0.6-2.3
		c0.8,0,1.6,0,1.9,0c0.3,0,0.3-0.1,0.3-0.3v-7.4H418v-1.6h-2.9v11.7H413v-11.7h-2.6v-1.4c-0.3,0.7-0.7,1.5-1.2,2.2v11H407v-8
		c-0.4,0.4-0.8,0.8-1.1,1.2c-0.2-0.5-0.9-1.7-1.3-2.2c1.5-1.3,3-3.4,3.9-5.5l1.9,0.6v-0.1h2.6v-4.6h2.1v4.6h3v1.6h5.5L423.6,260.5z
		 M410.4,252.8c-1,1.8-2.6,3.7-4.2,4.9c-0.3-0.5-0.8-1.4-1.2-1.8c1.2-1,2.6-2.6,3.2-3.9L410.4,252.8z M412.4,260
		c0,3.8-0.2,6.3-1.8,7.8c-0.2-0.4-0.7-1.1-1.1-1.4c1.1-1.3,1.2-3.2,1.2-6.5H412.4z M416.9,256.4c-0.3-0.7-0.9-1.8-1.5-2.6l1.4-0.8
		c0.6,0.8,1.3,1.8,1.6,2.5L416.9,256.4z M417.7,267.3c-1.6,0-1.9-0.6-1.9-2.3V260h1.7v4.9c0,0.5,0,0.7,0.1,0.7h0.5
		c0.2,0,0.5,0,0.7-0.1c0,0.4,0.1,1.2,0.2,1.6c-0.2,0.1-0.5,0.1-0.8,0.1H417.7z M423.3,255.7h-4.8v-2.1h4.8V255.7z"/>
	<path class="st5" d="M443.7,267.1H436v1.4c0,1.1-0.2,1.6-1.1,1.9c-0.8,0.3-1.9,0.3-3.4,0.3c-0.1-0.6-0.4-1.4-0.7-2
		c0.9,0,2.1,0,2.4,0c0.3,0,0.4-0.1,0.4-0.3v-1.4h-8.1v-1.9h8.1v-0.6c0.7-0.3,1.5-0.7,2.2-1.2h-6.4v-1.7h8.7l0.5-0.1l1.3,1.2
		c-1.1,0.8-2.5,1.6-3.8,2.3h7.5V267.1z M428.2,263.3H426v-4.1h1.5l-0.4-5.9c1.2-0.2,3-0.7,4-1.1l1,1.4c-0.8,0.3-1.8,0.6-2.7,0.8
		l0,0.6h2.5v1.5h-2.5l0,0.7h2.5v1c0.5-0.2,1-0.5,1.4-0.8c-0.4-0.2-0.8-0.5-1.1-0.7l1.1-0.9c0.4,0.2,0.8,0.4,1.2,0.7
		c0.3-0.3,0.6-0.6,0.8-0.8l1.6,0.5c-0.3,0.4-0.7,0.8-1.1,1.2c0.5,0.3,0.9,0.6,1.2,0.9l-1.2,1c-0.3-0.3-0.7-0.6-1.2-1
		c-0.5,0.4-1.1,0.7-1.6,1h6.5l0.1-0.7h-2.4V257h2.5l0-0.7h-2.4v-1.5h2.5l0-0.7h-2.7v-1.5h5c-0.1,2.1-0.2,4.6-0.4,6.5h1.5v4.1h-2.4
		v-2.4h-12.8V263.3z M429.7,259.2h3.2c-0.2-0.3-0.6-0.6-0.9-0.9v0.2h-2.4L429.7,259.2z M435.9,255.5c-0.3-0.3-0.6-0.5-1-0.8
		c-0.5,0.4-1.1,0.7-1.6,1c-0.3-0.3-0.9-0.8-1.2-1.1c0.5-0.2,1-0.5,1.5-0.8c-0.4-0.2-0.7-0.4-1.1-0.6l1.1-0.9
		c0.4,0.2,0.8,0.4,1.2,0.6c0.3-0.3,0.5-0.5,0.7-0.8l1.6,0.5c-0.3,0.4-0.6,0.8-1,1.1c0.4,0.3,0.8,0.6,1,0.8L435.9,255.5z"/>
	<path class="st5" d="M452.3,258.4c-1.6,0.9-3.4,1.9-4.9,2.7l-0.8-1.9c1.3-0.5,3.3-1.5,5.2-2.4L452.3,258.4z M462.9,259.2
		c0,1-0.2,1.5-0.8,1.8c-0.6,0.3-1.5,0.3-2.7,0.3c-0.1-0.6-0.3-1.3-0.5-1.9c0.6,0,1.3,0,1.5,0c0.2,0,0.3-0.1,0.3-0.3v-4.5h-3.9
		c0.9,0.4,2.1,0.9,2.8,1.2l-0.9,1.4l1.5-0.7l0.5,1.6c-1.6,0.9-3.3,1.9-4.8,2.6l0.5,0.1c-0.3,0.5-0.5,1-0.8,1.5h6.3v8.4h-2.5v-0.7
		h-8.6v0.7h-2.4v-8.4h4.7c0.2-0.4,0.3-0.9,0.4-1.3c-0.6,0.2-1.5,0.2-2.6,0.2c-0.1-0.6-0.3-1.3-0.5-1.9c0.6,0,1.3,0,1.5,0
		c0.2,0,0.3-0.1,0.3-0.3v-4.5h-3.9c0.9,0.4,2.1,0.9,2.8,1.2l-1.1,1.6c-0.7-0.4-2-1.1-3-1.5l0.9-1.3h-1.4v-1.9h7.9v6.4
		c0,0.6-0.1,1.1-0.3,1.4l1.4,0.2l-0.8-1.8c0.9-0.4,2.1-0.9,3.5-1.6c-0.7-0.4-2-1-2.9-1.4l0.9-1.3h-1.2v-1.9h7.7V259.2z M459.4,264.2
		h-8.6v1.1h8.6V264.2z M459.4,268.3v-1.2h-8.6v1.2H459.4z"/>
</g>
<g class="st4">
	<path class="st6" d="M352.1,204.2c0.9,1.1,2.3,2,3.6,2.5c-0.3,0.2-0.6,0.6-0.8,0.9c-1.6-0.6-3.1-2-4.1-3.4h-5
		c-1,1.5-2.6,2.9-4.2,3.6c-0.2-0.3-0.5-0.7-0.8-0.9c1.3-0.5,2.7-1.5,3.6-2.7H341v-1h3.2v-5.1h-2.4v-1h2.4v-1.5h1.2v1.5h5.8v-1.5h1.2
		v1.5h2.4v1h-2.4v5.1h3.1v1H352.1z M348.8,208.7h5.5v1h-12.1v-1h5.4v-1.7h-3.3v-1h3.3v-1.3h1.2v1.3h3.3v1h-3.3V208.7z M345.4,198.1
		v1.1h5.8v-1.1H345.4z M345.4,201.2h5.8v-1.1h-5.8V201.2z M345.4,203.2h5.8v-1.1h-5.8V203.2z"/>
	<path class="st6" d="M359,208.2v1.3h-0.9v-5.9c-0.3,0.5-0.6,1-0.9,1.4c-0.1-0.3-0.3-0.9-0.5-1.3c1.1-1.5,1.8-3.7,2.3-6.1h-1.8v-1.2
		h4.8v1.2h-1.8c-0.3,1.3-0.6,2.6-1,3.7h2.6v6.9H359z M360.7,202.4H359v4.7h1.7V202.4z M367.3,208.7c0.3,0,0.7,0,1,0
		c0.4,0,2.8,0,3.3,0c-0.2,0.3-0.3,0.8-0.4,1.1h-3c-2.2,0-3.6-0.4-4.6-2.3c-0.3,1.1-0.8,2-1.7,2.6l-0.8-0.8c1.4-1,1.8-2.8,2-4.9
		l1,0.2c0,0.5-0.1,0.9-0.2,1.4c0.4,1.4,1.1,2.1,2.1,2.4v-4.7h-4v-1h8.3l0.2-0.1l0.8,0.3c-0.3,0.8-0.6,1.7-0.9,2.3l-0.9-0.4
		c0.1-0.3,0.3-0.7,0.4-1.1h-2.6v1.8h3.6v1h-3.6V208.7z M364,199.5c-0.5,0.9-1.1,1.7-1.6,2.3c-0.1-0.3-0.4-0.7-0.6-0.8
		c0.7-0.6,1.4-1.7,1.9-2.7h-1.6v-1h1.9v-1.6h1v1.6h1.5v1H365v0.2c0.4,0.4,1.3,1.4,1.6,1.7l-0.7,0.8c-0.2-0.3-0.6-0.9-0.9-1.4v2.8h-1
		V199.5z M368.5,199.7c-0.4,0.8-1,1.6-1.6,2.1c-0.1-0.2-0.4-0.6-0.6-0.8c0.8-0.6,1.6-1.7,2-2.9h-1.4v-1h1.6v-1.6h1v1.6h2v1h-1.7
		c0.6,0.7,1.7,2.1,1.9,2.5l-0.7,0.8c-0.3-0.5-0.9-1.6-1.5-2.4v3.2h-1V199.7z"/>
	<path class="st6" d="M375.5,197.7c-0.5,0.8-1.1,1.5-1.7,2.1c-0.2-0.2-0.6-0.6-0.8-0.8c1-0.9,1.9-2.2,2.4-3.5l1.1,0.3
		c-0.1,0.3-0.3,0.6-0.5,1h4.1v1h-3c0.5,0.4,1.1,1,1.4,1.4l-0.8,0.7c-0.3-0.4-1-1.1-1.5-1.6l0.6-0.5H375.5z M380.4,198.8
		c0.2,0.4,0.5,0.8,0.6,1.2h5.8v2.6h-1.2V201h-10.6v1.7h-1.2v-2.6h5.9c-0.1-0.3-0.3-0.7-0.5-1L380.4,198.8z M376.9,206.3h8.9v3.9
		h-1.2v-0.5h-7.7v0.5h-1.2V202h9.2v3.2h-8V206.3z M376.9,202.9v1.4h6.9v-1.4H376.9z M376.9,207.2v1.5h7.7v-1.5H376.9z M387.5,196.7
		v0.9H384c0.6,0.5,1.3,1.1,1.6,1.5l-0.8,0.7c-0.4-0.4-1.1-1.1-1.7-1.6l0.7-0.6H382c-0.4,0.5-0.8,1-1.2,1.3c-0.2-0.2-0.6-0.5-0.9-0.7
		c0.9-0.7,1.6-1.7,2-2.8l1.1,0.3c-0.1,0.3-0.3,0.7-0.4,1H387.5z"/>
	<path class="st6" d="M394.1,206.9c-1.7,0.6-3.5,1.2-5,1.7l-0.3-1.2c0.6-0.2,1.3-0.4,2.1-0.7v-4.3h-1.8v-1.1h1.8v-3.5h-2v-1.1h5v1.1
		h-1.8v3.5h1.6v1.1h-1.6v4l1.7-0.6L394.1,206.9z M403.7,208.6v1.1h-10.3v-1.1h4.9v-2.2h-3.6v-1.1h3.6v-1.9h-3.4v-7.1h8.1v7.1h-3.5
		v1.9h3.7v1.1h-3.7v2.2H403.7z M395.9,199.4h2.4v-2h-2.4V199.4z M395.9,202.4h2.4v-2h-2.4V202.4z M401.8,197.3h-2.4v2h2.4V197.3z
		 M401.8,200.3h-2.4v2h2.4V200.3z"/>
	<path class="st6" d="M411.6,208.9c0,0.6-0.1,0.9-0.6,1.1c-0.4,0.2-1.1,0.2-2.1,0.2c-0.1-0.3-0.2-0.7-0.4-1c0.8,0,1.4,0,1.6,0
		c0.2,0,0.3-0.1,0.3-0.3v-2.5c-1.1,0.6-2.1,1.2-3,1.8l-0.4-1c-0.2,1.1-0.5,2.2-1.2,3c-0.2-0.3-0.6-0.7-0.8-0.8c0.9-1.2,1-2.9,1-4.3
		v-3.9h5.6V208.9z M410.6,196.7c0.8,1.1,1.7,2.6,2.1,3.5l-1,0.5c-0.1-0.3-0.3-0.7-0.5-1.1c-4.3,0.4-4.9,0.4-5.3,0.6
		c-0.1-0.2-0.2-0.8-0.4-1.1c0.3,0,0.5-0.3,0.8-0.6c0.3-0.3,1.4-1.6,2-2.9l1.2,0.4c-0.7,1-1.4,2.1-2.2,2.9l3.3-0.2
		c-0.3-0.5-0.7-1.1-1-1.6L410.6,196.7z M407.2,205.2c0,0.6,0,1.3-0.1,2c0.9-0.4,2.2-1,3.4-1.7v-3.2h-3.3V205.2z M407.9,203.2
		c0.8,0.5,2,1.2,2.5,1.7l-0.6,0.7c-0.6-0.5-1.7-1.2-2.5-1.7L407.9,203.2z M414.9,202.5c-1.4,0-1.8-0.5-1.8-1.8v-5h1.2v2.2h4.3v1.1
		h-4.3v1.8c0,0.6,0.1,0.8,0.6,0.8h2.9c0.4,0,1,0,1.3-0.1c0,0.3,0.1,0.8,0.1,1c-0.3,0.1-0.8,0.1-1.4,0.1H414.9z M417.8,209
		c0.7,0,0.8-0.3,0.9-2c0.3,0.2,0.7,0.4,1.1,0.4c-0.1,2.1-0.5,2.6-1.8,2.6H415c-1.6,0-2-0.4-2-1.7V203h1.2v1.9h4.5v1.1h-4.5v2.4
		c0,0.5,0.1,0.6,0.9,0.6H417.8z"/>
	<path class="st6" d="M434.7,199.1c0,0,0,0.4,0,0.6c-0.4,6.6-0.7,8.9-1.4,9.7c-0.4,0.4-0.8,0.6-1.4,0.6c-0.6,0-1.6,0-2.6,0
		c0-0.4-0.2-0.9-0.4-1.2c1.1,0.1,2.1,0.1,2.5,0.1c0.3,0,0.5,0,0.7-0.2c0.6-0.5,0.9-2.8,1.2-8.4H428c-0.2,3.3-1.3,7.2-5.9,10
		c-0.2-0.3-0.6-0.8-0.9-0.9c4.3-2.6,5.4-6.1,5.6-9.1h-5.1v-1.2h5.2c0-0.2,0-0.5,0-0.7v-2.8h1.2v2.8c0,0.2,0,0.4,0,0.7H434.7z"/>
	<path class="st6" d="M440,205.8c0.6-0.2,1.2-0.5,1.9-0.7l0.2,1.1c-1.7,0.7-3.4,1.4-4.8,1.9l-0.4-1.2c0.6-0.2,1.3-0.4,2-0.7v-5.6
		H437v-1.1h1.9v-3.7h1.1v3.7h1.8v1.1H440V205.8z M451.6,201.8v1.1h-9.8v-1.1h6c0.4-0.9,0.9-2.3,1.1-3.3l1.1,0.3
		c-0.4,1-0.8,2.1-1.2,3H451.6z M451.1,198.5h-8.7v-1.1h3.9c-0.1-0.5-0.3-1.2-0.4-1.7l1.1-0.2c0.2,0.6,0.4,1.4,0.6,1.9h3.7V198.5z
		 M443.1,204.3h7.2v5.8h-1.1v-0.6h-4.9v0.7h-1.1V204.3z M444.3,201.7c-0.1-0.7-0.5-1.9-0.9-2.7l1-0.3c0.4,0.8,0.8,2,0.9,2.7
		L444.3,201.7z M444.2,205.4v3h4.9v-3H444.2z"/>
	<path class="st6" d="M463.5,201.4c1,1.1,2.6,2.1,4.2,2.6c-0.3,0.2-0.6,0.7-0.8,0.9c-1.8-0.7-3.6-2-4.6-3.5h-3.9
		c-0.6,0.8-1.3,1.5-2.1,2.1h8.1v3.7h-7.2v1.5l2.7-0.6c0,0.3,0,0.7,0,0.9c-3.3,0.9-3.8,1-4.1,1.2c-0.1-0.3-0.3-0.8-0.5-1
		c0.3-0.1,0.6-0.4,0.6-1v-4.4c-0.7,0.5-1.5,1-2.3,1.4c-0.2-0.2-0.6-0.7-0.8-0.9c1.6-0.7,3.1-1.7,4.1-2.9h-3.7v-0.9h6.4v-0.8H455
		v-0.8h4.6v-0.8h-5.5v-0.8h3c-0.2-0.4-0.6-0.9-0.8-1.3l1-0.4c0.4,0.5,0.9,1.2,1.1,1.6h3.7c0.3-0.5,0.7-1.2,0.9-1.7l1.2,0.3
		c-0.3,0.5-0.6,1-0.9,1.4h3v0.8h-5.5v0.8h4.7v0.8h-4.7v0.8h6.5v0.9H463.5z M457.2,204.2v0.8h6v-0.8H457.2z M463.2,206.5v-0.8h-6v0.8
		H463.2z M457.9,202.8v-0.7h4.6v0.7H457.9z M466.6,207.2c-0.8,0.4-1.7,0.9-2.5,1.2c1,0.4,1.9,0.7,2.5,0.9l-0.5,0.8
		c-1.4-0.6-4.2-1.6-6.3-2.3l0.5-0.7c0.8,0.2,1.8,0.5,2.7,0.8c1-0.4,2.1-1,2.8-1.5L466.6,207.2z"/>
</g>
<g class="st4">
	<path class="st5" d="M588.1,146.7v18h-2.3v-0.9h-12.4v1h-2.1v-18H588.1z M585.8,162v-13.5h-12.4V162H585.8z M585.4,159.1h-2.6v1.3
		c0,0.8-0.2,1-0.7,1.2c-0.5,0.2-1.3,0.2-2.4,0.2c-0.1-0.4-0.3-0.8-0.5-1.2c0.6,0,1.2,0,1.4,0c0.2,0,0.3-0.1,0.3-0.2v-1.2h-3.5
		c0.5,0.5,1.1,1.2,1.3,1.6l-1.6,0.8c-0.3-0.5-0.8-1.3-1.4-1.8l1.3-0.6h-3.1v-1.3h7v-0.6h2v0.6h1.1c-0.1-0.2-0.4-0.4-0.6-0.7
		c-3.3,0.1-6.6,0.2-9,0.3l-0.1-1.3c1.2,0,2.8,0,4.5,0v-0.7h-4v-4.1h4v-0.6h-4.5v-1.3h4.5v-0.7h1.9v0.7h4.6v1.3h-4.6v0.6h4v4.1h-1
		c0.6,0.5,1.3,1.1,1.7,1.6l-1.1,0.8h1.2V159.1z M576.5,153h2.2v-0.6h-2.2V153z M578.6,154.5v-0.6h-2.2v0.6H578.6z M580.6,152.4v0.6
		h2.1v-0.6H580.6z M582.7,153.9h-2.1v0.6h2.1V153.9z M580.6,156.1h1.6l-0.2-0.2l0.7-0.5h-2.1V156.1z"/>
	<path class="st5" d="M597.8,147.7c-0.5,1.7-1.2,3.9-1.7,5.4c1.2,1.5,1.5,2.9,1.5,4c0,1.3-0.3,2.1-0.9,2.6c-0.3,0.2-0.7,0.4-1.1,0.4
		c-0.4,0-0.8,0.1-1.3,0c0-0.6-0.2-1.5-0.5-2c0.4,0,0.6,0,0.9,0c0.2,0,0.4-0.1,0.6-0.2c0.2-0.2,0.3-0.6,0.3-1.1
		c0-0.9-0.3-2.2-1.4-3.5c0.4-1.2,0.8-3,1.1-4.4h-1.6v15.7h-2.1v-17.8h4.3l0.3-0.1L597.8,147.7z M609.2,153.4c-0.7,0.5-1.5,1-2.4,1.5
		c0.7,2.1,1.9,4.3,3,5.5c-0.5,0.3-1.2,1-1.5,1.5c-1.2-1.4-2.4-3.9-3.2-6.1l-0.1,0c1,3.2,0.5,6.5-0.6,7.6c-0.6,0.8-1.3,1-2.3,1
		c-0.4,0-1.1,0-1.6,0c0-0.6-0.2-1.5-0.6-2.1c0.7,0.1,1.3,0.1,1.8,0.1c0.5,0,0.8-0.1,1.1-0.6c0.4-0.4,0.6-1.3,0.6-2.6
		c-1.5,1.2-3.4,2.2-5,2.8c-0.3-0.5-0.9-1.2-1.4-1.7c2.2-0.6,4.8-2,6.2-3.4c-0.1-0.3-0.2-0.7-0.3-1c-1.1,0.9-2.7,1.9-3.9,2.5
		c-0.3-0.5-0.8-1.3-1.3-1.7c1.5-0.5,3.4-1.5,4.5-2.5c-0.2-0.4-0.4-0.7-0.7-1.1c-1.1,0.8-2.2,1.4-3.2,1.9c-0.3-0.4-1-1.3-1.4-1.7
		c1.5-0.5,2.9-1.3,4.1-2.2h-3.5v-2h3.2c-0.5-0.7-1.2-1.4-1.9-2l1.7-1.1c0.9,0.7,1.9,1.7,2.4,2.4l-1,0.7h1.8c0.6-0.9,1.4-2.2,1.8-3.1
		l2.3,0.6c-0.5,0.9-1.1,1.7-1.7,2.5h3v2.1h-5.3c-0.3,0.3-0.5,0.5-0.8,0.8c0.6,0.6,1,1.3,1.3,2.1c1.2-0.7,2.4-1.6,3.3-2.3
		L609.2,153.4z"/>
	<path class="st5" d="M613.5,153.1c-0.4,0.5-0.8,0.9-1.3,1.4c-0.3-0.7-0.8-1.5-1.3-2.1c1.7-1.4,3.5-3.8,4.5-6.4l1.8,1.1
		c-0.1,0.3-0.3,0.7-0.4,1c1.2,1.1,2.6,2.5,3.2,3.4l-1.1,1.9c-0.2-0.3-0.5-0.6-0.8-1v1.8h-4.6V153.1z M619.9,156.3
		c-0.7,1.9-1.9,4-3,5.4c0.5,0.5,0.9,1,1.3,1.4l-1.6,1.4c-0.9-1.2-2.7-3-4.1-4.2l1.5-1.3c0.4,0.3,0.9,0.7,1.4,1.2
		c0.7-0.8,1.4-1.9,1.9-2.9h-5.3v-2h6.2l0.3-0.1L619.9,156.3z M617.9,152.1c-0.6-0.7-1.4-1.5-2.1-2.3c-0.5,0.8-1,1.6-1.5,2.3H617.9z
		 M624.3,162c-1.1,1-2.8,2.2-4.3,2.7c-0.4-0.4-1-1.1-1.5-1.5c1.4-0.6,3.1-1.6,3.9-2.5L624.3,162z M629,160.8h-8.7v-10.6h2.9
		c0.1-0.4,0.1-0.9,0.2-1.3h-3.7v-2h9.9v2h-3.6c-0.1,0.5-0.3,0.9-0.4,1.3h3.5V160.8z M626.8,151.9h-4.4v1.2h4.4V151.9z M626.8,154.8
		h-4.4v1.3h4.4V154.8z M626.8,157.7h-4.4v1.3h4.4V157.7z M626.8,160.9c1,0.7,2.5,1.8,3.2,2.6l-1.8,1.3c-0.6-0.7-2-1.9-3.1-2.7
		L626.8,160.9z"/>
	<path class="st5" d="M645.8,159.1h4.1v1.8h-4.1v1.8c0,1.1-0.2,1.6-1,1.9c-0.8,0.3-1.9,0.3-3.3,0.3c-0.1-0.6-0.4-1.5-0.7-2.1
		c1,0.1,2.1,0.1,2.4,0c0.3,0,0.4-0.1,0.4-0.3v-1.8h-6c0.8,0.6,1.6,1.2,2.1,1.8l-1.7,1.5c-0.5-0.7-1.7-1.7-2.6-2.3l1.1-0.9h-4.4v-1.8
		h11.7v-0.7h-1c-2.3,0-4-0.2-5.4-0.9c-0.8-0.4-1.3-0.8-1.8-0.8c-0.6,0-1.5,1-2.3,2l-1.2-1.9c0.5-0.4,1.1-0.9,1.6-1.2
		c0.6-0.6,1.1-1.5,1.5-2.4H632c0.5-0.8,1-1.8,1.5-2.8h-1.9v-1.7h1.8c-0.2-0.6-0.5-1.4-0.7-2.1l2-0.6c0.3,0.7,0.6,1.6,0.8,2.1
		l-1.6,0.6h2.6c-0.4,0.9-0.9,1.9-1.4,2.8h0.9l0.3-0.1l1.1,0.5c-0.3,1.1-0.8,2.2-1.5,3.2c0.4,0.2,0.8,0.4,1.4,0.7
		c1.2,0.6,3.1,0.7,5.1,0.7c2.2,0,5.7-0.2,7.8-0.5c-0.2,0.6-0.6,1.6-0.6,2.1c-0.9,0.1-2.4,0.1-3.9,0.2V159.1z M641.8,149.9
		c0.1-0.2,0.1-0.4,0.2-0.6h-4.9v-1.6h2.9c-0.2-0.4-0.4-0.9-0.6-1.3l1.9-0.5c0.4,0.5,0.8,1.2,1,1.8h2.4c0.3-0.5,0.6-1.2,0.8-1.7
		l2.2,0.4c-0.3,0.5-0.6,0.9-0.9,1.3h2.9v1.6h-5.5c-0.1,0.2-0.2,0.4-0.3,0.6h4.3v6h-9.8v-6H641.8z M646,151h-5.3v0.6h5.3V151z
		 M646,152.6h-5.3v0.6h5.3V152.6z M646,154.2h-5.3v0.6h5.3V154.2z"/>
	<path class="st5" d="M660.7,162.5c0,1-0.2,1.5-0.8,1.8c-0.6,0.3-1.5,0.3-2.8,0.3c-0.1-0.6-0.4-1.3-0.7-1.9c0.7,0,1.5,0,1.7,0
		c0.3,0,0.3-0.1,0.3-0.3v-2c-1,0.7-2,1.4-2.9,2l-0.5-1.4c-0.2,1.4-0.7,2.7-1.4,3.8c-0.3-0.5-1.2-1.3-1.7-1.6
		c1.1-1.6,1.1-3.8,1.1-5.5v-4.5h7.6V162.5z M659.6,147.5c0.8,1.4,1.9,3.4,2.4,4.6l-2.1,0.8c-0.1-0.4-0.3-0.8-0.5-1.3
		c-5.1,0.5-5.9,0.6-6.5,0.9c-0.1-0.5-0.5-1.5-0.7-2.1c0.4-0.1,0.7-0.4,1.1-0.8c0.4-0.4,1.6-2,2.4-3.6l2.4,0.7
		c-0.7,1.2-1.6,2.3-2.5,3.3l2.9-0.2c-0.3-0.6-0.6-1.1-0.8-1.6L659.6,147.5z M655.4,157.7c0,0.8,0,1.7-0.1,2.6c0.9-0.4,2.1-1,3.3-1.6
		V158l-1,0.9c-0.5-0.5-1.4-1.3-2.2-1.9V157.7z M655.4,155.2v1.4l1-0.9c0.7,0.5,1.5,1.2,2.1,1.7v-2.3H655.4z M665.2,154.9
		c-2.4,0-3-0.9-3-3.1v-5.7h2.4v2.4h4.9v2h-4.9v1.3c0,0.7,0.1,1,0.8,1h2.9c0.6,0,1.4-0.1,1.8-0.2c0,0.6,0.1,1.5,0.2,2
		c-0.4,0.1-1.3,0.2-2,0.2H665.2z M667.8,162.5c0.7,0,0.8-0.3,0.9-2.2c0.5,0.4,1.4,0.7,2.1,0.9c-0.2,2.6-0.9,3.4-2.8,3.4h-2.8
		c-2.4,0-2.9-0.7-2.9-2.9v-6.3h2.4v2h5.1v2.1h-5.1v2.2c0,0.7,0.1,0.8,0.9,0.8H667.8z"/>
	<path class="st5" d="M690,150.2c0,0,0,0.8-0.1,1.1c-0.4,8-0.8,11-1.7,12c-0.6,0.8-1.2,1-2,1.1c-0.7,0.1-2,0.1-3.2,0
		c0-0.7-0.4-1.8-0.8-2.5c1.3,0.1,2.4,0.1,3,0.1c0.4,0,0.7-0.1,0.9-0.3c0.6-0.6,1-3.2,1.3-9.2h-5.6c-0.3,4.1-1.7,9-7.3,12.2
		c-0.4-0.6-1.3-1.5-1.9-1.9c5-2.7,6.3-6.7,6.6-10.2h-6v-2.4h6.1v-4.1h2.5v4.1H690z"/>
</g>
<g class="st4">
	<path class="st6" d="M546.3,89.1V90c0,2.7-0.2,6.6-1.9,9.2c-0.2-0.2-0.8-0.5-1-0.6c1.6-2.5,1.7-6.1,1.7-8.6v-4.7H557v3.7H546.3z
		 M546.3,86.4V88h9.5v-1.6H546.3z M557.2,95.1c-0.8,0.6-1.7,1.2-2.5,1.6c1,0.7,2.2,1.2,3.6,1.5c-0.3,0.2-0.6,0.7-0.7,1
		c-2.8-0.7-4.9-2.4-6-4.8h-2.2v3.3l3.4-0.8c0,0.3-0.1,0.8,0,1c-4,1-4.5,1.1-4.8,1.3c0-0.3-0.3-0.8-0.5-1c0.3-0.2,0.8-0.5,0.8-1.2
		v-2.6h-1.7v-1h2.8v-1.7h-2.4v-1h2.4v-1.4h1.1v1.4h3.2v-1.4h1.1v1.4h2.7v1h-2.7v1.7h3.3v1h-5.4c0.3,0.6,0.8,1.2,1.3,1.7
		c0.8-0.5,1.8-1.1,2.4-1.6L557.2,95.1z M550.4,93.4h3.2v-1.7h-3.2V93.4z"/>
	<path class="st6" d="M565.4,95c-2,0.6-4.1,1.2-5.7,1.7l-0.3-1.1c0.7-0.2,1.6-0.4,2.5-0.7V91h-2v-1.1h2v-3.4h-2.2v-1.1h5.5v1.1H563
		v3.4h2V91h-2v3.6l2.2-0.6L565.4,95z M572.9,98.1c0.4,0,0.4-0.2,0.5-1.9c0.2,0.2,0.7,0.4,1,0.5c-0.1,2-0.4,2.4-1.3,2.4h-1.6
		c-1.1,0-1.4-0.3-1.4-1.5v-3.6h-1.6c-0.3,2.5-1.2,4.3-4.3,5.2c-0.1-0.3-0.4-0.8-0.7-1c2.8-0.8,3.5-2.2,3.8-4.3h-1.4v-8.8h7.5v8.8
		h-2.2v3.6c0,0.4,0.1,0.5,0.5,0.5H572.9z M567,87.9h5.2v-1.6H567V87.9z M567,90.5h5.2v-1.6H567V90.5z M567,93.1h5.2v-1.6H567V93.1z"
		/>
	<path class="st6" d="M589.3,85.3v13.8h-1.1v-0.8h-10.6v0.8h-1.1V85.3H589.3z M588.2,97.4V86.3h-10.6v11.2H588.2z M587.6,94.8h-2.3
		v1.5c0,0.5-0.1,0.6-0.5,0.7c-0.4,0.1-0.9,0.1-1.9,0.1c0-0.2-0.2-0.5-0.3-0.7c0.6,0,1.2,0,1.4,0c0.2,0,0.2,0,0.2-0.2v-1.5h-6.2v-0.7
		h6.2v-0.6h1v0.6h2.3V94.8z M582.3,88h-4v-0.7h4v-0.8h1v0.8h4.1V88h-4.1v0.7h3.5v3.2h-1.3c0.6,0.4,1.4,1.1,1.7,1.6l-0.7,0.5
		c-0.2-0.2-0.4-0.4-0.6-0.7c-2.8,0.1-5.6,0.2-7.6,0.2l0-0.8c1.1,0,2.5,0,4,0v-0.8h-3.4v-3.2h3.4V88z M580.5,94.9
		c0.5,0.4,1.2,1,1.4,1.4l-0.8,0.5c-0.3-0.4-0.9-1.1-1.4-1.5L580.5,94.9z M579.8,90h2.4v-0.7h-2.4V90z M582.3,91.3v-0.7h-2.4v0.7
		H582.3z M583.3,89.3V90h2.5v-0.7H583.3z M585.8,90.6h-2.5v0.7h2.5V90.6z M585.3,92.6c-0.1-0.1-0.3-0.2-0.4-0.3l0.6-0.4h-2.2v0.8
		L585.3,92.6z"/>
	<path class="st6" d="M596.7,85.7c-0.5,1.3-1.1,3-1.6,4.2c1.2,1.3,1.4,2.4,1.4,3.4c0,0.8-0.2,1.5-0.6,1.8c-0.2,0.2-0.5,0.3-0.8,0.3
		c-0.3,0-0.7,0-1.1,0c0-0.3-0.1-0.8-0.3-1.1c0.4,0,0.7,0,0.9,0c0.2,0,0.4,0,0.5-0.1c0.3-0.2,0.3-0.6,0.3-1.1c0-0.9-0.3-1.9-1.4-3.2
		c0.5-1.2,0.9-2.6,1.3-3.7h-2.1v12.9h-1.1V85.3h3.6l0.2,0L596.7,85.7z M605.7,89.9c-0.6,0.5-1.4,1-2.1,1.5c0.6,1.8,1.7,3.8,2.8,4.8
		c-0.2,0.2-0.6,0.5-0.8,0.8c-1.1-1.2-2.2-3.2-2.8-5.1l-0.3,0.2c0.8,2.7,0.5,5.5-0.5,6.3c-0.5,0.4-0.9,0.6-1.6,0.6
		c-0.3,0-0.8,0-1.3,0c0-0.3-0.1-0.8-0.3-1.1c0.5,0.1,1,0.1,1.3,0.1c0.4,0,0.7-0.1,0.9-0.4c0.5-0.4,0.8-1.7,0.7-3.3
		c-1.2,1.1-3.1,2.2-4.6,2.8c-0.2-0.3-0.4-0.6-0.7-0.8c1.8-0.6,4-1.9,5.1-3.1c-0.1-0.4-0.2-0.8-0.3-1.3c-1,0.8-2.5,1.8-3.6,2.3
		c-0.1-0.2-0.4-0.6-0.7-0.9c1.2-0.5,2.9-1.5,3.9-2.3c-0.2-0.4-0.5-0.9-0.8-1.3c-0.9,0.7-2,1.4-2.9,1.9c-0.1-0.2-0.5-0.6-0.7-0.8
		c1.3-0.6,2.8-1.4,3.8-2.4h-3.5v-1.1h3.1c-0.4-0.6-1.2-1.4-1.8-2l0.9-0.6c0.8,0.6,1.6,1.4,1.9,2l-0.8,0.6l1.8,0
		c0.6-0.7,1.3-1.9,1.7-2.7l1.1,0.4c-0.5,0.8-1.1,1.6-1.6,2.3h3v1h-4.5c-0.2,0.3-0.5,0.5-0.7,0.8c0.6,0.6,1,1.4,1.3,2.1
		c1-0.6,2.1-1.4,2.8-2.1L605.7,89.9z"/>
	<path class="st6" d="M609.2,95c-0.2,1.5-0.5,3.1-0.8,4.1c-0.2-0.1-0.6-0.3-0.9-0.3c0.4-1,0.6-2.6,0.8-4L609.2,95z M612.2,94.3
		c0-0.3-0.1-0.6-0.2-1c-3.3,0.5-3.8,0.6-4.1,0.8c0-0.2-0.2-0.8-0.4-1.1c0.3-0.1,0.7-0.5,1.2-1.1c0.3-0.3,0.8-1,1.3-1.9
		c-1.7,0.2-2,0.3-2.2,0.4c-0.1-0.2-0.2-0.8-0.4-1c0.3-0.1,0.5-0.4,0.8-0.9c0.4-0.5,1.5-2.3,2.1-4l1,0.4c-0.7,1.5-1.5,3.1-2.4,4.3
		l1.7-0.2c0.4-0.7,0.8-1.4,1.2-2.1l1,0.6c-1,1.8-2.3,3.7-3.5,5.2l2.4-0.3c-0.1-0.5-0.3-1.1-0.4-1.6l0.8-0.2c0.4,1.1,0.8,2.5,0.9,3.4
		L612.2,94.3z M610.6,94.7c0.2,1.2,0.4,2.7,0.4,3.7l-0.9,0.2c0-1-0.2-2.5-0.4-3.7L610.6,94.7z M612.1,94.4c0.3,0.9,0.7,2.1,0.9,2.8
		l-0.8,0.3c-0.1-0.8-0.5-2-0.8-2.9L612.1,94.4z M616.8,97.5c-1.1,0.6-2.7,1.3-3.7,1.7c-0.2-0.2-0.5-0.6-0.8-0.8
		c1.1-0.4,2.7-1.1,3.5-1.6L616.8,97.5z M616.9,86.5h-3.6v-0.9h3.6v-1h1.2v1h3.4v0.9h-3.4v0.9h3v0.8h-3v0.9h4V90h-9.4v-0.9h4.2v-0.9
		h-3.3v-0.8h3.3V86.5z M613.7,96.6v-5.8h7.4v5.8H613.7z M614.8,92.5h5.1v-0.9h-5.1V92.5z M614.8,94.1h5.1v-0.9h-5.1V94.1z
		 M614.8,95.8h5.1v-0.9h-5.1V95.8z M619,96.8c1.1,0.6,2.3,1.3,3.1,1.8l-1,0.6c-0.7-0.5-1.9-1.3-2.9-1.9L619,96.8z"/>
	<path class="st6" d="M626.6,88.7c-0.6,1.4-1.5,2.9-2.3,3.8c-0.2-0.2-0.6-0.6-0.8-0.7c0.8-0.9,1.6-2.2,2.1-3.4L626.6,88.7z
		 M629.4,97.6c-0.3-0.7-0.9-1.5-1.6-2.4c-0.9,1.5-2,2.7-3.4,3.6c-0.2-0.2-0.6-0.7-0.8-0.9c1.4-0.9,2.6-2.1,3.5-3.7
		c-0.6-0.7-1.3-1.4-1.9-2.1l0.9-0.6c0.5,0.5,1.1,1.1,1.6,1.6c0.3-0.7,0.6-1.4,0.8-2.2l1.1,0.2c-0.3,1.1-0.7,2-1.1,2.9
		c0.8,1,1.6,1.9,2,2.7L629.4,97.6z M631,88h-7.2v-1.1h3.4c-0.2-0.6-0.7-1.3-1.1-1.9l1-0.4c0.5,0.6,1,1.4,1.2,1.9l-0.9,0.4h3.6V88z
		 M630,91.6c-0.3-0.8-1-1.9-1.8-2.8l0.9-0.5c0.7,0.8,1.5,2,1.8,2.7L630,91.6z M637.1,88.6c-0.4,2.7-1,4.8-2.1,6.6
		c0.8,1.3,1.9,2.4,3.2,3.1c-0.3,0.2-0.6,0.7-0.8,0.9c-1.2-0.7-2.2-1.7-3-3c-0.9,1.2-2.1,2.2-3.7,3c-0.1-0.2-0.6-0.7-0.8-0.9
		c1.7-0.8,2.9-1.8,3.9-3.2c-0.6-1.2-1.1-2.5-1.5-3.9c-0.3,0.5-0.6,1-0.9,1.5c-0.2-0.2-0.5-0.7-0.8-0.9c1.3-1.7,2.1-4.5,2.6-7.3
		l1.1,0.2c-0.2,0.9-0.4,1.9-0.6,2.8h4.4v1.1H637.1z M633.3,88.6c-0.1,0.4-0.2,0.8-0.4,1.1c0.3,1.6,0.8,3,1.5,4.3
		c0.8-1.5,1.2-3.3,1.6-5.4H633.3z"/>
	<path class="st6" d="M644.9,92.6c0,0,0,0.4,0,0.5c-0.2,3.6-0.4,5-0.9,5.5c-0.3,0.3-0.6,0.4-1,0.5c-0.4,0-1.1,0-1.9,0
		c0-0.3-0.1-0.8-0.3-1.1c0.7,0.1,1.4,0.1,1.7,0.1c0.3,0,0.4,0,0.5-0.2c0.3-0.3,0.5-1.4,0.7-4.2h-4c0.2-1.2,0.5-3.1,0.6-4.6h3.3v-2.6
		h-3.8v-1.1h4.9v4.8h-3.5c-0.1,0.8-0.2,1.6-0.3,2.4H644.9z M653.2,99.3c-0.1-0.3-0.3-0.7-0.5-1.1c-2.8,0.2-5.6,0.4-7.6,0.6l-0.2-1.2
		c1,0,2.4-0.1,3.9-0.2v-2.4h-3.2v-4.2h3.2v-1.6h1.2v1.6h3.3v4.2H650v2.3l2.2-0.1c-0.3-0.5-0.6-1-0.9-1.4l1-0.4
		c0.8,1.1,1.7,2.5,2,3.4L653.2,99.3z M653,89.9c-0.2-0.3-0.4-0.7-0.7-1.1c-5.6,0.5-6.2,0.6-6.6,0.7c-0.1-0.2-0.3-0.8-0.4-1
		c0.3,0,0.5-0.3,0.8-0.7c0.3-0.4,1.4-1.8,2-3.1l1.2,0.3c-0.7,1.2-1.6,2.4-2.4,3.3l4.7-0.4c-0.4-0.5-0.8-1-1.2-1.4l0.8-0.5
		c1,1,2.1,2.4,2.6,3.3L653,89.9z M648.8,94.1v-2.2h-2.2v2.2H648.8z M650,91.9v2.2h2.2v-2.2H650z"/>
	<path class="st6" d="M661,85c-0.5,1-1,2.1-1.6,3v11.2h-1.2v-9.5c-0.7,0.9-1.4,1.7-2.2,2.4c-0.1-0.3-0.5-0.9-0.7-1.2
		c1.7-1.5,3.5-3.9,4.5-6.3L661,85z M667.7,97.6c0.9,0,1-0.7,1.2-3.4c0.3,0.2,0.8,0.5,1.1,0.5c-0.2,3-0.5,4-2.2,4h-3
		c-1.6,0-2.1-0.5-2.1-2.2V84.9h1.2v4.4h5.7v1.2h-5.7v6.2c0,0.8,0.2,1,1,1H667.7z"/>
	<path class="st6" d="M685.5,85.3v13.9h-1.2v-0.7h-11v0.7h-1.1V85.3H685.5z M684.3,97.5v-11h-11v11H684.3z M678.9,95
		c-1.7,0.3-3.4,0.7-4.7,0.9l-0.2-0.9c1.2-0.2,3-0.5,4.8-0.8L678.9,95z M682.9,90.4c-0.4,1.5-1,2.8-1.8,3.9c0.3,0.8,0.8,1.4,1.3,1.5
		c0.2,0.1,0.4-0.6,0.5-1.6c0.2,0.2,0.5,0.4,0.8,0.5c-0.2,1.7-0.8,2.4-1.6,2.1c-0.7-0.1-1.2-0.7-1.7-1.6c-0.6,0.7-1.3,1.3-2.1,1.8
		c-0.1-0.2-0.5-0.6-0.7-0.8c0.9-0.5,1.7-1.2,2.4-2.1c-0.4-1.3-0.7-2.9-0.9-4.7h-4.9v-0.9h4.8c0-0.6-0.1-1.1-0.1-1.7h1
		c0,0.6,0.1,1.1,0.1,1.7h3.5v0.9h-3.4c0.1,1.4,0.3,2.7,0.6,3.7c0.5-0.9,0.9-1.9,1.2-2.9L682.9,90.4z M678.3,90.4v3.1h-3.5v-3.1
		H678.3z M677.5,91.2h-1.8v1.6h1.8V91.2z M682.6,88.3c-0.4-0.4-1.1-0.8-1.7-1.1l0.6-0.6c0.6,0.3,1.4,0.7,1.7,1.1L682.6,88.3z"/>
	<path class="st6" d="M692.6,85.6c-0.4,1.3-1,2.9-1.5,4.2c1.1,1.3,1.4,2.5,1.4,3.5c0,0.9-0.2,1.6-0.6,1.9c-0.2,0.2-0.5,0.3-0.8,0.3
		c-0.3,0-0.7,0-1.1,0c0-0.3-0.1-0.7-0.3-1c0.4,0,0.7,0,0.9,0c0.2,0,0.4-0.1,0.5-0.2c0.3-0.2,0.3-0.6,0.3-1.1c0-0.9-0.3-2-1.4-3.2
		c0.4-1.2,0.9-2.5,1.2-3.6h-2v12.9h-1V85.3h3.5l0.2-0.1L692.6,85.6z M694.6,90c0.2-0.3,0.4-0.6,0.6-0.9c-0.4-0.4-0.9-0.9-1.4-1.3
		c-0.4,0.5-0.7,1-1.1,1.3c-0.2-0.2-0.6-0.5-0.8-0.6c1.1-0.9,2-2.4,2.5-3.9l0.9,0.2c-0.1,0.4-0.2,0.7-0.4,1h1.7l0.2,0l0.6,0.2
		c-0.4,2-1.3,3.7-2.4,4.9h4.6c-1-1.3-1.8-2.9-2.3-4.6l0.7-0.2v-0.7h3l0.2,0l0.7,0.4c-0.5,1.3-1.3,2.7-2.1,3.6
		c0.7,1.1,1.5,1.9,2.4,2.5c-0.2,0.2-0.5,0.6-0.7,0.8c-0.7-0.4-1.2-1-1.8-1.7V92h-4.9v-0.7c-0.5,0.6-1.1,1.1-1.7,1.4
		c-0.1-0.2-0.4-0.6-0.6-0.7C693.2,91.5,693.9,90.8,694.6,90c-0.8,0.2-1.6,0.3-2.3,0.4l-0.1-0.8c0.7-0.1,1.5-0.2,2.4-0.3L694.6,90z
		 M695.4,95.6c-0.6,1-1.5,2.2-2.2,2.9c-0.2-0.2-0.7-0.5-1-0.6c0.8-0.7,1.6-1.8,2.1-2.7L695.4,95.6z M697.8,94.4v4.8h-1.1v-4.8h-3.5
		v-1h8.1v1H697.8z M694.5,86.7c-0.1,0.1-0.2,0.3-0.3,0.4c0.5,0.4,1,0.8,1.4,1.2c0.2-0.5,0.4-1,0.6-1.6H694.5z M698.4,86.3
		c0.2,0.8,0.6,1.6,0.9,2.3c0.5-0.7,1-1.5,1.3-2.3H698.4z M699.9,95.1c0.8,0.8,1.8,2,2.3,2.7l-0.9,0.6c-0.5-0.7-1.5-1.9-2.3-2.8
		L699.9,95.1z"/>
	<path class="st6" d="M716.9,98.1c0.3,0,0.3-0.2,0.4-2.2c0.2,0.2,0.6,0.3,0.9,0.4c-0.1,2.2-0.3,2.8-1.2,2.8h-0.8
		c-0.9,0-1.1-0.3-1.1-1.4V94h-1c-0.2,2.3-0.8,4.1-2.8,5.2c-0.1-0.3-0.5-0.7-0.7-0.9h-4.8v0.8h-0.9v-5.4c-0.3,0.4-0.6,0.7-0.9,1.1
		c-0.1-0.2-0.4-0.6-0.6-0.8c0.9-0.9,1.7-2.1,2.1-3.4l0.8,0.3c-0.1,0.3-0.3,0.6-0.4,1h1.9c-0.1-0.3-0.3-0.6-0.5-0.8l0.8-0.3
		c0.3,0.4,0.5,0.8,0.7,1.2h2.1v0.9h-2.3v1h2v0.8h-2v1h2v0.8h-2v1.1h2.2v0.6c1.5-0.9,1.9-2.3,2.1-4.1h-1.4v-8.9h5.9V94H716v3.6
		c0,0.3,0,0.4,0.3,0.4H716.9z M705.8,86.5h-2.3v-0.9h2.3v-1h1v2.9h-1V86.5z M704.1,87.8h2.9v2.8h-2.9V87.8z M704.9,89.9h1.4v-1.4
		h-1.4V89.9z M707.8,92.8h-2v1h2V92.8z M707.8,94.6h-2v1h2V94.6z M705.8,97.5h2v-1.1h-2V97.5z M710.8,90.6h-2.9v-2.8h2.9V90.6z
		 M709.2,87.5h-1v-2.9h1v1h2.1v0.9h-2.1V87.5z M710.1,88.5h-1.4v1.4h1.4V88.5z M712.6,87.8h3.8v-1.6h-3.8V87.8z M712.6,90.4h3.8
		v-1.6h-3.8V90.4z M712.6,93h3.8v-1.6h-3.8V93z"/>
</g>
<g class="st4">
	<path class="st5" d="M814,109.1c0,1-0.2,1.5-0.9,1.8c-0.7,0.3-1.6,0.3-2.7,0.3c1.5,0.8,3.4,1.4,5.4,1.8c-0.5,0.5-1.2,1.5-1.5,2.1
		c-2.6-0.6-4.8-1.9-6.5-3.2v3.9h-2.6v-4c-1.8,1.6-4.1,2.8-6.6,3.4c-0.3-0.6-1-1.5-1.5-2c3.3-0.7,6.4-2.2,8.1-4.1v-1.4h-3.8v3.5h-2.5
		v-5.6h6.3v-1h-7.6v-2h5.4c-0.4-0.6-1.3-1.4-1.9-2l0.8-0.7h-1.2c-0.6,1-1.3,1.9-2.1,2.6c-0.3-0.4-1.1-1.2-1.6-1.6
		c1.2-1,2.3-2.6,2.9-4.2l2.1,0.6c-0.1,0.3-0.2,0.5-0.3,0.8h4.4v1.8h-2.8c0.5,0.5,1,1,1.3,1.3l-1.4,1.3h2.1v-1.1h1.8
		c-0.4-0.3-1-0.8-1.3-1c1.1-0.9,2-2.3,2.5-3.8l2.2,0.5c-0.1,0.3-0.2,0.6-0.3,0.9h5.5v1.8H812c0.5,0.4,1.1,0.9,1.4,1.3l-1.6,1.4
		c-0.4-0.5-1.3-1.3-2-1.9l0.8-0.7H809c-0.4,0.6-0.8,1.1-1.2,1.6v1h7.2v2h-7.2v1h6.2V109.1z M807.8,109.5c0.7,0.6,1.5,1.1,2.5,1.7
		c-0.2-0.6-0.5-1.3-0.8-1.8c0.7,0.1,1.5,0,1.7,0c0.2,0,0.3-0.1,0.3-0.3v-1.4h-3.7V109.5z"/>
	<path class="st5" d="M835.9,99.9c-0.8,1.9-2,3.6-3.4,4.9c1.1,0.7,2.4,1.2,3.7,1.5c-0.2,0.6-0.5,1.7-0.5,2.4
		c-0.3-0.1-0.5-0.2-0.8-0.3v7.1h-2.2v-1h-4.1v1h-2.1v-7.2c-0.3,0.1-0.7,0.3-1,0.4c-0.1-0.5-0.4-1.2-0.6-1.7v5.2h-5.2v1.3H818V98.5h7
		v3.9c1.5-1.3,2.9-3.3,3.7-5.4l2,0.6c-0.2,0.5-0.4,1-0.7,1.5h4.1l0.4-0.1L835.9,99.9z M819.8,100.5v3.8h1.1v-3.8H819.8z
		 M819.8,110.2h1.1v-4.1h-1.1V110.2z M823.3,100.5h-1v3.8h1V100.5z M823.3,110.2v-4.1h-1v4.1H823.3z M825,106.4
		c1.5-0.4,2.9-1,4.1-1.7c-0.5-0.6-1-1.2-1.5-1.9c-0.5,0.6-1,1.1-1.5,1.5c-0.2-0.4-0.8-1.2-1.2-1.7V106.4z M833.9,108
		c-1.1-0.5-2.2-1.1-3.1-1.8c-1,0.7-2.1,1.3-3.2,1.8H833.9z M832.8,112.5v-2.4h-4.1v2.4H832.8z M829,101.3c0.4,0.8,1,1.6,1.7,2.2
		c0.8-0.7,1.4-1.4,2-2.2H829z"/>
	<path class="st5" d="M856,112.9v2.2h-18v-2.2h7.8v-1.6H840v-2.2h5.8v-1.3h-1.5V104h-1.8c-0.3,1.6-1.2,3.3-3.1,4.4
		c-0.3-0.4-1.1-1.3-1.6-1.7c1.5-0.8,2.1-1.7,2.4-2.7h-2v-2.1h2.3v-2.1h-1.6v-2.1h9.1v2.1h-1.4v2.1h1.9v2.1h-1.9v3.5h1.7v1.6h5.8v2.2
		h-5.8v1.6H856z M844.3,101.9v-2.1h-1.7v2.1H844.3z M851.5,105h-2.2v-6.8h2.2V105z M855.2,105.8c0,1.1-0.2,1.7-1,2
		c-0.7,0.3-1.7,0.4-3.1,0.4c-0.1-0.6-0.4-1.5-0.7-2.1c0.9,0,1.9,0,2.2,0c0.3,0,0.4-0.1,0.4-0.3v-8.5h2.3V105.8z"/>
	<path class="st5" d="M860.5,104.1c-0.4,0.5-0.8,0.9-1.3,1.4c-0.3-0.7-0.8-1.5-1.3-2.1c1.7-1.4,3.5-3.8,4.5-6.4l1.8,1.1
		c-0.1,0.3-0.3,0.7-0.4,1c1.2,1.1,2.6,2.5,3.2,3.4l-1.1,1.9c-0.2-0.3-0.5-0.6-0.8-1v1.8h-4.6V104.1z M866.9,107.3
		c-0.7,1.9-1.9,4-3,5.4c0.5,0.5,0.9,1,1.3,1.4l-1.6,1.4c-0.9-1.2-2.7-3-4.1-4.2l1.5-1.3c0.4,0.3,0.9,0.7,1.4,1.2
		c0.7-0.8,1.4-1.9,1.9-2.9h-5.3v-2h6.2l0.3-0.1L866.9,107.3z M864.9,103.1c-0.6-0.7-1.4-1.5-2.1-2.3c-0.5,0.8-1,1.6-1.5,2.3H864.9z
		 M871.3,113c-1.1,1-2.8,2.2-4.3,2.7c-0.4-0.4-1-1.1-1.5-1.5c1.4-0.6,3.1-1.6,3.9-2.5L871.3,113z M876,111.8h-8.7v-10.6h2.9
		c0.1-0.4,0.1-0.9,0.2-1.3h-3.7v-2h9.9v2h-3.6c-0.1,0.5-0.3,0.9-0.4,1.3h3.5V111.8z M873.8,102.9h-4.4v1.2h4.4V102.9z M873.8,105.8
		h-4.4v1.3h4.4V105.8z M873.8,108.7h-4.4v1.3h4.4V108.7z M873.8,111.9c1,0.7,2.5,1.8,3.2,2.6l-1.8,1.3c-0.6-0.7-2-1.9-3.1-2.7
		L873.8,111.9z"/>
	<path class="st5" d="M892.8,110.1h4.1v1.8h-4.1v1.8c0,1.1-0.2,1.6-1,1.9c-0.8,0.3-1.9,0.3-3.3,0.3c-0.1-0.6-0.4-1.5-0.7-2.1
		c1,0.1,2.1,0.1,2.4,0c0.3,0,0.4-0.1,0.4-0.3v-1.8h-6c0.8,0.6,1.6,1.2,2.1,1.8l-1.7,1.5c-0.5-0.7-1.7-1.7-2.6-2.3l1.1-0.9h-4.4v-1.8
		h11.7v-0.7h-1c-2.3,0-4-0.2-5.4-0.9c-0.8-0.4-1.3-0.8-1.8-0.8c-0.6,0-1.5,1-2.3,2l-1.2-1.9c0.5-0.4,1.1-0.9,1.6-1.2
		c0.6-0.6,1.1-1.5,1.5-2.4H879c0.5-0.8,1-1.8,1.5-2.8h-1.9v-1.7h1.8c-0.2-0.6-0.5-1.4-0.7-2.1l2-0.6c0.3,0.7,0.6,1.6,0.8,2.1
		l-1.6,0.6h2.6c-0.4,0.9-0.9,1.9-1.4,2.8h0.9l0.3-0.1l1.1,0.5c-0.3,1.1-0.8,2.2-1.5,3.2c0.4,0.2,0.8,0.4,1.4,0.7
		c1.2,0.6,3.1,0.7,5.1,0.7c2.2,0,5.7-0.2,7.8-0.5c-0.2,0.6-0.6,1.6-0.6,2.1c-0.9,0.1-2.4,0.1-3.9,0.2V110.1z M888.8,100.9
		c0.1-0.2,0.1-0.4,0.2-0.6h-4.9v-1.6h2.9c-0.2-0.4-0.4-0.9-0.6-1.3l1.9-0.5c0.4,0.5,0.8,1.2,1,1.8h2.4c0.3-0.5,0.6-1.2,0.8-1.7
		l2.2,0.4c-0.3,0.5-0.6,0.9-0.9,1.3h2.9v1.6h-5.5c-0.1,0.2-0.2,0.4-0.3,0.6h4.3v6h-9.8v-6H888.8z M893,102h-5.3v0.6h5.3V102z
		 M893,103.6h-5.3v0.6h5.3V103.6z M893,105.2h-5.3v0.6h5.3V105.2z"/>
	<path class="st5" d="M916.6,101.2c0,0,0,0.8-0.1,1.1c-0.4,8-0.8,11-1.7,12c-0.6,0.8-1.2,1-2,1.1c-0.7,0.1-2,0.1-3.2,0
		c0-0.7-0.4-1.8-0.8-2.5c1.3,0.1,2.4,0.1,3,0.1c0.4,0,0.7-0.1,0.9-0.3c0.6-0.6,1-3.2,1.3-9.2h-5.6c-0.3,4.1-1.7,9-7.3,12.2
		c-0.4-0.6-1.3-1.5-1.9-1.9c5-2.7,6.3-6.7,6.6-10.2h-6v-2.4h6.1v-4.1h2.5v4.1H916.6z"/>
</g>
<g class="st4">
	<path class="st6" d="M802.1,33c1.5,2.2,4.2,4.4,6.8,5.4c-0.2,0.2-0.6,0.7-0.8,1c-2.4-1.1-4.9-3.2-6.6-5.3c-1.6,2-4.4,4.3-6.6,5.5
		c-0.1-0.3-0.5-0.7-0.7-1c2-0.9,4.4-2.7,6-4.5h-2.8V33H802.1z M802,45.7h6.2v1.1h-13.5v-1.1h6.1V43h-4.5V42h4.5v-2.4H797v-1.1h8.9
		v1.1H802V42h4.5V43H802V45.7z"/>
	<path class="st6" d="M815.4,43.9c-1.8,0.6-3.7,1.2-5.1,1.6l-0.3-1.2c0.6-0.2,1.3-0.4,2.1-0.6v-4.4h-1.8v-1.1h1.8v-3.5h-1.9v-1.1
		h4.9v1.1h-1.8v3.5h1.6v1.1h-1.6v4.1l2-0.6L815.4,43.9z M824.5,37.9c-0.8,1.2-1.9,2.5-2.8,3.4c0.7,1.6,1.7,2.7,3.3,3.8
		c-0.3,0.2-0.6,0.6-0.8,0.9c-1.8-1.3-2.9-2.8-3.7-4.8v4.5c0,0.7-0.2,1.1-0.6,1.2c-0.5,0.2-1.2,0.3-2.4,0.3c-0.1-0.3-0.3-0.8-0.4-1.2
		c0.9,0,1.7,0,2,0c0.3,0,0.4-0.1,0.4-0.4V42c-1.3,1.3-2.7,2.6-3.8,3.7l-0.7-1c1.1-0.9,2.8-2.5,4.5-4v-4.2h-3.9v-1.1h3.9v-2.8h1.2
		v2.8h4.2v1.1h-4.2v0.6c0.2,1.3,0.4,2.4,0.8,3.3c0.8-0.9,1.6-2.1,2.1-3L824.5,37.9z M816.7,37.5c0.7,0.9,1.5,2.1,1.7,3l-1,0.5
		c-0.3-0.8-1-2.1-1.7-3L816.7,37.5z M823.2,35.2c-0.4-0.5-1.2-1.3-1.9-1.8l0.7-0.6c0.7,0.5,1.5,1.2,1.9,1.7L823.2,35.2z"/>
	<path class="st6" d="M831.5,42.4c-0.3-0.5-1-1.3-1.6-2v6.9h-1.2v-6.5c-0.7,0.7-1.5,1.4-2.2,1.8c-0.1-0.3-0.4-0.9-0.5-1.1
		c1.8-1.1,3.6-3,4.6-5h-4.2v-1.1h4.8l0.2,0l0.6,0.5c-0.5,1.2-1.2,2.3-2,3.4c0.6,0.6,1.9,1.9,2.2,2.2L831.5,42.4z M829.5,35.3
		c-0.3-0.6-0.9-1.5-1.5-2.1l0.9-0.6c0.6,0.6,1.2,1.4,1.5,2L829.5,35.3z M839.5,46.1c0.3,0,0.4-0.2,0.4-2c0.2,0.2,0.7,0.4,1,0.4
		c-0.1,2.1-0.4,2.6-1.3,2.6h-1.3c-1.1,0-1.3-0.3-1.3-1.5v-3.8h-1.4c-0.3,2.6-1,4.4-3.8,5.3c-0.1-0.3-0.4-0.7-0.7-0.9
		c2.5-0.8,3.1-2.3,3.3-4.5H833v-8.6h6.9v8.6H838v3.7c0,0.4,0,0.4,0.4,0.4H839.5z M834.1,35.9h4.7v-1.6h-4.7V35.9z M834.1,38.4h4.7
		v-1.6h-4.7V38.4z M834.1,41h4.7v-1.6h-4.7V41z"/>
	<path class="st6" d="M846.7,44.9c1.1-0.1,2.2-0.3,3.2-0.4l0,1.1c-2.8,0.4-5.7,0.8-7.7,1.1l-0.1-1.2c0.9-0.1,2.1-0.3,3.4-0.4v-2.3
		h-2.9v-1.1h2.9v-1.8h-2.8v-6.4h6.9v6.4h-2.9v1.8h2.9v1.1h-2.9V44.9z M843.7,36.1h1.9v-1.7h-1.9V36.1z M843.7,38.8h1.9v-1.7h-1.9
		V38.8z M848.5,34.4h-1.9v1.7h1.9V34.4z M848.5,37.1h-1.9v1.7h1.9V37.1z M856.9,38.7c-0.4,1.3-0.9,2.8-1.3,3.8l-1-0.3
		c0.3-0.6,0.6-1.6,0.9-2.5h-1.9v6.1c0,0.7-0.1,1-0.6,1.2c-0.5,0.2-1.3,0.2-2.5,0.2c0-0.4-0.2-0.8-0.4-1.2c0.9,0,1.8,0,2,0
		c0.3,0,0.3-0.1,0.3-0.3v-6.1h-2.6v-1.1h4.2c-0.9-0.8-2.2-1.7-3.3-2.3l0.8-0.7c0.5,0.3,1.1,0.6,1.6,0.9c0.6-0.6,1.3-1.3,1.8-1.9
		h-4.7v-1.1h5.6l0.3-0.1l0.8,0.5c-0.7,1.1-1.8,2.2-2.8,3.1c0.6,0.4,1.1,0.8,1.4,1.2l-0.3,0.4h1l0.2,0L856.9,38.7z"/>
	<path class="st6" d="M870,43.2c-0.8,0.9-1.8,1.6-3,2.1c1.8,0.5,3.8,0.8,5.7,1c-0.2,0.3-0.5,0.7-0.6,1c-2.3-0.2-4.5-0.7-6.5-1.4
		c-2.1,0.7-4.6,1.2-7,1.4c-0.1-0.3-0.4-0.8-0.6-1c2.1-0.2,4.3-0.5,6.1-1c-1-0.4-2-1-2.8-1.6c-0.8,0.6-1.6,1.1-2.4,1.5
		c-0.1-0.2-0.5-0.7-0.7-0.9c1.7-0.7,3.3-1.7,4.2-3.1l1,0.3c-0.2,0.3-0.4,0.5-0.5,0.7h9.1v0.9H870z M859.5,39.3
		c-0.1,0.9-0.3,2-0.6,2.7c-0.2-0.1-0.5-0.3-0.7-0.4c0.3-0.7,0.4-1.6,0.5-2.4L859.5,39.3z M862.3,38.8c0-0.2-0.1-0.4-0.2-0.6
		c-2.8,0.4-3.2,0.5-3.4,0.6c0-0.2-0.2-0.6-0.3-0.9c0.3,0,0.6-0.3,1-0.7c0.2-0.2,0.6-0.6,1.1-1.2c-1.2,0.1-1.6,0.2-1.7,0.2
		c0-0.2-0.2-0.6-0.3-0.9c0.2,0,0.4-0.2,0.7-0.5c0.2-0.3,1-1.3,1.4-2.4l0.9,0.3c-0.5,0.9-1.1,1.8-1.6,2.4l1.3-0.1
		c0.3-0.4,0.6-0.8,0.9-1.2l0.9,0.4c-0.8,1.2-1.8,2.4-2.8,3.3l1.9-0.2c-0.1-0.3-0.3-0.7-0.4-1l0.7-0.2c0.4,0.7,0.7,1.7,0.8,2.3
		L862.3,38.8z M860.4,41.5c0-0.6-0.1-1.5-0.3-2.3l0.7-0.2c0.2,0.7,0.3,1.6,0.4,2.2L860.4,41.5z M862.1,41.2c-0.1-0.5-0.3-1.4-0.5-2
		l0.7-0.2c0.2,0.6,0.5,1.5,0.5,2L862.1,41.2z M862.3,43.2c0.8,0.7,2,1.2,3.3,1.7c1.2-0.5,2.2-1,3-1.7H862.3z M867.9,34.7H863V34h2.1
		c-0.1-0.4-0.3-0.8-0.5-1.1l0.9-0.3c0.3,0.4,0.6,1,0.7,1.4h1.8V34.7z M867.6,36.1h-4.3v-0.7h4.3V36.1z M867.5,37.6h-4.3v-0.7h4.3
		V37.6z M863.4,41.3v-2.9h4.1v2.9H863.4z M864.2,40.5h2.5v-1.4h-2.5V40.5z M871.9,38.8c0-0.2-0.1-0.4-0.2-0.7
		c-2.8,0.4-3.3,0.5-3.5,0.6c0-0.2-0.2-0.6-0.3-0.8c0.3,0,0.6-0.3,1-0.7c0.2-0.2,0.6-0.6,1-1.2c-1.3,0.1-1.6,0.2-1.8,0.3
		c0-0.2-0.2-0.6-0.3-0.9c0.2,0,0.4-0.2,0.6-0.5c0.2-0.3,1-1.3,1.5-2.4l0.9,0.3c-0.5,0.9-1.1,1.8-1.6,2.4l1.3-0.1
		c0.3-0.4,0.6-0.8,0.9-1.2l0.8,0.4c-0.8,1.2-1.8,2.3-2.7,3.2l1.9-0.2c-0.1-0.3-0.3-0.7-0.4-1l0.8-0.2c0.4,0.7,0.7,1.7,0.8,2.3
		L871.9,38.8z M869.2,39.2c-0.1,0.8-0.3,1.8-0.5,2.5c-0.2-0.1-0.5-0.3-0.7-0.4c0.2-0.7,0.4-1.5,0.4-2.3L869.2,39.2z M870,41.4
		c0-0.6-0.1-1.6-0.3-2.3l0.7-0.1c0.2,0.7,0.3,1.6,0.3,2.2L870,41.4z M871.8,41.3c-0.1-0.6-0.4-1.6-0.6-2.3l0.7-0.2
		c0.3,0.7,0.5,1.7,0.6,2.3L871.8,41.3z"/>
	<path class="st6" d="M888.6,44.7H882v2.5h-1.2v-2.5h-6.5v-1.1h6.5v-1.4h-4.7v-3.8h4.7v-1.1h-2.9V35h-3.3v-1h3.3v-1.4h1.2V34h4.8
		v-1.4h1.2V34h3.3v1H885v2.3h-3v1.1h4.9v3.8H882v1.4h6.5V44.7z M880.8,41.3v-1.9h-3.6v1.9H880.8z M879.1,36.4h4.8V35h-4.8V36.4z
		 M882,39.4v1.9h3.6v-1.9H882z"/>
	<path class="st6" d="M892.7,34.7c-0.5,0.8-1.1,1.5-1.7,2.1c-0.2-0.2-0.6-0.6-0.8-0.8c1-0.9,1.9-2.2,2.4-3.5l1.1,0.3
		c-0.1,0.3-0.3,0.6-0.5,1h4.1v1h-3c0.5,0.4,1.1,1,1.4,1.4l-0.8,0.7c-0.3-0.4-1-1.1-1.5-1.6l0.6-0.5H892.7z M897.6,35.9
		c0.2,0.4,0.5,0.8,0.6,1.2h5.8v2.6h-1.2V38h-10.6v1.7h-1.2v-2.6h5.9c-0.1-0.3-0.3-0.7-0.5-1L897.6,35.9z M894.1,43.3h8.9v3.9h-1.2
		v-0.5h-7.7v0.5h-1.2V39h9.2v3.2h-8V43.3z M894.1,39.9v1.4h6.9v-1.4H894.1z M894.1,44.2v1.5h7.7v-1.5H894.1z M904.7,33.8v0.9h-3.4
		c0.6,0.5,1.3,1.1,1.6,1.5l-0.8,0.7c-0.4-0.4-1.1-1.1-1.7-1.6l0.7-0.6h-1.8c-0.4,0.5-0.8,1-1.2,1.3c-0.2-0.2-0.6-0.5-0.9-0.7
		c0.9-0.7,1.6-1.7,2-2.8l1.1,0.3c-0.1,0.3-0.3,0.7-0.4,1H904.7z"/>
	<path class="st6" d="M911.3,43.9c-1.7,0.6-3.5,1.2-5,1.7l-0.3-1.2c0.6-0.2,1.3-0.4,2.1-0.7v-4.3h-1.8v-1.1h1.8v-3.5h-2v-1.1h5v1.1
		h-1.8v3.5h1.6v1.1h-1.6v4l1.7-0.6L911.3,43.9z M920.9,45.6v1.1h-10.3v-1.1h4.9v-2.2h-3.6v-1.1h3.6v-1.9H912v-7.1h8.1v7.1h-3.5v1.9
		h3.7v1.1h-3.7v2.2H920.9z M913.1,36.4h2.4v-2h-2.4V36.4z M913.1,39.4h2.4v-2h-2.4V39.4z M919,34.4h-2.4v2h2.4V34.4z M919,37.4h-2.4
		v2h2.4V37.4z"/>
</g>
<g class="st4">
	<path class="st6" d="M248.7,422.8l1.5-0.2c0.2,0.8,0.5,1.5,0.9,1.8c0.4,0.4,0.9,0.6,1.5,0.6c0.7,0,1.3-0.2,1.8-0.7
		c0.5-0.5,0.7-1.1,0.7-1.8c0-0.7-0.2-1.3-0.7-1.7s-1-0.7-1.7-0.7c-0.3,0-0.6,0.1-1.1,0.2l0.2-1.3c0.1,0,0.2,0,0.2,0
		c0.6,0,1.2-0.2,1.7-0.5s0.8-0.8,0.8-1.5c0-0.5-0.2-1-0.6-1.4c-0.4-0.4-0.8-0.5-1.4-0.5c-0.6,0-1.1,0.2-1.5,0.5s-0.6,0.9-0.7,1.6
		l-1.5-0.3c0.2-1,0.6-1.8,1.2-2.3s1.5-0.8,2.4-0.8c0.7,0,1.3,0.1,1.8,0.4s1,0.7,1.3,1.2c0.3,0.5,0.4,1,0.4,1.6c0,0.5-0.1,1-0.4,1.4
		s-0.7,0.8-1.3,1c0.7,0.2,1.3,0.5,1.7,1c0.4,0.5,0.6,1.2,0.6,2c0,1.1-0.4,2-1.2,2.7c-0.8,0.7-1.8,1.1-2.9,1.1c-1.1,0-2-0.3-2.7-1
		C249.2,424.6,248.8,423.8,248.7,422.8z"/>
</g>
<g class="st4">
	<path class="st6" d="M381.7,422.8l1.6-0.1c0.1,0.8,0.4,1.3,0.8,1.7c0.4,0.4,0.9,0.6,1.5,0.6c0.7,0,1.3-0.3,1.8-0.8
		c0.5-0.5,0.7-1.3,0.7-2.2c0-0.9-0.2-1.5-0.7-2c-0.5-0.5-1.1-0.7-1.9-0.7c-0.5,0-0.9,0.1-1.3,0.3s-0.7,0.5-0.9,0.9l-1.4-0.2l1.2-6.3
		h6.1v1.4h-4.9l-0.7,3.3c0.7-0.5,1.5-0.8,2.3-0.8c1.1,0,2,0.4,2.7,1.1c0.7,0.7,1.1,1.7,1.1,2.8c0,1.1-0.3,2.1-1,2.9
		c-0.8,1-1.8,1.5-3.2,1.5c-1.1,0-2-0.3-2.7-0.9C382.2,424.7,381.8,423.8,381.7,422.8z"/>
</g>
<g class="st4">
	<path class="st6" d="M531.8,415.4V414h7.9v1.2c-0.8,0.8-1.5,1.9-2.3,3.3c-0.8,1.4-1.3,2.8-1.8,4.2c-0.3,1-0.5,2.1-0.6,3.3h-1.5
		c0-1,0.2-2.1,0.6-3.5s0.9-2.7,1.5-3.9c0.7-1.3,1.4-2.3,2.1-3.2H531.8z"/>
</g>
<g class="st4">
	<path class="st6" d="M728.3,426h-1.5v-9.5c-0.4,0.3-0.8,0.7-1.4,1c-0.6,0.3-1.1,0.6-1.6,0.8v-1.4c0.8-0.4,1.6-0.9,2.2-1.4
		c0.6-0.6,1.1-1.1,1.3-1.6h1V426z"/>
	<path class="st6" d="M732.2,420c0-1.4,0.1-2.6,0.4-3.5c0.3-0.9,0.7-1.6,1.3-2s1.3-0.7,2.2-0.7c0.7,0,1.2,0.1,1.7,0.4
		c0.5,0.3,0.9,0.6,1.2,1.1s0.6,1.1,0.8,1.8c0.2,0.7,0.3,1.7,0.3,2.9c0,1.4-0.1,2.6-0.4,3.5c-0.3,0.9-0.7,1.6-1.3,2s-1.3,0.7-2.2,0.7
		c-1.2,0-2.1-0.4-2.8-1.3C732.6,423.9,732.2,422.3,732.2,420z M733.7,420c0,2,0.2,3.3,0.7,4c0.5,0.7,1,1,1.7,1s1.3-0.3,1.7-1
		c0.5-0.7,0.7-2,0.7-4c0-2-0.2-3.3-0.7-4c-0.5-0.7-1.1-1-1.7-1c-0.7,0-1.2,0.3-1.6,0.9C734,416.6,733.7,418,733.7,420z"/>
</g>
<g class="st4">
	<path class="st6" d="M988.3,426h-1.5v-9.5c-0.4,0.3-0.8,0.7-1.4,1c-0.6,0.3-1.1,0.6-1.6,0.8v-1.4c0.8-0.4,1.6-0.9,2.2-1.4
		c0.6-0.6,1.1-1.1,1.3-1.6h1V426z"/>
	<path class="st6" d="M992.2,422.8l1.6-0.1c0.1,0.8,0.4,1.3,0.8,1.7c0.4,0.4,0.9,0.6,1.5,0.6c0.7,0,1.3-0.3,1.8-0.8
		c0.5-0.5,0.7-1.3,0.7-2.2c0-0.9-0.2-1.5-0.7-2c-0.5-0.5-1.1-0.7-1.9-0.7c-0.5,0-0.9,0.1-1.3,0.3c-0.4,0.2-0.7,0.5-0.9,0.9l-1.4-0.2
		l1.2-6.3h6.1v1.4h-4.9l-0.7,3.3c0.7-0.5,1.5-0.8,2.3-0.8c1.1,0,2,0.4,2.7,1.1c0.7,0.7,1.1,1.7,1.1,2.8c0,1.1-0.3,2.1-1,2.9
		c-0.8,1-1.8,1.5-3.2,1.5c-1.1,0-2-0.3-2.7-0.9C992.7,424.7,992.3,423.8,992.2,422.8z"/>
</g>
<g class="st4">
	<path class="st7" d="M1035,399.2h-7v4.4h-1.9v-4.4h-9.1v-1.8h3.2v-5.3h5.9v-2.8h-4.6c-0.9,1.5-1.9,2.8-2.9,3.8
		c-0.4-0.3-1.2-0.9-1.6-1.2c1.8-1.6,3.4-4.1,4.4-6.8l1.9,0.5c-0.2,0.6-0.5,1.3-0.8,1.9h11.6v1.8h-6v2.8h5.6v1.7h-5.6v3.5h7V399.2z
		 M1026.1,397.4v-3.5h-4v3.5H1026.1z"/>
	<path class="st7" d="M1049.3,388.2c0,0.1,0,0.3,0,0.5c1.1,1.1,3.2,1.8,5.9,1.9c-0.4,0.4-0.8,1-1,1.5c-2.3-0.3-4.1-1-5.4-2.2
		c-0.7,0.9-2.3,1.8-5.7,2.3c-0.2-0.4-0.6-1-0.9-1.4h-5.1v-1.5h5.8v1.3c4.3-0.6,4.8-1.7,4.8-2.5v-0.3h-1.7c-0.4,0.7-0.9,1.4-1.5,1.9
		c-0.3-0.3-1-0.7-1.4-0.9c1-0.9,1.9-2.3,2.3-3.7l1.7,0.4c-0.1,0.3-0.2,0.7-0.4,1h6.2l0.3-0.1l1.3,0.4c-0.5,1.1-1.2,2.2-1.7,3
		l-1.5-0.5c0.3-0.4,0.6-0.9,0.8-1.4h-2.8V388.2z M1049.2,400.3c2.1,0.7,4.3,1.5,5.6,2.2l-1.7,1c-1.2-0.7-3.3-1.6-5.4-2.3l1.2-0.9h-6
		l1.7,0.8c-1.6,1-4.1,1.9-6.1,2.5c-0.3-0.4-1-1.1-1.4-1.4c2-0.4,4.4-1.1,5.8-1.9h-3.2v-8h13v8H1049.2z M1042.3,387.7h-4.9v-1.4h4.9
		V387.7z M1041.4,394.6h9.4v-1.1h-9.4V394.6z M1041.4,396.9h9.4v-1.1h-9.4V396.9z M1041.4,399.2h9.4V398h-9.4V399.2z"/>
</g>
<g class="st4">
	<path class="st7" d="M67.7,7c-0.9,2.6-2,4.9-3.5,6.8c0.7,2,1.7,3.1,2.7,3.1c0.6,0,0.8-1,0.9-3.7c0.3,0.3,0.9,0.7,1.3,0.8
		c-0.3,3.4-0.8,4.4-2.3,4.4c-1.5,0-2.7-1.2-3.7-3.3c-1.2,1.3-2.6,2.4-4.1,3.3c-0.2-0.3-0.7-0.9-1.1-1.2c1.8-1,3.3-2.2,4.6-3.7
		c-0.7-2.3-1.2-5.2-1.5-8.4h-6.9v2.6h5.1v0.6c-0.1,4.5-0.2,6.2-0.6,6.7c-0.3,0.4-0.6,0.5-1.2,0.6c-0.5,0-1.4,0-2.4,0
		c0-0.5-0.2-1-0.4-1.4c0.9,0.1,1.8,0.1,2.1,0.1c0.3,0,0.5,0,0.6-0.2c0.3-0.3,0.4-1.6,0.5-5h-3.6v0.2c0,2.8-0.3,6.8-2.1,9.4
		c-0.3-0.3-0.9-0.8-1.2-1c1.6-2.4,1.8-5.9,1.8-8.4V3.7H61c-0.1-1.1-0.1-2.2-0.1-3.4h1.5c0,1.2,0,2.3,0.1,3.4h6.5v1.5h-6.4
		c0.2,2.7,0.6,5,1.1,6.9c1.1-1.6,1.9-3.4,2.6-5.4L67.7,7z M64.3,0.4c1.2,0.6,2.8,1.6,3.6,2.3l-0.9,1c-0.8-0.7-2.3-1.7-3.5-2.4
		L64.3,0.4z"/>
	<path class="st7" d="M88,12.2c-1.3,0.9-2.9,1.9-4.3,2.6c1.5,1.1,3.4,1.9,5.7,2.3c-0.3,0.3-0.7,0.9-0.9,1.3c-4.6-1-7.7-3.4-9.4-7.2
		h-3.2v5.4l5.4-1.3c0,0.4-0.1,1,0,1.3c-5.6,1.4-6.6,1.7-7,1.9l-0.1,0.1c-0.1-0.4-0.4-1.1-0.7-1.5c0.4-0.2,1-0.6,1-1.4v-4.5h-3.2V9.8
		h3.5V1.1h12.3v1.3H76.1V4h10.2v1.2H76.1v1.7h10.2v1.2H76.1v1.7h12.7v1.3h-8.3c0.6,1.1,1.3,2,2.1,2.8c1.4-0.8,3.1-1.8,4.1-2.6
		L88,12.2z"/>
</g>
<g class="st4">
	<path class="st6" d="M15.2,284.7h-3.8v2.3c0,0.6-0.1,0.9-0.6,1.1c-0.5,0.2-1.3,0.2-2.6,0.2c0-0.3-0.2-0.7-0.4-1c1,0,1.9,0,2.1,0
		c0.2,0,0.3-0.1,0.3-0.3v-2.3H4.2c0.9,0.5,2.1,1.4,2.6,2L6,287.4c-0.6-0.6-1.7-1.5-2.6-2.1l0.8-0.7H0.8v-1h9.5v-1
		c-3.3,0.1-6.5,0.2-8.8,0.2l0-0.9c1.6,0,3.7,0,6,0V281H2.5v-4.3h4.9v-0.9H1.3v-1h6.1v-1.2h1.2v1.2h6v1h-6v0.9h5.1v4.3h-1.9
		c1.1,0.4,2.2,1.1,2.9,1.6l-0.7,0.7c-0.2-0.2-0.6-0.4-0.9-0.6l-1.6,0v1h3.8V284.7z M3.6,278.5h3.8v-1H3.6V278.5z M7.4,280.2v-1H3.6
		v1H7.4z M8.5,277.5v1h3.9v-1H8.5z M12.4,279.2H8.5v1h3.9V279.2z M8.5,281.9l3,0c-0.4-0.2-0.8-0.4-1.2-0.5l0.4-0.3H8.5V281.9z"/>
	<path class="st6" d="M22.6,285.7c-1.2,0.9-3.2,1.7-4.9,2.1c-0.2-0.3-0.5-0.7-0.7-0.9c1.6-0.3,3.7-0.9,4.7-1.6L22.6,285.7z
		 M31,283.4v1h-6.4v3.8h-1.2v-3.8h-6.3v-1h6.3v-1.2h-4.8v-0.9h4.8v-1.2h-5.6v-1h3.5c-0.2-0.4-0.5-1.1-0.8-1.5l0.8-0.2h-4.1v-1h2.6
		c-0.2-0.6-0.8-1.6-1.3-2.3l1-0.4c0.6,0.7,1.1,1.7,1.4,2.4l-0.8,0.3h2v-2.8h1.1v2.8H25v-2.8h1.1v2.8H28l-0.6-0.2
		c0.4-0.7,1-1.7,1.2-2.4l1.2,0.3c-0.4,0.8-1,1.7-1.4,2.3h2.5v1h-4.2l1,0.3c-0.4,0.5-0.8,1.1-1.1,1.5h3.7v1h-5.8v1.2h5v0.9h-5v1.2H31
		z M21.6,277.4c0.4,0.5,0.7,1.2,0.8,1.6l-0.7,0.2h4.4l-0.6-0.2c0.3-0.4,0.7-1.1,0.9-1.6H21.6z M26.3,285.2c1.5,0.5,3.5,1.3,4.6,1.8
		l-0.7,0.8c-1.1-0.5-3.1-1.3-4.6-1.9L26.3,285.2z"/>
	<path class="st6" d="M46.5,277.1c0,0,0,0.4,0,0.6c-0.4,6.6-0.7,8.9-1.4,9.7c-0.4,0.4-0.8,0.6-1.4,0.6c-0.6,0-1.6,0-2.6,0
		c0-0.4-0.2-0.9-0.4-1.2c1.1,0.1,2.1,0.1,2.5,0.1c0.3,0,0.5,0,0.7-0.2c0.6-0.5,0.9-2.8,1.2-8.4h-5.5c-0.2,3.3-1.3,7.2-5.9,10
		c-0.2-0.3-0.6-0.8-0.9-0.9c4.3-2.6,5.4-6.1,5.6-9.1h-5.1v-1.2h5.2c0-0.2,0-0.5,0-0.7v-2.8h1.2v2.8c0,0.2,0,0.4,0,0.7H46.5z"/>
</g>
<g class="st4">
	<path class="st6" d="M3.2,166.7c-0.5,0.8-1.1,1.5-1.7,2.1c-0.2-0.2-0.6-0.6-0.8-0.8c1-0.9,1.9-2.2,2.4-3.5l1.1,0.3
		c-0.1,0.3-0.3,0.6-0.5,1h4.1v1h-3c0.5,0.4,1.1,1,1.4,1.4l-0.8,0.7c-0.3-0.4-1-1.1-1.5-1.6l0.6-0.5H3.2z M8.1,167.9
		c0.2,0.4,0.5,0.8,0.6,1.2h5.8v2.6h-1.2V170H2.8v1.7H1.7v-2.6h5.9c-0.1-0.3-0.3-0.7-0.5-1L8.1,167.9z M4.6,175.3h8.9v3.9h-1.2v-0.5
		H4.6v0.5H3.4V171h9.2v3.2h-8V175.3z M4.6,171.9v1.4h6.9v-1.4H4.6z M4.6,176.2v1.5h7.7v-1.5H4.6z M15.2,165.8v0.9h-3.4
		c0.6,0.5,1.3,1.1,1.6,1.5l-0.8,0.7c-0.4-0.4-1.1-1.1-1.7-1.6l0.7-0.6H9.8c-0.4,0.5-0.8,1-1.2,1.3c-0.2-0.2-0.6-0.5-0.9-0.7
		c0.9-0.7,1.6-1.7,2-2.8l1.1,0.3c-0.1,0.3-0.3,0.7-0.4,1H15.2z"/>
	<path class="st6" d="M21.9,175.9c-1.7,0.6-3.5,1.2-5,1.7l-0.3-1.2c0.6-0.2,1.3-0.4,2.1-0.7v-4.3h-1.8v-1.1h1.8v-3.5h-2v-1.1h5v1.1
		h-1.8v3.5h1.6v1.1h-1.6v4l1.7-0.6L21.9,175.9z M31.4,177.6v1.1H21.1v-1.1H26v-2.2h-3.6v-1.1H26v-1.9h-3.4v-7.1h8.1v7.1h-3.5v1.9
		h3.7v1.1h-3.7v2.2H31.4z M23.6,168.4h2.4v-2h-2.4V168.4z M23.6,171.4h2.4v-2h-2.4V171.4z M29.5,166.4h-2.4v2h2.4V166.4z
		 M29.5,169.4h-2.4v2h2.4V169.4z"/>
	<path class="st6" d="M46.5,168.1c0,0,0,0.4,0,0.6c-0.4,6.6-0.7,8.9-1.4,9.7c-0.4,0.4-0.8,0.6-1.4,0.6c-0.6,0-1.6,0-2.6,0
		c0-0.4-0.2-0.9-0.4-1.2c1.1,0.1,2.1,0.1,2.5,0.1c0.3,0,0.5,0,0.7-0.2c0.6-0.5,0.9-2.8,1.2-8.4h-5.5c-0.2,3.3-1.3,7.2-5.9,10
		c-0.2-0.3-0.6-0.8-0.9-0.9c4.3-2.6,5.4-6.1,5.6-9.1h-5.1v-1.2h5.2c0-0.2,0-0.5,0-0.7v-2.8h1.2v2.8c0,0.2,0,0.4,0,0.7H46.5z"/>
</g>
<g class="st4">
	<path class="st6" d="M2.3,60.6C2,61,1.6,61.4,1.2,61.8c-0.1-0.3-0.4-0.8-0.7-1.1c1.3-1.2,2.8-3.2,3.5-5.2l0.9,0.6
		c-0.1,0.3-0.2,0.5-0.3,0.8c1.1,1.1,2.2,2.4,2.8,3.2L6.7,61c-0.5-0.9-1.6-2.1-2.6-3.2C3.6,58.8,3,59.7,2.3,60.6l3.7-0.1v1H2.3V60.6z
		 M7.2,63.5C6.6,65,5.5,66.8,4.7,68c0.4,0.5,0.9,0.9,1.2,1.3L5,70.1c-0.7-1-2.1-2.4-3.2-3.4L2.5,66c0.4,0.3,0.9,0.7,1.3,1.2
		c0.7-0.8,1.4-2,1.9-3.1H1.3v-1h5L6.4,63L7.2,63.5z M10.6,68.1c-0.8,0.8-2.1,1.7-3.2,2.1c-0.2-0.2-0.5-0.6-0.8-0.8
		c1.1-0.4,2.4-1.3,2.9-2L10.6,68.1z M10.4,58.9c0.1-0.5,0.2-1,0.3-1.5H7.4v-1h7.8v1H12c-0.2,0.5-0.3,1.1-0.5,1.5h3.2v8.3H8v-8.3
		H10.4z M13.6,59.8H9.1v1.6h4.6V59.8z M13.6,62.3H9.1v1.6h4.6V62.3z M13.6,64.7H9.1v1.6h4.6V64.7z M12.9,67.6c0.9,0.6,2,1.4,2.6,2
		l-0.9,0.7c-0.5-0.6-1.6-1.5-2.5-2.1L12.9,67.6z"/>
	<path class="st6" d="M20.8,60.2c-0.3,0.9-0.8,1.9-1.3,2.7c0.4,0.1,0.7,0.4,1.3,0.7c1,0.5,2.4,0.6,4.1,0.6c2,0,4.7-0.1,6.4-0.3
		C31.2,64.1,31,64.6,31,65c-1.4,0.1-4.4,0.2-6.1,0.2c-1.9,0-3.3-0.1-4.3-0.7c-0.6-0.3-1-0.7-1.4-0.7c-0.4,0-1.1,0.8-1.7,1.6
		l-0.7-0.9c0.4-0.4,0.9-0.8,1.3-1.2h0c0.5-0.6,1-1.5,1.3-2.3h-2.2c0.4-0.6,0.9-1.5,1.3-2.3h-1.8v-0.9h3.4c-0.4,0.8-0.8,1.6-1.3,2.3
		h1.1l0.2,0L20.8,60.2z M27.8,66.1H31V67h-3.2v2c0,0.6-0.1,0.9-0.6,1.1c-0.5,0.2-1.3,0.2-2.6,0.2c0-0.3-0.2-0.7-0.4-1
		c1,0,1.9,0,2.2,0c0.3,0,0.3-0.1,0.3-0.3V67h-6.3c0.8,0.5,1.9,1.2,2.4,1.8l-0.9,0.8c-0.4-0.6-1.5-1.4-2.3-1.9l0.8-0.7h-3.4v-0.9h9.7
		v-0.9h1.2V66.1z M18.3,57.6c-0.2-0.4-0.5-1.2-0.7-1.7l1-0.3c0.2,0.5,0.6,1.2,0.7,1.6L18.3,57.6z M24.8,58.7
		c0.1-0.3,0.2-0.5,0.3-0.8H21v-0.9h2.7c-0.2-0.4-0.4-0.8-0.7-1.2l1-0.3c0.3,0.4,0.7,1,0.9,1.4l-0.2,0.1h2.6c0.3-0.4,0.6-1.1,0.8-1.5
		l1.1,0.2c-0.3,0.4-0.6,0.8-0.8,1.2h2.7v0.9h-4.6c-0.1,0.3-0.3,0.6-0.4,0.8h3.8v4.8H22v-4.8H24.8z M28.5,59.4h-5.3v0.7h5.3V59.4z
		 M28.5,60.7h-5.3v0.7h5.3V60.7z M28.5,62.1h-5.3v0.8h5.3V62.1z"/>
	<path class="st6" d="M46.5,59.1c0,0,0,0.4,0,0.6c-0.4,6.6-0.7,8.9-1.4,9.7c-0.4,0.4-0.8,0.6-1.4,0.6c-0.6,0-1.6,0-2.6,0
		c0-0.4-0.2-0.9-0.4-1.2c1.1,0.1,2.1,0.1,2.5,0.1c0.3,0,0.5,0,0.7-0.2c0.6-0.5,0.9-2.8,1.2-8.4h-5.5c-0.2,3.3-1.3,7.2-5.9,10
		c-0.2-0.3-0.6-0.8-0.9-0.9c4.3-2.6,5.4-6.1,5.6-9.1h-5.1v-1.2h5.2c0-0.2,0-0.5,0-0.7v-2.8h1.2v2.8c0,0.2,0,0.4,0,0.7H46.5z"/>
</g>
<g>
	<path class="st8" d="M69,45h3v350h-3V45z"/>
</g>
<g>
	<path class="st8" d="M69,394h929v3H69V394z"/>
</g>
<g>
	<path class="st7" d="M70.5,34l-7,12h14L70.5,34"/>
</g>
<g>
	<path class="st7" d="M992,388.8l-0.1,13.9l12.1-7L992,388.8"/>
</g>
<g>
	<g>
		<path class="st9" d="M251,396h3v7h-3V396z"/>
	</g>
	<g>
		<path class="st9" d="M386,396h3v7h-3V396z"/>
	</g>
	<g>
		<path class="st9" d="M534,396h3v7h-3V396z"/>
	</g>
	<g>
		<path class="st9" d="M729,396h3v7h-3V396z"/>
	</g>
</g>
<g>
	<path class="st9" d="M67,280h7v3h-7V280z"/>
</g>
<g>
	<path class="st9" d="M67,172h7v3h-7V172z"/>
</g>
<g>
	<path class="st9" d="M67,64h7v3h-7V64z"/>
</g>
<g>
	<path class="st6" d="M24.2,422.7c-0.4,1.1-1.1,2.4-1.6,3.2c-0.2-0.1-0.6-0.4-0.8-0.6c0.6-0.8,1.2-1.8,1.5-2.9L24.2,422.7z
		 M26.2,421.6v5.6H25v-5.6h-3.2v-1H25v-1.7h-3.3v-1h4.4c0.3-0.7,0.7-1.8,0.9-2.5l1.1,0.2c-0.3,0.8-0.6,1.6-0.9,2.3h2v1h-3.1v1.7h2.9
		v1H26.2z M29,415.3h-7v-1h3.1c-0.2-0.5-0.5-1-0.7-1.5l1.2-0.3c0.3,0.5,0.7,1.2,0.9,1.8H29V415.3z M23.7,417.8
		c-0.1-0.6-0.3-1.5-0.6-2.2l0.9-0.2c0.3,0.7,0.6,1.6,0.7,2.2L23.7,417.8z M27.8,422.4c0.5,0.8,1.1,1.8,1.3,2.5l-0.8,0.5
		c-0.3-0.7-0.8-1.8-1.3-2.6L27.8,422.4z M36.3,419.1h-1.8v8.1h-1.2v-8.1h-2.2v0.6c0,2.3-0.2,5.4-1.7,7.5c-0.2-0.2-0.7-0.6-0.9-0.7
		c1.3-1.9,1.5-4.7,1.5-6.8v-5.5c1.8-0.3,3.8-0.8,5-1.2l1,0.9c-1.3,0.5-3.2,0.9-4.8,1.2v3h5.1V419.1z"/>
	<path class="st6" d="M38.5,418.3c-0.2-0.2-0.6-0.6-0.8-0.7c1.2-1.5,2-3.5,2.4-5l1.1,0.1c-0.1,0.4-0.2,0.8-0.4,1.3h2l0.2-0.1
		l0.7,0.5c-0.3,0.7-0.7,1.5-1.2,2.2h2.1v6.2h-5.9V418L38.5,418.3z M37.6,426.8c0.7-0.7,1-2,1.2-3.3l0.9,0.2
		c-0.2,1.3-0.4,2.7-1.2,3.5L37.6,426.8z M40.4,415c-0.2,0.5-0.5,1.1-0.8,1.6h1.8c0.3-0.5,0.6-1.1,0.8-1.6H40.4z M41.1,419.2v-1.6
		h-1.5v1.6H41.1z M39.7,420.1v1.6h1.5v-1.6H39.7z M41.1,423.5c0.2,0.9,0.3,2.1,0.2,2.9l-0.9,0.1c0-0.8,0-2-0.2-3L41.1,423.5z
		 M42.5,423.5c0.4,0.9,0.7,2,0.8,2.8l-0.8,0.2c-0.1-0.8-0.4-1.9-0.7-2.8L42.5,423.5z M43.5,417.6H42v1.6h1.5V417.6z M43.5,420.1H42
		v1.6h1.5V420.1z M44.1,423.2c0.5,0.9,1.1,2.1,1.3,2.9l-0.8,0.3c-0.2-0.8-0.8-2-1.2-2.9L44.1,423.2z M52.3,423.1H49v4.1h-1.2v-4.1
		h-3v-1h3v-2.2h-2.5v-1.1h2.5v-2.1H45v-1.1h1.5c-0.2-0.8-0.6-1.9-1.1-2.7l1-0.3c0.5,0.9,1,2,1.2,2.8l-0.7,0.3h3l-0.8-0.2
		c0.4-0.8,1-2,1.2-2.9l1.2,0.3c-0.4,0.9-1,2.1-1.4,2.8H52v1.1h-3v2.1h2.7v1.1H49v2.2h3.3V423.1z"/>
	<path class="st6" d="M61.6,412.7c0,0.6,0,1.4-0.1,2.3c0.2,1.9,1.2,8.6,6.9,11.1c-0.3,0.3-0.7,0.7-0.9,1c-4-1.9-5.7-5.8-6.5-8.8
		c-0.7,3.2-2.4,6.8-6.3,8.9c-0.2-0.3-0.6-0.7-1-0.9c6.6-3.4,6.5-11.1,6.6-13.6H61.6z"/>
</g>
<g>
	<g>
		<path class="st10" d="M57.4,394.1v4.2c0,1.9-5.5,3.5-12.2,3.5S33,400.2,33,398.2v-4.2H57.4z"/>
	</g>
	<g>
		<path class="st11" d="M45.2,398.5c-6.8,0-12.2-2-12.2-4.5c0-2.5,5.5-4.5,12.2-4.5s12.2,2,12.2,4.5C57.4,396.5,52,398.5,45.2,398.5
			z"/>
	</g>
	<g>
		<path class="st12" d="M45.1,383.4c-0.4,0-0.8,0.1-1.2,0.1c-6.1,0-11-4.9-11-10.9c0-0.8,0.1-1.6,0.3-2.4c0.4,0,0.8-0.1,1.2-0.1
			c6.1,0,11,4.9,11,10.9C45.4,381.8,45.3,382.6,45.1,383.4L45.1,383.4z"/>
	</g>
	<g>
		<path class="st13" d="M45.1,383.4c0.2-0.8,0.3-1.6,0.3-2.4c0-1.4-0.3-2.7-0.7-3.9c-1,1.7-1.6,3.6-1.6,5.8c0,0.2,0,0.4,0,0.6
			c0.3,0,0.6,0,0.9,0C44.3,383.5,44.7,383.5,45.1,383.4z"/>
	</g>
	<g>
		<path class="st14" d="M56.8,370.1c0.2,0.8,0.3,1.6,0.3,2.4c0,6-4.9,10.9-11,10.9c-0.4,0-0.8,0-1.2-0.1c-0.2-0.8-0.3-1.6-0.3-2.4
			c0-6,4.9-10.9,11-10.9C56,370.1,56.4,370.1,56.8,370.1L56.8,370.1z"/>
	</g>
	<g>
		<path class="st15" d="M51.6,376.9l-5.7,6.7v10.1c0,0.3-0.3,0.6-0.6,0.6s-0.6-0.3-0.6-0.6v-10.1l-6.1-6.7c-0.2-0.3-0.2-0.6,0-0.9
			c0.3-0.2,0.6-0.2,0.9,0l5.8,6.4l5.4-6.3c0.2-0.3,0.6-0.3,0.9-0.1C51.8,376.3,51.8,376.7,51.6,376.9z"/>
	</g>
	<g>
		<path class="st10" d="M42.7,394.7c0.3-1.1,1.3-1.9,2.5-1.9c1.2,0,2.2,0.8,2.5,1.9c0,0-0.7,0.5-2.5,0.5S42.7,394.7,42.7,394.7z"/>
	</g>
</g>
</svg>
