<?xml version="1.0" encoding="utf-8"?>
<!-- Generator: Adobe Illustrator 19.0.1, SVG Export Plug-In . SVG Version: 6.00 Build 0)  -->
<svg version="1.1" id="圖層_1" xmlns="http://www.w3.org/2000/svg" xmlns:xlink="http://www.w3.org/1999/xlink" x="0px" y="0px"
	 viewBox="-742.6 374.8 25.4 21.4" style="enable-background:new -742.6 374.8 25.4 21.4;" xml:space="preserve">
<style type="text/css">
	.st0{enable-background:new    ;}
	.st1{fill:#0E6086;}
</style>
<g class="st0">
	<path class="st1" d="M-731.7,377.6c-4.1,2-6.7,6-6.7,9.3c0.5-0.4,1.3-0.6,2.1-0.6c2.8,0,4.7,2.1,4.7,4.9c0,2.4-1.7,4.9-5.1,4.9
		c-3.2,0-5.9-3-5.9-7.2c0-6.7,4.5-12,9.3-14.2L-731.7,377.6z M-717.3,377.6c-4.1,2-6.7,6-6.7,9.3c0.5-0.4,1.2-0.6,2-0.6
		c2.9,0,4.7,2.1,4.7,4.9c0,2.4-1.7,4.9-5.1,4.9c-3.2,0-5.9-3-5.9-7.2c0-6.7,4.6-12,9.4-14.2L-717.3,377.6z"/>
</g>
</svg>
