<?xml version="1.0" encoding="utf-8"?>
<!-- Generator: Adobe Illustrator 19.0.1, SVG Export Plug-In . SVG Version: 6.00 Build 0)  -->
<svg version="1.1" id="圖層_1" xmlns="http://www.w3.org/2000/svg" xmlns:xlink="http://www.w3.org/1999/xlink" x="0px" y="0px"
	 viewBox="-3564.7 1987 80.2 83.9" style="enable-background:new -3564.7 1987 80.2 83.9;" xml:space="preserve">
<style type="text/css">
	.st0{fill:#0086DB;}
</style>
<g>
	<path class="st0" d="M-3550.6,2014.8h-7.1c-3.9,0-7,3.1-7,7v42c0,3.9,3.1,7,7,7h7.1c3.9,0,7-3.1,7-7v-42
		C-3543.5,2018-3546.7,2014.8-3550.6,2014.8z"/>
	<path class="st0" d="M-3484.5,2025c0-6.4-8.5-10.2-12.3-10.2h-16.9c2.9-12.5-0.6-19.6-3-22.8c-2.4-3.2-5.7-5.1-8.9-5.1
		c-2.5,0-4.6,1.2-5.8,3.2c-0.2,0.3-0.3,0.7-0.3,1v10.7c-2.4,7-4.8,12.4-8,16.6v47.9c0.8,0.3,1.5,0.4,2.1,0.4h36.9
		c1.7,0,3.4-0.9,4.9-2.6c2.1-2.4,3.4-6,3.5-9c3-2.2,4.4-6.4,4.2-12c3.2-3.3,3-8.1,2-11C-3484.7,2030.3-3484.5,2027.1-3484.5,2025z"
		/>
</g>
</svg>
