<?xml version="1.0" encoding="utf-8"?>
<!-- Generator: Adobe Illustrator 20.0.0, SVG Export Plug-In . SVG Version: 6.00 Build 0)  -->
<svg version="1.1" id="圖層_1" xmlns="http://www.w3.org/2000/svg" xmlns:xlink="http://www.w3.org/1999/xlink" x="0px" y="0px"
	 viewBox="0 0 80.2 83.9" style="enable-background:new 0 0 80.2 83.9;" xml:space="preserve">
<style type="text/css">
	.st0{fill:#FFFFFF;}
</style>
<g>
	<path class="st0" d="M14.1,27.9H7c-3.9,0-7,3.1-7,7v42c0,3.9,3.1,7,7,7h7.1c3.9,0,7-3.1,7-7v-42C21.2,31.1,18,27.9,14.1,27.9z"/>
	<path class="st0" d="M80.2,38.1c0-6.4-8.5-10.2-12.3-10.2H51c2.9-12.5-0.6-19.6-3-22.8C45.6,1.9,42.3,0,39.1,0
		c-2.5,0-4.6,1.2-5.8,3.2c-0.2,0.3-0.3,0.7-0.3,1v10.7c-2.4,7-4.8,12.4-8,16.6v47.9c0.8,0.3,1.5,0.4,2.1,0.4H64
		c1.7,0,3.4-0.9,4.9-2.6c2.1-2.4,3.4-6,3.5-9c3-2.2,4.4-6.4,4.2-12c3.2-3.3,3-8.1,2-11C80,43.4,80.2,40.2,80.2,38.1z"/>
</g>
</svg>
