<?xml version="1.0" encoding="utf-8"?>
<!-- Generator: Adobe Illustrator 20.0.0, SVG Export Plug-In . SVG Version: 6.00 Build 0)  -->
<svg version="1.1" id="Layer_1" xmlns="http://www.w3.org/2000/svg" xmlns:xlink="http://www.w3.org/1999/xlink" x="0px" y="0px"
	 viewBox="-472 137 495 495" style="enable-background:new -472 137 495 495;" xml:space="preserve">
<style type="text/css">
	.st0{fill:#FFBD48;}
	.st1{fill:#E09F36;}
	.st2{fill:#A0D8E8;}
	.st3{fill:#86C3D1;}
	.st4{fill:#FF5023;}
	.st5{fill:#005ECE;}
</style>
<g>
	<polygon class="st0" points="-100.8,542.8 -100.8,469 -158.7,469 -158.7,429 -100.8,429 -100.8,396 -158.7,396 -158.7,356 
		-100.8,356 -100.8,323 -158.7,323 -158.7,283 -100.8,283 -100.8,216.4 -224.5,216.4 -224.5,632 -120.8,632 -120.8,542.8 	"/>
	<polygon class="st1" points="-100.8,216.4 -100.8,283 -42.8,283 -42.8,323 -100.8,323 -100.8,356 -42.8,356 -42.8,396 -100.8,396 
		-100.8,429 -42.8,429 -42.8,469 -100.8,469 -100.8,542.8 -80.8,542.8 -80.8,632 23,632 23,216.4 	"/>
	<polygon class="st2" points="-348.2,542.8 -348.2,469 -406.2,469 -406.2,429 -348.2,429 -348.2,396 -406.2,396 -406.2,356 
		-348.2,356 -348.2,323 -406.2,323 -406.2,283 -348.2,283 -348.2,250 -406.2,250 -406.2,210 -348.2,210 -348.2,137 -472,137 
		-472,632 -368.2,632 -368.2,542.8 	"/>
	<polygon class="st3" points="-224.5,137 -348.2,137 -348.2,210 -290.3,210 -290.3,250 -348.2,250 -348.2,283 -290.3,283 
		-290.3,323 -348.2,323 -348.2,356 -290.3,356 -290.3,396 -348.2,396 -348.2,429 -290.3,429 -290.3,469 -348.2,469 -348.2,542.8 
		-328.2,542.8 -328.2,632 -224.5,632 	"/>
	<rect x="-120.8" y="542.8" class="st4" width="40" height="89.2"/>
	<rect x="-158.7" y="429" class="st4" width="115.8" height="40"/>
	<rect x="-158.7" y="356" class="st4" width="115.8" height="40"/>
	<rect x="-158.7" y="283" class="st4" width="115.8" height="40"/>
	<rect x="-368.2" y="542.8" class="st5" width="40" height="89.2"/>
	<rect x="-406.2" y="429" class="st5" width="115.8" height="40"/>
	<rect x="-406.2" y="356" class="st5" width="115.8" height="40"/>
	<rect x="-406.2" y="283" class="st5" width="115.8" height="40"/>
	<rect x="-406.2" y="210" class="st5" width="115.8" height="40"/>
</g>
</svg>
