<?xml version="1.0" encoding="utf-8"?>
<!-- Generator: Adobe Illustrator 20.0.0, SVG Export Plug-In . SVG Version: 6.00 Build 0)  -->
<svg version="1.1" id="Layer_1" xmlns="http://www.w3.org/2000/svg" xmlns:xlink="http://www.w3.org/1999/xlink" x="0px" y="0px"
	 viewBox="-389 256.6 355.6 256.8" style="enable-background:new -389 256.6 355.6 256.8;" xml:space="preserve">
<style type="text/css">
	.st0{fill:#324A5E;}
	.st1{fill:#CED5E0;}
	.st2{fill:#E6E9EE;}
	.st3{fill:#FFFFFF;}
	.st4{fill:#FFD05B;}
	.st5{fill:#ACB3BA;}
</style>
<g>
	<path class="st0" d="M-45,513.4h-332c-6.8,0-12-5.2-12-12V301c0-6.8,5.2-12,12-12h331.6c6.8,0,12,5.2,12,12v200.4
		C-33,507.8-38.6,513.4-45,513.4z"/>
	<polygon class="st1" points="-47.4,303 -47.4,499.4 -374.6,499.4 -374.6,303 -345.4,256.6 -345.4,303 -76.6,303 -76.6,256.6 	"/>
	<path class="st2" d="M-76.6,256.6v208.8h-113.6c-10.8,0-20,8.8-20.8,19.6l0,0c-0.8-10.8-9.6-19.6-20.8-19.6h-113.6V256.6h113.6
		c11.6,0,20.8,9.2,20.8,20.8c0-11.6,9.2-20.8,20.8-20.8H-76.6z"/>
	<path class="st3" d="M-211,276.6c0,0.4,0,0.4,0,0.8c0-11.6-9.2-20.8-20.8-20.8h-113.6v208.8h113.6c10.8,0,20,8.8,20.8,19.6l0,0l0,0
		V276.6z"/>
	<g>
		<rect x="-329.8" y="286.2" class="st4" width="102.4" height="28"/>
		<rect x="-329.8" y="314.2" class="st4" width="102.4" height="9.6"/>
	</g>
	<g>
		<rect x="-329.8" y="341.8" class="st2" width="102.4" height="9.6"/>
		<rect x="-329.8" y="369.8" class="st2" width="102.4" height="9.6"/>
		<rect x="-329.8" y="397.8" class="st2" width="102.4" height="9.6"/>
		<rect x="-329.8" y="425.8" class="st2" width="102.4" height="9.6"/>
	</g>
	<g>
		<rect x="-194.6" y="286.2" class="st5" width="102.4" height="9.6"/>
		<rect x="-194.6" y="314.2" class="st5" width="102.4" height="9.6"/>
		<rect x="-194.6" y="341.8" class="st5" width="102.4" height="9.6"/>
		<rect x="-194.6" y="369.8" class="st5" width="102.4" height="9.6"/>
		<rect x="-194.6" y="397.8" class="st5" width="102.4" height="9.6"/>
		<rect x="-194.6" y="425.8" class="st5" width="102.4" height="9.6"/>
	</g>
	<path class="st1" d="M-209.4,343c-0.4-12-0.4-23.6-0.4-33.2c-0.4-19.6-0.8-32.4-0.8-32.4s-0.4,12.8-0.8,32.4
		c0,9.6-0.4,21.2-0.4,33.2s0,25.2-0.4,38c0,12.8,0,26,0.4,38s0.4,23.6,0.4,33.2c0,19.6,0.4,32.8,0.4,32.8s0.4-12.8,0.8-32.4
		c0-9.6,0.4-21.2,0.4-33.2s0-25.2,0.4-38C-209.4,368.2-209.4,355.4-209.4,343z"/>
	<polygon class="st2" points="-345.4,465.4 -374.6,499.4 -374.6,303 -345.4,256.6 	"/>
	<g>
		<polygon class="st5" points="-76.6,256.6 -47.4,303 -47.4,499.4 -76.6,465.4 		"/>
		<path class="st5" d="M-209.4,489.4c-0.4-0.8-0.4-1.6-0.4-2.4c-0.8-1.2-1.2-2-1.2-2s-0.4,0.8-0.8,2.4c0,0.8-0.4,1.6-0.4,2.4
			s0,1.6-0.4,2.8c0,0.8,0,1.6,0.4,2.8c0.4,0.8,0.4,1.6,0.4,2.4c0.4,1.2,1.2,2.4,1.2,2.4s0.4-0.8,0.8-2.4c0-0.8,0.4-1.6,0.4-2.4
			s0-1.6,0.4-2.8C-209.4,491.4-209.4,490.2-209.4,489.4z"/>
	</g>
</g>
</svg>
