<?xml version="1.0" encoding="utf-8"?>
<!-- Generator: Adobe Illustrator 20.0.0, SVG Export Plug-In . SVG Version: 6.00 Build 0)  -->
<svg version="1.1" id="Layer_1" xmlns="http://www.w3.org/2000/svg" xmlns:xlink="http://www.w3.org/1999/xlink" x="0px" y="0px"
	 viewBox="-463 207.8 512 433.2" style="enable-background:new -463 207.8 512 433.2;" xml:space="preserve">
<style type="text/css">
	.st0{fill:#FFC380;}
	.st1{fill:#FFCF99;}
	.st2{fill:#73C3FF;}
	.st3{fill:#5A9DA8;}
	.st4{fill:#75C8D1;}
</style>
<path class="st0" d="M-118.7,384.1h-130c-6.8,0-12.7-4.5-14.5-11.1c-1.8-6.5,1-13.5,6.9-16.9c56.6-33.5,86-72.5,89.9-119.3
	c1.4-16.3,15.8-29.2,32.3-29c16.8,0.3,32.5,7,44.2,18.9c11.8,12,18.3,27.8,18.3,44.6c0,0,0,0,0,0v5c0,41-12.1,67.1-34.6,101
	C-109,381.6-113.7,384.1-118.7,384.1z"/>
<path class="st1" d="M40.6,401.2c0-26-21.1-47.1-47.1-47.1h-242.2c-2.7,0-5.3,0.7-7.6,2.1c-17,10.1-34.2,18.3-48,25
	c-4.8,2.3-9.4,4.5-13.5,6.6c-5.1,2.5-8.3,7.7-8.3,13.4v192.4c0,5.7,3.2,10.9,8.3,13.4c60.7,30.4,111.2,34,170.1,34
	c9.1,0,18.4-0.1,28-0.2c10.6-0.1,21.6-0.2,33.1-0.2h47.5c26,0,47.1-21.1,47.1-47.1c0-8.7-2.4-16.9-6.5-23.9
	c13.5-8.3,22.6-23.2,22.6-40.2c0-8.7-2.4-16.9-6.5-23.9c13.5-8.3,22.6-23.2,22.6-40.2c0-12.2-4.7-23.4-12.3-31.7
	C36,424.8,40.6,413.3,40.6,401.2z"/>
<path id="SVGCleanerId_0" class="st2" d="M-360.4,561.7v79.1h-30.1v-79.1c0-8.3,6.7-15,15-15C-367.1,546.6-360.4,553.4-360.4,561.7z
	"/>
<g>
	<path id="SVGCleanerId_0_1_" class="st2" d="M-360.4,561.7v79.1h-30.1v-79.1c0-8.3,6.7-15,15-15
		C-367.1,546.6-360.4,553.4-360.4,561.7z"/>
</g>
<path class="st3" d="M-311.3,354.1h-128.2c-8.3,0-15,6.7-15,15v256.5c0,8.3,6.7,15,15,15.2h96.2c18.4-0.2,34.4-10.8,42.1-26.3
	c3.2-6.3,5-13.5,5-21V369.1C-296.3,360.8-303,354.1-311.3,354.1z"/>
<path class="st4" d="M-360.4,560.7v80.1h-30.1v-80.1c0-8.3,6.7-15,15-15C-367.1,545.6-360.4,552.4-360.4,560.7z"/>
</svg>
