<?xml version="1.0" encoding="utf-8"?>
<!-- Generator: Adobe Illustrator 20.0.0, SVG Export Plug-In . SVG Version: 6.00 Build 0)  -->
<svg version="1.1" id="Capa_1" xmlns="http://www.w3.org/2000/svg" xmlns:xlink="http://www.w3.org/1999/xlink" x="0px" y="0px"
	 viewBox="-413.5 144.7 412.9 393.7" style="enable-background:new -413.5 144.7 412.9 393.7;" xml:space="preserve">
<style type="text/css">
	.st0{fill:#FFDC64;}
	.st1{fill:#FFC850;}
</style>
<path class="st0" d="M-10.3,286.9L-144,274.5l-53.1-123.4c-3.7-8.6-16-8.6-19.7,0L-270,274.5l-133.7,12.4
	c-9.4,0.9-13.1,12.5-6.1,18.7l100.9,88.6l-29.5,131c-2.1,9.2,7.8,16.4,15.9,11.6l115.5-68.6l115.5,68.6c8.1,4.8,18-2.4,15.9-11.6
	l-29.5-131l100.9-88.6C2.9,299.5-0.9,287.8-10.3,286.9z"/>
<path class="st1" d="M-177.8,196l-19.3-44.9c-3.7-8.6-16-8.6-19.7,0L-270,274.5l-133.7,12.4c-9.4,0.9-13.1,12.5-6.1,18.7l100.9,88.6
	l-29.5,131c-2.1,9.2,7.8,16.4,15.9,11.6l15.4-9.1C-281.9,364.7-211.1,244.9-177.8,196z"/>
</svg>
