<?xml version="1.0" encoding="utf-8"?>
<!-- Generator: Adobe Illustrator 20.0.0, SVG Export Plug-In . SVG Version: 6.00 Build 0)  -->
<svg version="1.1" id="Capa_1" xmlns="http://www.w3.org/2000/svg" xmlns:xlink="http://www.w3.org/1999/xlink" x="0px" y="0px"
	 viewBox="-463 129 512 512" style="enable-background:new -463 129 512 512;" xml:space="preserve">
<style type="text/css">
	.st0{fill:#54C0EB;}
	.st1{fill:#F2F2F2;}
	.st2{fill:#FF7058;}
	.st3{fill:#CDD6E0;}
	.st4{fill:#FFD15C;}
	.st5{opacity:0.2;fill:#334A5E;enable-background:new    ;}
	.st6{fill:#40596B;}
	.st7{fill:#F1543F;}
</style>
<circle class="st0" cx="-207" cy="385" r="256"/>
<path class="st1" d="M-207,577c-105.6,0-192-86.4-192-192s86.4-192,192-192s192,86.4,192,192S-101.4,577-207,577z"/>
<path class="st2" d="M-207,513c-70.4,0-128-57.6-128-128s57.6-128,128-128s128,57.6,128,128S-136.6,513-207,513z"/>
<path class="st3" d="M-207,449c-35.2,0-64-28.8-64-64s28.8-64,64-64s64,28.8,64,64S-171.8,449-207,449z"/>
<path class="st4" d="M-207,449c-35.2,0-64-28.8-64-64s28.8-64,64-64s64,28.8,64,64S-171.8,449-207,449z"/>
<path class="st5" d="M46.9,417c-4.3,32-13.9,61.9-28.8,89.6l-13.9-5.3l-18.1-38.4l-192-69.3c-8.5-3.2-12.8-12.8-9.6-21.3
	s12.8-12.8,21.3-9.6l192,69.3l38.4-18.1L46.9,417z"/>
<path class="st6" d="M-32.1,232.5l-156.8,156.8c-6.4,6.4-17.1,6.4-23.5,0l0,0c-6.4-6.4-6.4-17.1,0-23.5l157.9-155.7
	c6.4-6.4,17.1-6.4,23.5,0l0,0C-25.7,216.5-25.7,226.1-32.1,232.5z"/>
<polygon class="st2" points="-17.1,195.1 -67.3,245.3 -67.3,179.1 -17.1,129 "/>
<polygon class="st7" points="-1.1,245.3 49,195.1 -17.1,195.1 -67.3,245.3 "/>
</svg>
