<?xml version="1.0" encoding="utf-8"?>
<!-- Generator: Adobe Illustrator 20.0.0, SVG Export Plug-In . SVG Version: 6.00 Build 0)  -->
<svg version="1.1" id="Layer_1" xmlns="http://www.w3.org/2000/svg" xmlns:xlink="http://www.w3.org/1999/xlink" x="0px" y="0px"
	 viewBox="107.2 -181.7 633.8 512" style="enable-background:new 107.2 -181.7 633.8 512;" xml:space="preserve">
<style type="text/css">
	.st0{fill:#0073B2;}
	.st1{fill:#0FAAFF;}
	.st2{fill:#003C61;}
	.st3{fill:#FFDBAC;}
	.st4{fill:#FFEED9;}
	.st5{fill:#FFFFFF;}
</style>
<g>
	<path class="st0" d="M248,73.5c-72.1,0-131.6,53.8-140.6,123.4c-0.6,4.7,0.8,9.4,3.9,12.9c3.1,3.5,7.6,5.6,12.3,5.6h248.8
		c4.7,0,9.2-2,12.3-5.6c3.1-3.5,4.6-8.2,4-12.9C379.6,127.3,320.1,73.5,248,73.5z"/>
	<path class="st1" d="M248,73.5c-72.1,0-131.6,53.8-140.6,123.4c-0.6,4.7,0.8,9.4,3.9,12.9c3.1,3.5,7.6,5.6,12.3,5.6H248L248,73.5
		L248,73.5z"/>
	<path class="st2" d="M315,90.3c-20-10.7-42.8-16.8-67-16.8s-47.1,6.1-67,16.8c15.7,23.4,39.9,38.4,67,38.4S299.3,113.7,315,90.3z"
		/>
	<ellipse class="st3" cx="248" cy="0.5" rx="85.9" ry="102.5"/>
	<path class="st4" d="M248-102c-47.5,0-85.9,45.9-85.9,102.5S200.5,103,248,103L248-102L248-102z"/>
	<path class="st0" d="M457.3,73c-104.6,0-191,78-204.1,179.1c-0.9,6.8,1.2,13.6,5.7,18.7c4.5,5.1,11,8.1,17.8,8.1h361.1
		c6.8,0,13.3-2.9,17.8-8.1c4.5-5.1,6.6-12,5.7-18.7C648.3,151.1,561.9,73,457.3,73z"/>
	<path class="st1" d="M457.3,73c-104.6,0-191,78-204.1,179.1c-0.9,6.8,1.2,13.6,5.7,18.7c4.5,5.1,11,8.1,17.8,8.1h180.6V73L457.3,73
		z"/>
	<path class="st2" d="M554.6,97.5c-29-15.6-62.1-24.4-97.3-24.4S389,81.9,360,97.5c22.9,34,57.9,55.7,97.3,55.7
		S531.7,131.4,554.6,97.5z"/>
	<ellipse class="st3" cx="457.3" cy="-32.9" rx="124.7" ry="148.8"/>
	<path class="st4" d="M457.3-181.7c-68.9,0-124.7,66.6-124.7,148.8s55.8,148.8,124.7,148.8L457.3-181.7L457.3-181.7z"/>
	<circle class="st5" cx="644.4" cy="233.7" r="96.6"/>
	<path class="st5" d="M547.7,233.7c0,53.4,43.3,96.6,96.6,96.6V137C591,137,547.7,180.3,547.7,233.7z"/>
	<path class="st1" d="M682.7,217h-21.6v-21.6c0-9.2-7.5-16.7-16.7-16.7c-9.2,0-16.7,7.5-16.7,16.7V217H606
		c-9.2,0-16.7,7.5-16.7,16.7c0,9.2,7.5,16.7,16.7,16.7h21.6V272c0,9.2,7.5,16.7,16.7,16.7c9.2,0,16.7-7.5,16.7-16.7v-21.6h21.6
		c9.2,0,16.7-7.5,16.7-16.7C699.5,224.5,692,217,682.7,217z"/>
	<path class="st1" d="M644.4,178.6c-9.2,0-16.7,7.5-16.7,16.7V217H606c-9.2,0-16.7,7.5-16.7,16.7c0,9.2,7.5,16.7,16.7,16.7h21.6V272
		c0,9.2,7.5,16.7,16.7,16.7V178.6z"/>
</g>
</svg>
