<?xml version="1.0" encoding="utf-8"?>
<!-- Generator: Adobe Illustrator 19.0.1, SVG Export Plug-In . SVG Version: 6.00 Build 0)  -->
<svg version="1.1" id="圖層_1" xmlns="http://www.w3.org/2000/svg" xmlns:xlink="http://www.w3.org/1999/xlink" x="0px" y="0px"
	 viewBox="0 0 141.9 32.4" style="enable-background:new 0 0 141.9 32.4;" xml:space="preserve">
<style type="text/css">
	.st0{fill:#009FE8;}
</style>
<g id="XMLID_1464_">
	<g id="XMLID_1465_">
		<path id="XMLID_1480_" class="st0" d="M130.5,21.1l-0.6-2.5l0,0c-0.1-0.5-0.5-0.9-1.1-0.9h-1.4l0.8,3.4H130.5z M137.9,30.5v-0.9
			h3.7v-1.3h-3.7v-1.1h3.7v-1.4h-3.7v-1.1l3.7,0v-1.4h-2.1l0.4-1.3h2v-1.4h-4v-1.1h3.7v-1.4h-3.7v-0.8h-3v0.8h-3.8v1.4h3.8v1.1h-3.8
			v1.4h1.8l0.3,1.3h-2.2v1.4l3.8,0v1.1h-3.8v1.4h3.8v1.1h-3.8v1.3h3.8v0.9h-5c0.2-2.6,0.7-7.2,0.7-7.2c0-0.6-0.5-1.1-1.1-1.1h-2.1
			v1.7h0.9l-0.6,7c0,0.1,0,0.1,0,0.2l0,0c0,0.6,0.5,1.1,1.1,1.1h12.6c0.3,0,0.5-0.2,0.5-0.5v-1.2H137.9z M135.1,23.2l-0.3-1.3h3.3
			l-0.3,1.3H135.1z M111.9,30.9c0,0.7,0.6,1.3,1.4,1.3h11.5c0.3,0,0.6-0.2,0.6-0.5v-6.5h-13.5V30.9z M114.8,27.1h7.7v3.1h-7.7V27.1z
			 M125.3,19.9L125.3,19.9c-0.1-0.5-0.6-0.9-1.1-0.9h-1.9l0.6,2.6h-8.2l3.3-4.5h-3.4c0,0-2,2.8-2.7,3.9c-1.1,1.6,0.1,2.5,1,2.5h11.8
			c0.6,0,1.1-0.5,1.1-1.1c0-0.1,0-0.2,0-0.2L125.3,19.9z"/>
		<g id="XMLID_1466_">
			<g id="XMLID_1472_">
				<g id="XMLID_1473_">
					<path id="XMLID_1474_" class="st0" d="M94.1,20.3c0,0,0.1-0.1,0.1-0.1v-2.8c0-0.1-0.1-0.2-0.2-0.2l-12.9,0c0,0-0.1,0-0.1,0.1
						c0,0-0.1,0.1-0.1,0.1v2.8c0,0,0,0.1,0.1,0.1c0,0,0.1,0.1,0.1,0.1h4.4v11.7c0,0,0,0.1,0.1,0.1c0,0,0.1,0.1,0.1,0.1
						c0.8,0,3,0,3.3,0l0,0h0c0.2,0,0.4-0.1,0.5-0.2c0.1-0.1,0.3-0.3,0.3-0.6c0-0.7,0-11,0-11v-0.1H94C94,20.4,94.1,20.4,94.1,20.3z
						 M71.1,29.4c0,0,0-0.1-0.1-0.1c0,0-0.1-0.1-0.1-0.1h-8.2v-3.3h7c0,0,0.1,0,0.1-0.1c0,0,0.1-0.1,0.1-0.1v-2.8c0,0,0-0.1-0.1-0.1
						c0,0-0.1-0.1-0.1-0.1h-7v-2.3h8.1c0,0,0.1,0,0.1-0.1c0,0,0.1-0.1,0.1-0.1v-2.8c0,0,0-0.1-0.1-0.1c0,0-0.1-0.1-0.1-0.1H58.5
						c0,0-0.1,0-0.1,0.1c0,0-0.1,0.1-0.1,0.1v13.2c0,0.6,0.3,1,0.7,1.3c0.4,0.3,0.9,0.5,1.2,0.5h10.1c0.2,0,0.4-0.1,0.6-0.3
						c0.1-0.1,0.1-0.2,0.2-0.2c0,0,0-0.1,0-0.1c0,0,0,0,0-0.1c0,0,0,0,0,0V29.4z M84.1,29.4c0,0,0-0.1-0.1-0.1c0,0-0.1-0.1-0.1-0.1
						h-7.1l0-11.8c0,0,0-0.1-0.1-0.1c0,0-0.1-0.1-0.1-0.1h-3.9c-0.1,0-0.2,0.1-0.2,0.2c0,0.3,0,0.9,0,1.6c0,1.1,0,2.7,0,4.3
						c0,3.2,0,6.5,0,7.2c0,0.7,0.3,1.1,0.7,1.4c0.4,0.3,0.8,0.4,1.2,0.4h9.1h0h0c0.2,0,0.4-0.1,0.5-0.3c0.1-0.2,0.2-0.4,0.2-0.5l0,0
						l0,0C84.1,31.3,84.1,30,84.1,29.4z M53.9,23.8c-1.6-2.3-3.4-4.8-3.7-5.3l0,0l0,0c0,0,0,0,0,0c-0.2-0.3-0.5-0.6-0.7-0.8
						c-0.6-0.5-1.4-0.8-2.2-0.8c-1.9,0-3.4,1.5-3.4,3.4l0,0h0v5.2c0,2.7,0,5.7,0,6.5c0,0,0,0.1,0.1,0.1c0,0,0.1,0.1,0.1,0.1h4
						c0,0,0.1,0,0.1-0.1c0,0,0.1-0.1,0.1-0.1V23l4.3,6.2h-2.8c0,0-0.1,0-0.1,0.1c0,0-0.1,0.1-0.1,0.1v2.8c0,0,0,0.1,0.1,0.1
						c0,0,0.1,0.1,0.1,0.1H55c1.4,0,2.6-1.1,2.6-2.6c0-0.5-0.2-1.1-0.5-1.5C57.1,28.3,55.5,26.1,53.9,23.8z M101.6,17
						c-0.8,0-1.6,0.3-2.2,0.8c-0.2,0.2-0.5,0.5-0.7,0.8c-0.4,0.5-2.1,3-3.7,5.3c-1.6,2.3-3.2,4.5-3.2,4.5c-0.3,0.4-0.5,0.9-0.5,1.5
						c0,1.4,1.1,2.6,2.6,2.6h5.3c0,0,0.1,0,0.1-0.1c0,0,0.1-0.1,0.1-0.1v-2.8c0,0,0-0.1-0.1-0.1c0,0-0.1-0.1-0.1-0.1h-2.8l4.3-6.2
						l0,9.1c0,0,0,0.1,0.1,0.1c0,0,0.1,0.1,0.1,0.1h4c0,0,0.1,0,0.1-0.1c0,0,0.1-0.1,0.1-0.1V20.4C105.1,18.5,103.5,17,101.6,17z"/>
				</g>
			</g>
			<path id="XMLID_1467_" class="st0" d="M19.7,0L0,32.4h39.3L19.7,0z M23.4,28.6c-0.9,0-1.8-0.3-2.5-0.7c0,0,0,0-0.1,0
				c-2.2,1.5-4.7,2.5-6.9,2.5c-0.1,0-0.2,0-0.4,0c-1.7-0.1-2.9-0.8-3.8-1.7c-0.8-0.9-1.2-2-1.2-2.9c0-0.1,0-0.2,0-0.2
				c0-2.8,1.9-5.8,4.5-8.2c2.6-2.4,5.9-4.3,9.2-4.3c0,0,0,0,0,0c1.5,0,2.8,0.5,3.7,1.4c0.9,0.9,1.3,2.1,1.3,3.5
				c0,0.9-0.2,1.9-0.6,2.9c0.7,0.8,1.1,1.9,1.1,3C28,26.5,26,28.6,23.4,28.6z M25,15.8c-0.5-0.5-1.3-0.9-2.5-0.9h0
				c-2.6,0-5.7,1.6-8.1,3.8c-2.4,2.2-4,5-4,6.9c0,0,0,0.1,0,0.2c0,0.5,0.3,1.3,0.8,1.8c0.5,0.6,1.3,1,2.6,1.1c0.1,0,0.2,0,0.3,0
				c1.7,0,3.7-0.8,5.7-2.1c-0.5-0.8-0.9-1.7-0.9-2.7c0-2.5,2.1-4.6,4.6-4.6c0.7,0,1.4,0.2,2,0.5c0.2-0.6,0.3-1.3,0.3-1.8
				C25.8,17.1,25.5,16.3,25,15.8z"/>
		</g>
	</g>
</g>
</svg>
