<?xml version="1.0" encoding="utf-8"?>
<!-- Generator: Adobe Illustrator 20.0.0, SVG Export Plug-In . SVG Version: 6.00 Build 0)  -->
<svg version="1.1" id="分離模式" xmlns="http://www.w3.org/2000/svg" xmlns:xlink="http://www.w3.org/1999/xlink" x="0px"
	 y="0px" viewBox="0 0 95 92.6" style="enable-background:new 0 0 95 92.6;" xml:space="preserve">
<style type="text/css">
	.st0{fill:#654320;}
	.st1{fill:#754F28;}
	.st2{fill:#D6CDA7;}
	.st3{fill:#FFFFFF;}
	.st4{fill:#EFEFEF;}
	.st5{fill:#367FC1;}
	.st6{fill:#2A75AD;}
</style>
<g>
	<g>
		<ellipse class="st0" cx="47.5" cy="87.1" rx="16.1" ry="5.5"/>
		<ellipse class="st1" cx="47.5" cy="86.4" rx="16.1" ry="4.8"/>
		<ellipse class="st0" cx="47.5" cy="85.8" rx="8.3" ry="2.5"/>
		<g>
			<path class="st1" d="M54.3,85.3c0,2.8-13.4,2.8-13.4,0V69.2h13.4V85.3z"/>
			<rect x="40.8" y="69.2" class="st0" width="13.4" height="4.2"/>
		</g>
	</g>
	<g>
		<g>
			<g>
				<polygon class="st2" points="93.9,71.1 2.1,71.1 6.6,4.3 88.5,4.3 				"/>
				<polygon class="st3" points="93.8,70.1 2.2,70.1 6.6,3.3 88.5,3.3 				"/>
				<polygon class="st4" points="93.8,70.1 48.1,70.1 47.6,3.3 88.5,3.3 				"/>
			</g>
			<g>
				<g>
					<polygon class="st5" points="19.6,16.5 8.9,16.5 9.5,6 20.1,6 					"/>
					<polygon class="st5" points="33,16.5 22.3,16.5 22.7,6 33.2,6 					"/>
					<polygon class="st5" points="46.4,16.5 35.6,16.5 35.8,6 46.3,6 					"/>
					<polygon class="st6" points="59.8,16.5 49,16.5 48.9,6 59.5,6 					"/>
					<polygon class="st6" points="73.1,16.5 62.4,16.5 62,6 72.6,6 					"/>
					<polygon class="st6" points="86.5,16.5 75.7,16.5 75.2,6 85.7,6 					"/>
				</g>
				<g>
					<polygon class="st5" points="19.1,29.2 8.1,29.2 8.8,18.7 19.6,18.7 					"/>
					<polygon class="st5" points="32.8,29.2 21.8,29.2 22.2,18.7 33,18.7 					"/>
					<polygon class="st5" points="46.4,29.2 35.5,29.2 35.6,18.7 46.4,18.7 					"/>
					<polygon class="st6" points="60.1,29.2 49.1,29.2 49,18.7 59.8,18.7 					"/>
					<polygon class="st6" points="73.8,29.2 62.8,29.2 62.4,18.7 73.2,18.7 					"/>
					<polygon class="st6" points="87.4,29.2 76.5,29.2 75.9,18.7 86.7,18.7 					"/>
				</g>
				<g>
					<polygon class="st5" points="18.6,41.8 7.3,41.8 8,31.3 19,31.3 					"/>
					<polygon class="st5" points="32.5,41.8 21.3,41.8 21.7,31.3 32.7,31.3 					"/>
					<polygon class="st5" points="46.5,41.8 35.3,41.8 35.4,31.3 46.5,31.3 					"/>
					<polygon class="st6" points="60.5,41.8 49.2,41.8 49.1,31.3 60.2,31.3 					"/>
					<polygon class="st6" points="74.4,41.8 63.2,41.8 62.9,31.3 73.9,31.3 					"/>
					<polygon class="st6" points="88.4,41.8 77.2,41.8 76.6,31.3 87.6,31.3 					"/>
				</g>
				<g>
					<polygon class="st5" points="18,54.5 6.6,54.5 7.2,44 18.5,44 					"/>
					<polygon class="st5" points="32.3,54.5 20.8,54.5 21.2,44 32.5,44 					"/>
					<polygon class="st5" points="46.6,54.5 35.1,54.5 35.2,44 46.5,44 					"/>
					<polygon class="st6" points="60.8,54.5 49.4,54.5 49.3,44 60.5,44 					"/>
					<polygon class="st6" points="75.1,54.5 63.6,54.5 63.3,44 74.5,44 					"/>
					<polygon class="st6" points="89.3,54.5 77.9,54.5 77.3,44 88.6,44 					"/>
				</g>
				<g>
					<polygon class="st5" points="17.5,67.2 5.8,67.2 6.4,56.6 18,56.6 					"/>
					<polygon class="st5" points="32.1,67.2 20.4,67.2 20.8,56.6 32.3,56.6 					"/>
					<polygon class="st5" points="46.6,67.2 34.9,67.2 35.1,56.6 46.6,56.6 					"/>
					<polygon class="st6" points="61.2,67.2 49.5,67.2 49.4,56.6 60.9,56.6 					"/>
					<polygon class="st6" points="75.7,67.2 64,67.2 63.7,56.6 75.2,56.6 					"/>
					<polygon class="st6" points="90.3,67.2 78.6,67.2 78,56.6 89.5,56.6 					"/>
				</g>
			</g>
		</g>
	</g>
</g>
</svg>
