<?xml version="1.0" encoding="utf-8"?>
<!-- Generator: Adobe Illustrator 20.0.0, SVG Export Plug-In . SVG Version: 6.00 Build 0)  -->
<svg version="1.1" id="圖層_1" xmlns="http://www.w3.org/2000/svg" xmlns:xlink="http://www.w3.org/1999/xlink" x="0px" y="0px"
	 viewBox="0 0 55.5 52.8" style="enable-background:new 0 0 55.5 52.8;" xml:space="preserve">
<style type="text/css">
	.st0{fill:#FFFFFF;}
</style>
<path class="st0" d="M27.5,0.3c0.2-0.5,0.4-0.5,0.6,0L34.2,19c0.2,0.6,0.7,1,1.3,1h19.6c0.5,0,0.6,0.3,0.2,0.6L39.4,32.1
	c-0.5,0.4-0.7,1-0.5,1.5L45,52.3c0.2,0.5-0.1,0.7-0.5,0.4L28.6,41.2c-0.5-0.3-1.1-0.3-1.6,0L11.1,52.7c-0.4,0.3-0.7,0.2-0.5-0.4
	l6.1-18.7c0.2-0.6,0-1.2-0.5-1.5L0.3,20.6C-0.1,20.3-0.1,20,0.5,20h19.6c0.6,0,1.1-0.4,1.3-1L27.5,0.3z"/>
</svg>
