<?xml version="1.0" encoding="utf-8"?>
<!-- Generator: Adobe Illustrator 19.0.1, SVG Export Plug-In . SVG Version: 6.00 Build 0)  -->
<svg version="1.1" id="圖層_1" xmlns="http://www.w3.org/2000/svg" xmlns:xlink="http://www.w3.org/1999/xlink" x="0px" y="0px"
	 viewBox="-3677.4 1954.4 55.5 52.8" style="enable-background:new -3677.4 1954.4 55.5 52.8;" xml:space="preserve">
<style type="text/css">
	.st0{fill:#0086DB;}
</style>
<path class="st0" d="M-3650,1954.8c0.2-0.5,0.4-0.5,0.6,0l6.1,18.7c0.2,0.6,0.7,1,1.3,1h19.6c0.5,0,0.6,0.3,0.2,0.6l-15.9,11.5
	c-0.5,0.4-0.7,1-0.5,1.5l6.1,18.7c0.2,0.5-0.1,0.7-0.5,0.4l-15.9-11.5c-0.5-0.3-1.1-0.3-1.6,0l-15.9,11.5c-0.4,0.3-0.7,0.2-0.5-0.4
	l6.1-18.7c0.2-0.6,0-1.2-0.5-1.5l-15.9-11.5c-0.4-0.3-0.4-0.6,0.2-0.6h19.6c0.6,0,1.1-0.4,1.3-1L-3650,1954.8z"/>
</svg>
